ScienceGothic-LtExpCtr.ufo
<glyph name="dollar" format="2">
  <advance width="2586"/>
  <unicode hex="0024"/>
  <outline>
    <contour>
      <point x="1271" y="-150" type="line"/>
      <point x="1311" y="-150" type="line"/>
      <point x="1311" y="20" type="line"/>
      <point x="1979" y="20" type="line" smooth="yes"/>
      <point x="2051" y="20"/>
      <point x="2163" y="59"/>
      <point x="2240" y="136"/>
      <point x="2279" y="248"/>
      <point x="2279" y="320" type="qcurve" smooth="yes"/>
      <point x="2279" y="426" type="line" smooth="yes"/>
      <point x="2279" y="498"/>
      <point x="2240" y="610"/>
      <point x="2163" y="687"/>
      <point x="2051" y="726"/>
      <point x="1979" y="726" type="qcurve" smooth="yes"/>
      <point x="1311" y="726" type="line"/>
      <point x="1311" y="1344" type="line"/>
      <point x="1961" y="1344" type="line" smooth="yes"/>
      <point x="2090" y="1344"/>
      <point x="2223" y="1210"/>
      <point x="2223" y="1082" type="qcurve" smooth="yes"/>
      <point x="2223" y="1012" type="line"/>
      <point x="2263" y="1022" type="line"/>
      <point x="2263" y="1080" type="line" smooth="yes"/>
      <point x="2263" y="1152"/>
      <point x="2224" y="1264"/>
      <point x="2147" y="1341"/>
      <point x="2035" y="1380"/>
      <point x="1963" y="1380" type="qcurve" smooth="yes"/>
      <point x="1311" y="1380" type="line"/>
      <point x="1311" y="1550" type="line"/>
      <point x="1271" y="1550" type="line"/>
      <point x="1271" y="1380" type="line"/>
      <point x="629" y="1380" type="line" smooth="yes"/>
      <point x="557" y="1380"/>
      <point x="445" y="1341"/>
      <point x="369" y="1264"/>
      <point x="329" y="1152"/>
      <point x="329" y="1080" type="qcurve" smooth="yes"/>
      <point x="329" y="990" type="line" smooth="yes"/>
      <point x="329" y="918"/>
      <point x="369" y="806"/>
      <point x="445" y="729"/>
      <point x="557" y="690"/>
      <point x="629" y="690" type="qcurve" smooth="yes"/>
      <point x="1271" y="690" type="line"/>
      <point x="1271" y="56" type="line"/>
      <point x="609" y="56" type="line" smooth="yes"/>
      <point x="481" y="56"/>
      <point x="347" y="190"/>
      <point x="347" y="318" type="qcurve" smooth="yes"/>
      <point x="347" y="396" type="line"/>
      <point x="307" y="386" type="line"/>
      <point x="307" y="320" type="line" smooth="yes"/>
      <point x="307" y="248"/>
      <point x="347" y="136"/>
      <point x="423" y="59"/>
      <point x="535" y="20"/>
      <point x="607" y="20" type="qcurve" smooth="yes"/>
      <point x="1271" y="20" type="line"/>
    </contour>
    <contour>
      <point x="1271" y="726" type="line"/>
      <point x="631" y="726" type="line" smooth="yes"/>
      <point x="503" y="726"/>
      <point x="369" y="860"/>
      <point x="369" y="988" type="qcurve" smooth="yes"/>
      <point x="369" y="1082" type="line" smooth="yes"/>
      <point x="369" y="1210"/>
      <point x="503" y="1344"/>
      <point x="631" y="1344" type="qcurve" smooth="yes"/>
      <point x="1271" y="1344" type="line"/>
    </contour>
    <contour>
      <point x="1311" y="56" type="line"/>
      <point x="1311" y="690" type="line"/>
      <point x="1981" y="690" type="line" smooth="yes"/>
      <point x="2110" y="690"/>
      <point x="2243" y="556"/>
      <point x="2243" y="428" type="qcurve" smooth="yes"/>
      <point x="2243" y="318" type="line" smooth="yes"/>
      <point x="2243" y="190"/>
      <point x="2110" y="56"/>
      <point x="1981" y="56" type="qcurve" smooth="yes"/>
    </contour>
  </outline>
</glyph>
<glyph name="percent" format="2">
  <advance width="3337"/>
  <unicode hex="0025"/>
  <outline>
    <contour>
      <point x="456" y="614" type="qcurve" smooth="yes"/>
      <point x="1154" y="614" type="line" smooth="yes"/>
      <point x="1239" y="614"/>
      <point x="1330" y="698"/>
      <point x="1330" y="781" type="qcurve" smooth="yes"/>
      <point x="1330" y="1233" type="line" smooth="yes"/>
      <point x="1330" y="1316"/>
      <point x="1239" y="1400"/>
      <point x="1154" y="1400" type="qcurve" smooth="yes"/>
      <point x="456" y="1400" type="line" smooth="yes"/>
      <point x="371" y="1400"/>
      <point x="280" y="1316"/>
      <point x="280" y="1233" type="qcurve" smooth="yes"/>
      <point x="280" y="781" type="line" smooth="yes"/>
      <point x="280" y="698"/>
      <point x="371" y="614"/>
    </contour>
    <contour>
      <point x="453" y="644" type="line" smooth="yes"/>
      <point x="385" y="644"/>
      <point x="314" y="711"/>
      <point x="314" y="776" type="qcurve" smooth="yes"/>
      <point x="314" y="1238" type="line" smooth="yes"/>
      <point x="314" y="1303"/>
      <point x="385" y="1370"/>
      <point x="453" y="1370" type="qcurve" smooth="yes"/>
      <point x="1157" y="1370" type="line" smooth="yes"/>
      <point x="1225" y="1370"/>
      <point x="1296" y="1303"/>
      <point x="1296" y="1238" type="qcurve" smooth="yes"/>
      <point x="1296" y="776" type="line" smooth="yes"/>
      <point x="1296" y="711"/>
      <point x="1225" y="644"/>
      <point x="1157" y="644" type="qcurve" smooth="yes"/>
    </contour>
    <contour>
      <point x="2347" y="1400" type="line"/>
      <point x="947" y="0" type="line"/>
      <point x="990" y="0" type="line"/>
      <point x="2390" y="1400" type="line"/>
    </contour>
    <contour>
      <point x="2183" y="-1" type="qcurve" smooth="yes"/>
      <point x="2881" y="-1" type="line" smooth="yes"/>
      <point x="2966" y="-1"/>
      <point x="3057" y="83"/>
      <point x="3057" y="166" type="qcurve" smooth="yes"/>
      <point x="3057" y="618" type="line" smooth="yes"/>
      <point x="3057" y="701"/>
      <point x="2966" y="785"/>
      <point x="2881" y="785" type="qcurve" smooth="yes"/>
      <point x="2183" y="785" type="line" smooth="yes"/>
      <point x="2098" y="785"/>
      <point x="2007" y="701"/>
      <point x="2007" y="618" type="qcurve" smooth="yes"/>
      <point x="2007" y="166" type="line" smooth="yes"/>
      <point x="2007" y="83"/>
      <point x="2098" y="-1"/>
    </contour>
    <contour>
      <point x="2180" y="29" type="line" smooth="yes"/>
      <point x="2112" y="29"/>
      <point x="2041" y="96"/>
      <point x="2041" y="161" type="qcurve" smooth="yes"/>
      <point x="2041" y="623" type="line" smooth="yes"/>
      <point x="2041" y="688"/>
      <point x="2112" y="755"/>
      <point x="2180" y="755" type="qcurve" smooth="yes"/>
      <point x="2884" y="755" type="line" smooth="yes"/>
      <point x="2952" y="755"/>
      <point x="3023" y="688"/>
      <point x="3023" y="623" type="qcurve" smooth="yes"/>
      <point x="3023" y="161" type="line" smooth="yes"/>
      <point x="3023" y="96"/>
      <point x="2952" y="29"/>
      <point x="2884" y="29" type="qcurve" smooth="yes"/>
    </contour>
  </outline>
</glyph>
<glyph name="ampersand" format="2">
  <advance width="2212"/>
  <unicode hex="0026"/>
  <outline>
    <contour>
      <point x="387" y="0" type="qcurve" smooth="yes"/>
      <point x="1035" y="0" type="line" smooth="yes"/>
      <point x="1098" y="0"/>
      <point x="1201.38" y="13.9062"/>
      <point x="1295.12" y="46.3438"/>
      <point x="1385.75" y="99.625"/>
      <point x="1436" y="139" type="qcurve" smooth="yes"/>
      <point x="1671" y="326" type="line"/>
      <point x="2141" y="0" type="line"/>
      <point x="2212" y="0" type="line"/>
      <point x="1703" y="353" type="line"/>
      <point x="2093" y="662" type="line"/>
      <point x="2067" y="688" type="line"/>
      <point x="1672" y="375" type="line"/>
      <point x="860" y="936" type="line" smooth="yes"/>
      <point x="755.865" y="1008.44"/>
      <point x="647" y="1111.35"/>
      <point x="647" y="1177" type="qcurve" smooth="yes"/>
      <point x="647" y="1190" type="line" smooth="yes"/>
      <point x="647" y="1273.76"/>
      <point x="758.448" y="1364"/>
      <point x="849" y="1364" type="qcurve" smooth="yes"/>
      <point x="1241" y="1364" type="line" smooth="yes"/>
      <point x="1331.55" y="1364"/>
      <point x="1453" y="1240.1"/>
      <point x="1453" y="1142" type="qcurve" smooth="yes"/>
      <point x="1453" y="1123" type="line"/>
      <point x="1493" y="1132" type="line"/>
      <point x="1493" y="1140" type="line" smooth="yes"/>
      <point x="1493" y="1253.94"/>
      <point x="1352.42" y="1400"/>
      <point x="1243" y="1400" type="qcurve" smooth="yes"/>
      <point x="847" y="1400" type="line" smooth="yes"/>
      <point x="736.074" y="1400"/>
      <point x="607" y="1287.34"/>
      <point x="607" y="1190" type="qcurve" smooth="yes"/>
      <point x="607" y="1177" type="line" smooth="yes"/>
      <point x="607" y="1140.62"/>
      <point x="632.781" y="1078.88"/>
      <point x="679.469" y="1022.62"/>
      <point x="744.625" y="969.125"/>
      <point x="784" y="941" type="qcurve"/>
      <point x="293" y="634" type="line" smooth="yes"/>
      <point x="178.301" y="562.313"/>
      <point x="87" y="428.834"/>
      <point x="87" y="333" type="qcurve" smooth="yes"/>
      <point x="87" y="270" type="line" smooth="yes"/>
      <point x="87" y="207"/>
      <point x="128.156" y="106.875"/>
      <point x="205.594" y="37.125"/>
      <point x="316.875" y="0"/>
    </contour>
    <contour>
      <point x="389" y="36" type="line" smooth="yes"/>
      <point x="260.718" y="36"/>
      <point x="127" y="162.356"/>
      <point x="127" y="268" type="qcurve" smooth="yes"/>
      <point x="127" y="335" type="line" smooth="yes"/>
      <point x="127" y="405.178"/>
      <point x="197.583" y="532.086"/>
      <point x="307" y="600" type="qcurve" smooth="yes"/>
      <point x="816" y="918" type="line"/>
      <point x="1641" y="348" type="line"/>
      <point x="1401" y="158" type="line" smooth="yes"/>
      <point x="1312.71" y="87.8222"/>
      <point x="1163.44" y="36"/>
      <point x="1051" y="36" type="qcurve" smooth="yes"/>
    </contour>
  </outline>
  <guideline angle="90" x="183" y="0"/>
  <guideline angle="90" x="1115" y="0"/>
  <guideline angle="90" x="-98" y="0"/>
</glyph>
<glyph name="parenright" format="2">
  <advance width="809"/>
  <unicode hex="0029"/>
  <outline>
    <contour>
      <point x="250" y="1448" type="line"/>
      <point x="341.125" y="1381.25"/>
      <point x="494.531" y="1192.22"/>
      <point x="605.719" y="968.531"/>
      <point x="668" y="720.625"/>
      <point x="668" y="595" type="qcurve" smooth="yes"/>
      <point x="668" y="469.375"/>
      <point x="605.719" y="222.094"/>
      <point x="494.531" y="-0.84375"/>
      <point x="341.125" y="-189.25"/>
      <point x="250" y="-256" type="qcurve"/>
      <point x="295" y="-256" type="line"/>
      <point x="389.5" y="-184"/>
      <point x="540.938" y="8.53125"/>
      <point x="647.062" y="230.719"/>
      <point x="704" y="473.125"/>
      <point x="704" y="595" type="qcurve" smooth="yes"/>
      <point x="704" y="840.245"/>
      <point x="485.159" y="1303.12"/>
      <point x="295" y="1448" type="qcurve"/>
    </contour>
  </outline>
</glyph>
<glyph name="asterisk" format="2">
  <advance width="1424"/>
  <unicode hex="002A"/>
  <outline>
    <contour>
      <point x="693" y="778" type="line"/>
      <point x="729" y="778" type="line"/>
      <point x="729" y="1088" type="line"/>
      <point x="1092" y="895" type="line"/>
      <point x="1108" y="921" type="line"/>
      <point x="746" y="1113" type="line"/>
      <point x="1109" y="1306" type="line"/>
      <point x="1093" y="1332" type="line"/>
      <point x="729" y="1138" type="line"/>
      <point x="729" y="1448" type="line"/>
      <point x="693" y="1448" type="line"/>
      <point x="693" y="1140" type="line"/>
      <point x="333" y="1332" type="line"/>
      <point x="317" y="1306" type="line"/>
      <point x="680" y="1113" type="line"/>
      <point x="315" y="920" type="line"/>
      <point x="331" y="894" type="line"/>
      <point x="693" y="1087" type="line"/>
    </contour>
  </outline>
</glyph>
<glyph name="plus" format="2">
  <advance width="2020"/>
  <unicode hex="002B"/>
  <outline>
    <contour>
      <point x="1793" y="605" type="line"/>
      <point x="1030" y="605" type="line"/>
      <point x="1030" y="1168" type="line"/>
      <point x="990" y="1168" type="line"/>
      <point x="990" y="605" type="line"/>
      <point x="227" y="605" type="line"/>
      <point x="227" y="569" type="line"/>
      <point x="990" y="569" type="line"/>
      <point x="990" y="0" type="line"/>
      <point x="1030" y="0" type="line"/>
      <point x="1030" y="569" type="line"/>
      <point x="1793" y="569" type="line"/>
    </contour>
  </outline>
</glyph>
<glyph name="comma" format="2">
  <advance width="724"/>
  <unicode hex="002C"/>
  <outline>
    <contour>
      <point x="359" y="-114" type="line"/>
      <point x="335" y="-108" type="line"/>
      <point x="354" y="-4" type="line"/>
      <point x="341" y="-4" type="line" smooth="yes"/>
      <point x="332" y="-4"/>
      <point x="321" y="-3"/>
      <point x="316" y="2"/>
      <point x="315" y="13"/>
      <point x="315" y="22" type="qcurve" smooth="yes"/>
      <point x="315" y="64" type="line" smooth="yes"/>
      <point x="315" y="73"/>
      <point x="316" y="84"/>
      <point x="321" y="89"/>
      <point x="332" y="90"/>
      <point x="341" y="90" type="qcurve" smooth="yes"/>
      <point x="383" y="90" type="line" smooth="yes"/>
      <point x="392" y="90"/>
      <point x="403" y="89"/>
      <point x="408" y="84"/>
      <point x="409" y="73"/>
      <point x="409" y="64" type="qcurve" smooth="yes"/>
      <point x="409" y="22" type="line" smooth="yes"/>
      <point x="409" y="18"/>
      <point x="408" y="10"/>
      <point x="406" y="2"/>
      <point x="403" y="-7"/>
      <point x="400" y="-14" type="qcurve" smooth="yes"/>
    </contour>
  </outline>
</glyph>
<glyph name="zero" format="2">
  <advance width="2496"/>
  <unicode hex="0030"/>
  <outline>
    <contour>
      <point x="650" y="0" type="qcurve" smooth="yes"/>
      <point x="1846" y="0" type="line" smooth="yes"/>
      <point x="1991.64" y="0"/>
      <point x="2146" y="154.362"/>
      <point x="2146" y="300" type="qcurve" smooth="yes"/>
      <point x="2146" y="1100" type="line" smooth="yes"/>
      <point x="2146" y="1244.75"/>
      <point x="1990.75" y="1400"/>
      <point x="1846" y="1400" type="qcurve" smooth="yes"/>
      <point x="650" y="1400" type="line" smooth="yes"/>
      <point x="505.25" y="1400"/>
      <point x="350" y="1244.75"/>
      <point x="350" y="1100" type="qcurve" smooth="yes"/>
      <point x="350" y="300" type="line" smooth="yes"/>
      <point x="350" y="154.362"/>
      <point x="504.362" y="0"/>
    </contour>
    <contour>
      <point x="652" y="36" type="line" smooth="yes"/>
      <point x="523.718" y="36"/>
      <point x="390" y="169.718"/>
      <point x="390" y="298" type="qcurve" smooth="yes"/>
      <point x="390" y="1102" type="line" smooth="yes"/>
      <point x="390" y="1230.28"/>
      <point x="523.718" y="1364"/>
      <point x="652" y="1364" type="qcurve" smooth="yes"/>
      <point x="1844" y="1364" type="line" smooth="yes"/>
      <point x="1972.28" y="1364"/>
      <point x="2106" y="1230.28"/>
      <point x="2106" y="1102" type="qcurve" smooth="yes"/>
      <point x="2106" y="298" type="line" smooth="yes"/>
      <point x="2106" y="169.718"/>
      <point x="1972.28" y="36"/>
      <point x="1844" y="36" type="qcurve" smooth="yes"/>
    </contour>
  </outline>
</glyph>
<glyph name="one" format="2">
  <advance width="1161"/>
  <unicode hex="0031"/>
  <outline>
    <contour>
      <point x="631" y="0" type="line"/>
      <point x="671" y="0" type="line"/>
      <point x="671" y="1414" type="line"/>
      <point x="245" y="1349" type="line"/>
      <point x="245" y="1313" type="line"/>
      <point x="631" y="1368" type="line"/>
    </contour>
  </outline>
  <guideline angle="90" color="0.4,0.4,0.4,1" name="halfwidth" x="580.5" y="0"/>
</glyph>
<glyph name="two" format="2">
  <advance width="2376"/>
  <unicode hex="0032"/>
  <outline>
    <contour>
      <point x="350" y="0" type="line"/>
      <point x="1933" y="0" type="line" smooth="yes"/>
      <point x="2008" y="0"/>
      <point x="2096" y="84.75"/>
      <point x="2096" y="153" type="qcurve" smooth="yes"/>
      <point x="2096" y="216" type="line"/>
      <point x="2056" y="226" type="line"/>
      <point x="2056" y="151" type="line" smooth="yes"/>
      <point x="2056" y="99.6872"/>
      <point x="1988.35" y="36"/>
      <point x="1931" y="36" type="qcurve" smooth="yes"/>
      <point x="390" y="36" type="line"/>
      <point x="390" y="182" type="line" smooth="yes"/>
      <point x="390" y="284.626"/>
      <point x="495.405" y="437.46"/>
      <point x="675" y="485" type="qcurve" smooth="yes"/>
      <point x="1776" y="776" type="line" smooth="yes"/>
      <point x="1861.5" y="798.5"/>
      <point x="1976" y="859.812"/>
      <point x="2045" y="936.688"/>
      <point x="2074" y="1028.75"/>
      <point x="2074" y="1082" type="qcurve" smooth="yes"/>
      <point x="2074" y="1127" type="line" smooth="yes"/>
      <point x="2074" y="1191.12"/>
      <point x="2038.69" y="1292.47"/>
      <point x="1966.31" y="1362.78"/>
      <point x="1856" y="1400"/>
      <point x="1781" y="1400" type="qcurve" smooth="yes"/>
      <point x="669" y="1400" type="line" smooth="yes"/>
      <point x="594" y="1400"/>
      <point x="483.688" y="1362.16"/>
      <point x="411.312" y="1288.09"/>
      <point x="376" y="1178.62"/>
      <point x="376" y="1107" type="qcurve" smooth="yes"/>
      <point x="376" y="1018" type="line"/>
      <point x="416" y="1010" type="line"/>
      <point x="416" y="1109" type="line" smooth="yes"/>
      <point x="416" y="1235.77"/>
      <point x="538.19" y="1364"/>
      <point x="671" y="1364" type="qcurve" smooth="yes"/>
      <point x="1779" y="1364" type="line" smooth="yes"/>
      <point x="1911.81" y="1364"/>
      <point x="2034" y="1240.68"/>
      <point x="2034" y="1129" type="qcurve" smooth="yes"/>
      <point x="2034" y="1084" type="line" smooth="yes"/>
      <point x="2034" y="985.75"/>
      <point x="1925.75" y="854.5"/>
      <point x="1760" y="811" type="qcurve" smooth="yes"/>
      <point x="667" y="522" type="line" smooth="yes"/>
      <point x="469.75" y="470.25"/>
      <point x="350" y="296"/>
      <point x="350" y="185" type="qcurve" smooth="yes"/>
    </contour>
  </outline>
</glyph>
<glyph name="three" format="2">
  <advance width="2430"/>
  <unicode hex="0033"/>
  <outline>
    <contour>
      <point x="350" y="398" type="line"/>
      <point x="350" y="293" type="line" smooth="yes"/>
      <point x="350" y="150"/>
      <point x="493" y="0"/>
      <point x="643" y="0" type="qcurve" smooth="yes"/>
      <point x="1787" y="0" type="line" smooth="yes"/>
      <point x="1862" y="0"/>
      <point x="1972" y="38"/>
      <point x="2045" y="112"/>
      <point x="2080" y="221"/>
      <point x="2080" y="293" type="qcurve" smooth="yes"/>
      <point x="2080" y="490" type="line" smooth="yes"/>
      <point x="2080" y="587"/>
      <point x="1997" y="689"/>
      <point x="1909" y="712" type="qcurve"/>
      <point x="1989" y="737"/>
      <point x="2064" y="838"/>
      <point x="2064" y="930" type="qcurve" smooth="yes"/>
      <point x="2064" y="1107" type="line" smooth="yes"/>
      <point x="2064" y="1179"/>
      <point x="2029" y="1288"/>
      <point x="1956" y="1362"/>
      <point x="1846" y="1400"/>
      <point x="1771" y="1400" type="qcurve" smooth="yes"/>
      <point x="653" y="1400" type="line" smooth="yes"/>
      <point x="578" y="1400"/>
      <point x="468" y="1362"/>
      <point x="395" y="1288"/>
      <point x="360" y="1179"/>
      <point x="360" y="1107" type="qcurve" smooth="yes"/>
      <point x="360" y="978" type="line"/>
      <point x="400" y="970" type="line"/>
      <point x="400" y="1109" type="line" smooth="yes"/>
      <point x="400" y="1236"/>
      <point x="522" y="1364"/>
      <point x="655" y="1364" type="qcurve" smooth="yes"/>
      <point x="1769" y="1364" type="line" smooth="yes"/>
      <point x="1902" y="1364"/>
      <point x="2024" y="1236"/>
      <point x="2024" y="1109" type="qcurve" smooth="yes"/>
      <point x="2024" y="920" type="line" smooth="yes"/>
      <point x="2024" y="814"/>
      <point x="1881" y="728"/>
      <point x="1760" y="728" type="qcurve" smooth="yes"/>
      <point x="991" y="728" type="line"/>
      <point x="991" y="692" type="line"/>
      <point x="1776" y="692" type="line" smooth="yes"/>
      <point x="1897" y="692"/>
      <point x="2040" y="606"/>
      <point x="2040" y="500" type="qcurve" smooth="yes"/>
      <point x="2040" y="291" type="line" smooth="yes"/>
      <point x="2040" y="164"/>
      <point x="1918" y="36"/>
      <point x="1785" y="36" type="qcurve" smooth="yes"/>
      <point x="645" y="36" type="line" smooth="yes"/>
      <point x="512" y="36"/>
      <point x="390" y="164"/>
      <point x="390" y="291" type="qcurve" smooth="yes"/>
      <point x="390" y="406" type="line"/>
    </contour>
  </outline>
</glyph>
<glyph name="four" format="2">
  <advance width="2478"/>
  <unicode hex="0034"/>
  <outline>
    <contour>
      <point x="5" y="384" type="line"/>
      <point x="1673" y="384" type="line"/>
      <point x="1673" y="-4" type="line"/>
      <point x="1713" y="-4" type="line"/>
      <point x="1713" y="384" type="line"/>
      <point x="2251" y="384" type="line"/>
      <point x="2251" y="420" type="line"/>
      <point x="1713" y="420" type="line"/>
      <point x="1713" y="1364" type="line"/>
      <point x="1676" y="1364" type="line"/>
      <point x="5" y="412" type="line"/>
    </contour>
    <contour>
      <point x="90" y="420" type="line"/>
      <point x="1673" y="1320" type="line"/>
      <point x="1673" y="420" type="line"/>
    </contour>
  </outline>
</glyph>
<glyph name="five" format="2">
  <advance width="2398"/>
  <unicode hex="0035"/>
  <outline>
    <contour>
      <point x="1234" y="-12" type="qcurve" smooth="yes"/>
      <point x="1463" y="-12"/>
      <point x="1786" y="36"/>
      <point x="1990" y="139"/>
      <point x="2084" y="300"/>
      <point x="2084" y="412" type="qcurve" smooth="yes"/>
      <point x="2084" y="532"/>
      <point x="1980" y="689"/>
      <point x="1775" y="782"/>
      <point x="1471" y="819"/>
      <point x="1270" y="819" type="qcurve" smooth="yes"/>
      <point x="1124" y="819"/>
      <point x="860" y="803"/>
      <point x="629" y="777"/>
      <point x="432" y="742"/>
      <point x="354" y="722" type="qcurve"/>
      <point x="405" y="1362" type="line"/>
      <point x="1918" y="1362" type="line"/>
      <point x="1926" y="1400" type="line"/>
      <point x="372" y="1400" type="line"/>
      <point x="314" y="676" type="line"/>
      <point x="415" y="701"/>
      <point x="629" y="740"/>
      <point x="869" y="768"/>
      <point x="1139" y="783"/>
      <point x="1296" y="783" type="qcurve" smooth="yes"/>
      <point x="1473" y="783"/>
      <point x="1751" y="750"/>
      <point x="1943" y="665"/>
      <point x="2044" y="519"/>
      <point x="2044" y="406" type="qcurve" smooth="yes"/>
      <point x="2044" y="294"/>
      <point x="1935" y="147"/>
      <point x="1726" y="60"/>
      <point x="1422" y="24"/>
      <point x="1226" y="24" type="qcurve" smooth="yes"/>
      <point x="1049" y="24"/>
      <point x="764" y="34"/>
      <point x="541" y="52"/>
      <point x="375" y="76"/>
      <point x="316" y="90" type="qcurve"/>
      <point x="330" y="46" type="line"/>
      <point x="398" y="34"/>
      <point x="593" y="13"/>
      <point x="828" y="-3"/>
      <point x="1095" y="-12"/>
    </contour>
  </outline>
</glyph>
<glyph name="eight" format="2">
  <advance width="2550"/>
  <unicode hex="0038"/>
  <outline>
    <contour>
      <point x="355" y="278" type="line" smooth="yes"/>
      <point x="355" y="207"/>
      <point x="401" y="113"/>
      <point x="481" y="58"/>
      <point x="590" y="36"/>
      <point x="653" y="36" type="qcurve" smooth="yes"/>
      <point x="1897" y="36" type="line" smooth="yes"/>
      <point x="1960" y="36"/>
      <point x="2069" y="58"/>
      <point x="2149" y="113"/>
      <point x="2195" y="207"/>
      <point x="2195" y="278" type="qcurve" smooth="yes"/>
      <point x="2195" y="470" type="line" smooth="yes"/>
      <point x="2195" y="546"/>
      <point x="2137" y="635"/>
      <point x="2056" y="681"/>
      <point x="1967" y="694"/>
      <point x="1937" y="694" type="qcurve" smooth="yes"/>
      <point x="613" y="694" type="line" smooth="yes"/>
      <point x="583" y="694"/>
      <point x="494" y="681"/>
      <point x="413" y="635"/>
      <point x="355" y="546"/>
      <point x="355" y="470" type="qcurve" smooth="yes"/>
    </contour>
    <contour>
      <point x="2165" y="1134" type="line" smooth="yes"/>
      <point x="2165" y="1186"/>
      <point x="2132" y="1271"/>
      <point x="2063" y="1331"/>
      <point x="1958" y="1364"/>
      <point x="1887" y="1364" type="qcurve" smooth="yes"/>
      <point x="663" y="1364" type="line" smooth="yes"/>
      <point x="592" y="1364"/>
      <point x="487" y="1331"/>
      <point x="418" y="1271"/>
      <point x="385" y="1186"/>
      <point x="385" y="1134" type="qcurve" smooth="yes"/>
      <point x="385" y="962" type="line" smooth="yes"/>
      <point x="385" y="910"/>
      <point x="416" y="824"/>
      <point x="482" y="763"/>
      <point x="588" y="730"/>
      <point x="663" y="730" type="qcurve" smooth="yes"/>
      <point x="1887" y="730" type="line" smooth="yes"/>
      <point x="1962" y="730"/>
      <point x="2068" y="763"/>
      <point x="2134" y="824"/>
      <point x="2165" y="910"/>
      <point x="2165" y="962" type="qcurve" smooth="yes"/>
    </contour>
    <contour>
      <point x="315" y="280" type="line"/>
      <point x="315" y="458" type="line" smooth="yes"/>
      <point x="315" y="526"/>
      <point x="353" y="620"/>
      <point x="416" y="681"/>
      <point x="497" y="712"/>
      <point x="539" y="716" type="qcurve"/>
      <point x="497" y="721"/>
      <point x="425" y="761"/>
      <point x="374" y="826"/>
      <point x="345" y="912"/>
      <point x="345" y="964" type="qcurve" smooth="yes"/>
      <point x="345" y="1132" type="line" smooth="yes"/>
      <point x="345" y="1194"/>
      <point x="385" y="1293"/>
      <point x="464" y="1362"/>
      <point x="584" y="1400"/>
      <point x="663" y="1400" type="qcurve" smooth="yes"/>
      <point x="1887" y="1400" type="line" smooth="yes"/>
      <point x="1967" y="1400"/>
      <point x="2086" y="1362"/>
      <point x="2165" y="1293"/>
      <point x="2205" y="1194"/>
      <point x="2205" y="1132" type="qcurve" smooth="yes"/>
      <point x="2205" y="964" type="line" smooth="yes"/>
      <point x="2205" y="912"/>
      <point x="2176" y="826"/>
      <point x="2125" y="761"/>
      <point x="2053" y="721"/>
      <point x="2011" y="716" type="qcurve"/>
      <point x="2053" y="712"/>
      <point x="2134" y="681"/>
      <point x="2197" y="620"/>
      <point x="2235" y="526"/>
      <point x="2235" y="458" type="qcurve" smooth="yes"/>
      <point x="2235" y="280" type="line" smooth="yes"/>
      <point x="2235" y="200"/>
      <point x="2184" y="92"/>
      <point x="2094" y="27"/>
      <point x="1970" y="0"/>
      <point x="1897" y="0" type="qcurve" smooth="yes"/>
      <point x="653" y="0" type="line" smooth="yes"/>
      <point x="581" y="0"/>
      <point x="457" y="27"/>
      <point x="367" y="92"/>
      <point x="315" y="200"/>
      <point x="315" y="280" type="qcurve"/>
    </contour>
  </outline>
</glyph>
<glyph name="nine" format="2">
  <advance width="2432"/>
  <unicode hex="0039"/>
  <outline>
    <contour>
      <point x="1187" y="1400" type="qcurve" smooth="yes"/>
      <point x="886" y="1400"/>
      <point x="528" y="1385"/>
      <point x="338" y="1316"/>
      <point x="280" y="1172"/>
      <point x="280" y="1042" type="qcurve" smooth="yes"/>
      <point x="280" y="901"/>
      <point x="342" y="747"/>
      <point x="529" y="675"/>
      <point x="872" y="663"/>
      <point x="1154" y="663" type="qcurve" smooth="yes"/>
      <point x="1323" y="663"/>
      <point x="1595" y="674"/>
      <point x="1818" y="696"/>
      <point x="2002" y="730"/>
      <point x="2083" y="754" type="qcurve"/>
      <point x="2085" y="790" type="line"/>
      <point x="1992" y="765"/>
      <point x="1804" y="730"/>
      <point x="1585" y="708"/>
      <point x="1322" y="699"/>
      <point x="1155" y="699" type="qcurve" smooth="yes"/>
      <point x="876" y="699"/>
      <point x="546" y="710"/>
      <point x="372" y="775"/>
      <point x="320" y="914"/>
      <point x="320" y="1042" type="qcurve" smooth="yes"/>
      <point x="320" y="1160"/>
      <point x="369" y="1290"/>
      <point x="547" y="1352"/>
      <point x="892" y="1364"/>
      <point x="1187" y="1364" type="qcurve" smooth="yes"/>
      <point x="1511" y="1364"/>
      <point x="1871" y="1345"/>
      <point x="2042" y="1256"/>
      <point x="2077" y="1074"/>
      <point x="2077" y="910" type="qcurve" smooth="yes"/>
      <point x="2077" y="687"/>
      <point x="1941" y="358"/>
      <point x="1680" y="142"/>
      <point x="1300" y="36"/>
      <point x="1057" y="36" type="qcurve" smooth="yes"/>
      <point x="984" y="36"/>
      <point x="846" y="39"/>
      <point x="732" y="45"/>
      <point x="650" y="54"/>
      <point x="633" y="59" type="qcurve"/>
      <point x="658" y="18" type="line"/>
      <point x="693" y="11"/>
      <point x="904" y="0"/>
      <point x="1057" y="0" type="qcurve" smooth="yes"/>
      <point x="1311" y="0"/>
      <point x="1706" y="111"/>
      <point x="1976" y="337"/>
      <point x="2117" y="679"/>
      <point x="2117" y="910" type="qcurve" smooth="yes"/>
      <point x="2117" y="1086"/>
      <point x="2073" y="1283"/>
      <point x="1888" y="1379"/>
      <point x="1516" y="1400"/>
    </contour>
  </outline>
</glyph>
<glyph name="colon" format="2">
  <advance width="724"/>
  <unicode hex="003A"/>
  <outline>
    <contour>
      <point x="315" y="22" type="line" smooth="yes"/>
      <point x="315" y="13"/>
      <point x="316" y="2"/>
      <point x="321" y="-3"/>
      <point x="332" y="-4"/>
      <point x="341" y="-4" type="qcurve" smooth="yes"/>
      <point x="383" y="-4" type="line" smooth="yes"/>
      <point x="392" y="-4"/>
      <point x="403" y="-3"/>
      <point x="408" y="2"/>
      <point x="409" y="13"/>
      <point x="409" y="22" type="qcurve" smooth="yes"/>
      <point x="409" y="64" type="line" smooth="yes"/>
      <point x="409" y="73"/>
      <point x="408" y="84"/>
      <point x="403" y="89"/>
      <point x="393" y="90"/>
      <point x="384" y="90" type="qcurve" smooth="yes"/>
      <point x="341" y="90" type="line" smooth="yes"/>
      <point x="332" y="90"/>
      <point x="321" y="89"/>
      <point x="316" y="84"/>
      <point x="315" y="73"/>
      <point x="315" y="64" type="qcurve" smooth="yes"/>
    </contour>
    <contour>
      <point x="315" y="936" type="line" smooth="yes"/>
      <point x="315" y="927"/>
      <point x="316" y="916"/>
      <point x="321" y="911"/>
      <point x="331" y="910"/>
      <point x="340" y="910" type="qcurve" smooth="yes"/>
      <point x="383" y="910" type="line" smooth="yes"/>
      <point x="392" y="910"/>
      <point x="403" y="911"/>
      <point x="408" y="916"/>
      <point x="409" y="927"/>
      <point x="409" y="936" type="qcurve" smooth="yes"/>
      <point x="409" y="978" type="line" smooth="yes"/>
      <point x="409" y="987"/>
      <point x="408" y="998"/>
      <point x="403" y="1003"/>
      <point x="392" y="1004"/>
      <point x="383" y="1004" type="qcurve" smooth="yes"/>
      <point x="341" y="1004" type="line" smooth="yes"/>
      <point x="332" y="1004"/>
      <point x="321" y="1003"/>
      <point x="316" y="998"/>
      <point x="315" y="987"/>
      <point x="315" y="978" type="qcurve" smooth="yes"/>
    </contour>
  </outline>
</glyph>
<glyph name="semicolon" format="2">
  <advance width="725"/>
  <unicode hex="003B"/>
  <outline>
    <contour>
      <point x="315" y="22" type="line"/>
      <point x="315" y="64" type="line" smooth="yes"/>
      <point x="315" y="73"/>
      <point x="316" y="84"/>
      <point x="321" y="89"/>
      <point x="332" y="90"/>
      <point x="341" y="90" type="qcurve" smooth="yes"/>
      <point x="384" y="90" type="line" smooth="yes"/>
      <point x="393" y="90"/>
      <point x="404" y="89"/>
      <point x="409" y="84"/>
      <point x="410" y="73"/>
      <point x="410" y="64" type="qcurve" smooth="yes"/>
      <point x="410" y="22" type="line" smooth="yes"/>
      <point x="410" y="13"/>
      <point x="409" y="2"/>
      <point x="404" y="-3"/>
      <point x="393" y="-4"/>
      <point x="384" y="-4" type="qcurve" smooth="yes"/>
      <point x="341" y="-4" type="line" smooth="yes"/>
      <point x="332" y="-4"/>
      <point x="321" y="-3"/>
      <point x="316" y="2"/>
      <point x="315" y="13"/>
      <point x="315" y="22" type="qcurve"/>
    </contour>
    <contour>
      <point x="315" y="936" type="line"/>
      <point x="315" y="978" type="line" smooth="yes"/>
      <point x="315" y="987"/>
      <point x="316" y="998"/>
      <point x="321" y="1003"/>
      <point x="332" y="1004"/>
      <point x="341" y="1004" type="qcurve" smooth="yes"/>
      <point x="384" y="1004" type="line" smooth="yes"/>
      <point x="393" y="1004"/>
      <point x="404" y="1003"/>
      <point x="409" y="998"/>
      <point x="410" y="987"/>
      <point x="410" y="978" type="qcurve" smooth="yes"/>
      <point x="410" y="936" type="line" smooth="yes"/>
      <point x="410" y="927"/>
      <point x="409" y="916"/>
      <point x="404" y="911"/>
      <point x="393" y="910"/>
      <point x="384" y="910" type="qcurve" smooth="yes"/>
      <point x="340" y="910" type="line" smooth="yes"/>
      <point x="331" y="910"/>
      <point x="321" y="911"/>
      <point x="316" y="916"/>
      <point x="315" y="927"/>
      <point x="315" y="936" type="qcurve"/>
    </contour>
    <contour>
      <point x="336" y="-108" type="line"/>
      <point x="355" y="-2" type="line"/>
      <point x="408" y="2" type="line"/>
      <point x="360" y="-114" type="line"/>
      <point x="336" y="-108" type="line"/>
    </contour>
  </outline>
</glyph>
<glyph name="less" format="2">
  <advance width="2020"/>
  <unicode hex="003C"/>
  <outline>
    <contour>
      <point x="1793" y="0" type="line"/>
      <point x="1793" y="40" type="line"/>
      <point x="285" y="585" type="line"/>
      <point x="1793" y="1129" type="line"/>
      <point x="1793" y="1168" type="line"/>
      <point x="227" y="602" type="line"/>
      <point x="227" y="566" type="line"/>
    </contour>
  </outline>
</glyph>
<glyph name="equal" format="2">
  <advance width="2020"/>
  <unicode hex="003D"/>
  <outline>
    <contour>
      <point x="227" y="789" type="line"/>
      <point x="1793" y="789" type="line"/>
      <point x="1793" y="825" type="line"/>
      <point x="227" y="825" type="line"/>
    </contour>
    <contour>
      <point x="227" y="349" type="line"/>
      <point x="1793" y="349" type="line"/>
      <point x="1793" y="385" type="line"/>
      <point x="227" y="385" type="line"/>
    </contour>
  </outline>
</glyph>
<glyph name="question" format="2">
  <advance width="1825"/>
  <unicode hex="003F"/>
  <outline>
    <contour>
      <point x="805" y="330" type="line"/>
      <point x="845" y="330" type="line"/>
      <point x="845" y="435" type="line" smooth="yes"/>
      <point x="845" y="552.718"/>
      <point x="940.264" y="644.736"/>
      <point x="1061" y="647" type="qcurve" smooth="yes"/>
      <point x="1315" y="652" type="line" smooth="yes"/>
      <point x="1440.26" y="654.264"/>
      <point x="1545" y="802.393"/>
      <point x="1545" y="902" type="qcurve" smooth="yes"/>
      <point x="1545" y="1152" type="line" smooth="yes"/>
      <point x="1545" y="1286.32"/>
      <point x="1399.05" y="1400"/>
      <point x="1227" y="1400" type="qcurve" smooth="yes"/>
      <point x="493" y="1400" type="line" smooth="yes"/>
      <point x="322.46" y="1400"/>
      <point x="175" y="1284.81"/>
      <point x="175" y="1152" type="qcurve" smooth="yes"/>
      <point x="175" y="1032" type="line"/>
      <point x="215" y="1024" type="line"/>
      <point x="215" y="1152" type="line" smooth="yes"/>
      <point x="215" y="1268.96"/>
      <point x="341.325" y="1364"/>
      <point x="493" y="1364" type="qcurve" smooth="yes"/>
      <point x="1227" y="1364" type="line" smooth="yes"/>
      <point x="1382.45" y="1364"/>
      <point x="1505" y="1268.21"/>
      <point x="1505" y="1152" type="qcurve" smooth="yes"/>
      <point x="1505" y="902" type="line" smooth="yes"/>
      <point x="1505" y="809.939"/>
      <point x="1415.36" y="690.264"/>
      <point x="1315" y="688" type="qcurve" smooth="yes"/>
      <point x="1061" y="683" type="line" smooth="yes"/>
      <point x="920.644" y="679.982"/>
      <point x="805" y="566.3"/>
      <point x="805" y="435" type="qcurve" smooth="yes"/>
    </contour>
    <contour>
      <point x="778" y="22" type="line" smooth="yes"/>
      <point x="778" y="2.3804"/>
      <point x="784.38" y="-4"/>
      <point x="804" y="-4" type="qcurve" smooth="yes"/>
      <point x="846" y="-4" type="line" smooth="yes"/>
      <point x="865.5" y="-4"/>
      <point x="872" y="2.5"/>
      <point x="872" y="22" type="qcurve" smooth="yes"/>
      <point x="872" y="64" type="line" smooth="yes"/>
      <point x="872" y="83.6196"/>
      <point x="865.62" y="90"/>
      <point x="846" y="90" type="qcurve" smooth="yes"/>
      <point x="804" y="90" type="line" smooth="yes"/>
      <point x="784.5" y="90"/>
      <point x="778" y="83.5"/>
      <point x="778" y="64" type="qcurve" smooth="yes"/>
    </contour>
  </outline>
</glyph>
<glyph name="at" format="2">
  <advance width="2630" height="1020.84"/>
  <unicode hex="0040"/>
  <outline>
    <contour>
      <point x="334" y="82" type="line"/>
      <point x="334" y="957" type="line" smooth="yes"/>
      <point x="334" y="1022"/>
      <point x="370" y="1124"/>
      <point x="439" y="1193"/>
      <point x="540" y="1229"/>
      <point x="605" y="1229" type="qcurve" smooth="yes"/>
      <point x="2045" y="1229" type="line" smooth="yes"/>
      <point x="2110" y="1229"/>
      <point x="2211" y="1193"/>
      <point x="2280" y="1124"/>
      <point x="2316" y="1022"/>
      <point x="2316" y="957" type="qcurve" smooth="yes"/>
      <point x="2316" y="332" type="line" smooth="yes"/>
      <point x="2316" y="267"/>
      <point x="2282" y="175"/>
      <point x="2224" y="117"/>
      <point x="2147" y="90"/>
      <point x="2104" y="90" type="qcurve" smooth="yes"/>
      <point x="1968" y="90" type="line" smooth="yes"/>
      <point x="1927" y="90"/>
      <point x="1871" y="109"/>
      <point x="1834" y="140"/>
      <point x="1814" y="178"/>
      <point x="1809" y="197" type="qcurve"/>
      <point x="1803" y="191"/>
      <point x="1787" y="180"/>
      <point x="1766" y="172"/>
      <point x="1739" y="167"/>
      <point x="1722" y="167" type="qcurve" smooth="yes"/>
      <point x="918" y="167" type="line" smooth="yes"/>
      <point x="889" y="167"/>
      <point x="845" y="182"/>
      <point x="815" y="211"/>
      <point x="800" y="254"/>
      <point x="800" y="282" type="qcurve" smooth="yes"/>
      <point x="800" y="752" type="line" smooth="yes"/>
      <point x="800" y="781"/>
      <point x="815" y="824"/>
      <point x="845" y="853"/>
      <point x="889" y="868"/>
      <point x="918" y="868" type="qcurve" smooth="yes"/>
      <point x="1753" y="868" type="line" smooth="yes"/>
      <point x="1774" y="868"/>
      <point x="1798" y="860"/>
      <point x="1803" y="853" type="qcurve"/>
      <point x="1803" y="868" type="line"/>
      <point x="1839" y="868" type="line"/>
      <point x="1839" y="255" type="line" smooth="yes"/>
      <point x="1839" y="236"/>
      <point x="1845" y="190"/>
      <point x="1870" y="149"/>
      <point x="1922" y="122"/>
      <point x="1968" y="122" type="qcurve" smooth="yes"/>
      <point x="2104" y="122" type="line" smooth="yes"/>
      <point x="2140" y="122"/>
      <point x="2204" y="143"/>
      <point x="2252" y="193"/>
      <point x="2280" y="273"/>
      <point x="2280" y="332" type="qcurve" smooth="yes"/>
      <point x="2280" y="957" type="line" smooth="yes"/>
      <point x="2280" y="1016"/>
      <point x="2250" y="1106"/>
      <point x="2191" y="1166"/>
      <point x="2103" y="1197"/>
      <point x="2045" y="1197" type="qcurve" smooth="yes"/>
      <point x="605" y="1197" type="line" smooth="yes"/>
      <point x="547" y="1197"/>
      <point x="459" y="1166"/>
      <point x="400" y="1106"/>
      <point x="370" y="1016"/>
      <point x="370" y="957" type="qcurve" smooth="yes"/>
      <point x="370" y="82" type="line" smooth="yes"/>
      <point x="370" y="22"/>
      <point x="400" y="-67"/>
      <point x="459" y="-127"/>
      <point x="547" y="-157"/>
      <point x="605" y="-157" type="qcurve" smooth="yes"/>
      <point x="2169" y="-157" type="line"/>
      <point x="2169" y="-189" type="line"/>
      <point x="605" y="-189" type="line" smooth="yes"/>
      <point x="540" y="-189"/>
      <point x="439" y="-153"/>
      <point x="370" y="-84"/>
      <point x="334" y="17"/>
      <point x="334" y="82" type="qcurve"/>
    </contour>
    <contour>
      <point x="836" y="288" type="line" smooth="yes"/>
      <point x="836" y="243"/>
      <point x="874" y="198"/>
      <point x="919" y="198" type="qcurve" smooth="yes"/>
      <point x="1720" y="198" type="line" smooth="yes"/>
      <point x="1765" y="198"/>
      <point x="1803" y="243"/>
      <point x="1803" y="288" type="qcurve" smooth="yes"/>
      <point x="1803" y="837" type="line"/>
      <point x="919" y="837" type="line" smooth="yes"/>
      <point x="874" y="837"/>
      <point x="836" y="791"/>
      <point x="836" y="746" type="qcurve" smooth="yes"/>
    </contour>
  </outline>
</glyph>
<glyph name="C" format="2">
  <advance width="2756"/>
  <unicode hex="0043"/>
  <anchor x="1368" y="1550" name="top"/>
  <anchor x="1368" y="-150" name="bottom"/>
  <outline>
    <contour>
      <point x="334" y="1100" type="qcurve" smooth="yes"/>
      <point x="334" y="300" type="line" smooth="yes"/>
      <point x="334" y="154"/>
      <point x="488" y="0"/>
      <point x="634" y="0" type="qcurve" smooth="yes"/>
      <point x="2142" y="0" type="line" smooth="yes"/>
      <point x="2288" y="0"/>
      <point x="2442" y="154"/>
      <point x="2442" y="300" type="qcurve" smooth="yes"/>
      <point x="2442" y="512" type="line"/>
      <point x="2402" y="520" type="line"/>
      <point x="2402" y="298" type="line" smooth="yes"/>
      <point x="2402" y="170"/>
      <point x="2268" y="36"/>
      <point x="2140" y="36" type="qcurve" smooth="yes"/>
      <point x="636" y="36" type="line" smooth="yes"/>
      <point x="508" y="36"/>
      <point x="374" y="170"/>
      <point x="374" y="298" type="qcurve" smooth="yes"/>
      <point x="374" y="1102" type="line" smooth="yes"/>
      <point x="374" y="1230"/>
      <point x="508" y="1364"/>
      <point x="636" y="1364" type="qcurve" smooth="yes"/>
      <point x="2140" y="1364" type="line" smooth="yes"/>
      <point x="2268" y="1364"/>
      <point x="2402" y="1230"/>
      <point x="2402" y="1102" type="qcurve" smooth="yes"/>
      <point x="2402" y="906" type="line"/>
      <point x="2442" y="914" type="line"/>
      <point x="2442" y="1100" type="line" smooth="yes"/>
      <point x="2442" y="1245"/>
      <point x="2287" y="1400"/>
      <point x="2142" y="1400" type="qcurve" smooth="yes"/>
      <point x="634" y="1400" type="line" smooth="yes"/>
      <point x="489" y="1400"/>
      <point x="334" y="1245"/>
    </contour>
  </outline>
</glyph>
<glyph name="J" format="2">
  <advance width="2035"/>
  <unicode hex="004A"/>
  <anchor x="1675" y="1550" name="top"/>
  <anchor x="771" y="-150" name="bottom"/>
  <outline>
    <contour>
      <point x="1693" y="1400" type="line"/>
      <point x="1653" y="1400" type="line"/>
      <point x="1653" y="298" type="line" smooth="yes"/>
      <point x="1653" y="170"/>
      <point x="1519" y="36"/>
      <point x="1390" y="36" type="qcurve" smooth="yes"/>
      <point x="477" y="36" type="line" smooth="yes"/>
      <point x="348" y="36"/>
      <point x="215" y="170"/>
      <point x="215" y="298" type="qcurve" smooth="yes"/>
      <point x="215" y="620" type="line"/>
      <point x="175" y="612" type="line"/>
      <point x="175" y="300" type="line" smooth="yes"/>
      <point x="175" y="155"/>
      <point x="330" y="0"/>
      <point x="475" y="0" type="qcurve" smooth="yes"/>
      <point x="1393" y="0" type="line" smooth="yes"/>
      <point x="1537" y="0"/>
      <point x="1693" y="155"/>
      <point x="1693" y="300" type="qcurve" smooth="yes"/>
    </contour>
  </outline>
</glyph>
<glyph name="M" format="2">
  <advance width="2958"/>
  <unicode hex="004D"/>
  <anchor x="1479" y="1550" name="top"/>
  <anchor x="1479" y="-150" name="bottom"/>
  <outline>
    <contour>
      <point x="350" y="0" type="line"/>
      <point x="388" y="0" type="line"/>
      <point x="388" y="1342" type="line"/>
      <point x="1476" y="370" type="line"/>
      <point x="2568" y="1344" type="line"/>
      <point x="2568" y="0" type="line"/>
      <point x="2608" y="0" type="line"/>
      <point x="2608" y="1400" type="line"/>
      <point x="2576" y="1400" type="line"/>
      <point x="1479" y="421" type="line"/>
      <point x="383" y="1400" type="line"/>
      <point x="350" y="1400" type="line"/>
    </contour>
  </outline>
</glyph>
<glyph name="P" format="2">
  <advance width="2552"/>
  <unicode hex="0050"/>
  <outline>
    <contour>
      <point x="350" y="0" type="line"/>
      <point x="390" y="0" type="line"/>
      <point x="390" y="624" type="line"/>
      <point x="2098" y="624" type="line" smooth="yes"/>
      <point x="2170.38" y="624"/>
      <point x="2282.22" y="663.469"/>
      <point x="2358.53" y="739.781"/>
      <point x="2398" y="851.625"/>
      <point x="2398" y="924" type="qcurve" smooth="yes"/>
      <point x="2398" y="1100" type="line" smooth="yes"/>
      <point x="2398" y="1244.75"/>
      <point x="2242.75" y="1400"/>
      <point x="2098" y="1400" type="qcurve" smooth="yes"/>
      <point x="350" y="1400" type="line"/>
    </contour>
    <contour>
      <point x="390" y="660" type="line"/>
      <point x="390" y="1364" type="line"/>
      <point x="2096" y="1364" type="line" smooth="yes"/>
      <point x="2224.28" y="1364"/>
      <point x="2358" y="1230.28"/>
      <point x="2358" y="1102" type="qcurve" smooth="yes"/>
      <point x="2358" y="922" type="line" smooth="yes"/>
      <point x="2358" y="793.718"/>
      <point x="2224.28" y="660"/>
      <point x="2096" y="660" type="qcurve" smooth="yes"/>
    </contour>
  </outline>
  <guideline angle="90" color="0.4,0.4,0.4,1" name="halfwidth" x="1276" y="0"/>
</glyph>
<glyph name="underscore" format="2">
  <advance width="925"/>
  <unicode hex="005F"/>
  <outline>
    <contour>
      <point x="-20" y="-172" type="line"/>
      <point x="945" y="-172" type="line"/>
      <point x="945" y="-136" type="line"/>
      <point x="-20" y="-136" type="line"/>
    </contour>
  </outline>
</glyph>
<glyph name="a" format="2">
  <advance width="1984"/>
  <unicode hex="0061"/>
  <anchor x="978" y="1150" name="top"/>
  <anchor x="1041" y="-150" name="bottom"/>
  <anchor x="1674" y="0" name="ogonek"/>
  <outline>
    <contour>
      <point x="446" y="0" type="qcurve" smooth="yes"/>
      <point x="1592" y="0" type="line" smooth="yes"/>
      <point x="1608.6" y="0"/>
      <point x="1630.45" y="12.4172"/>
      <point x="1638" y="26" type="qcurve"/>
      <point x="1638" y="0" type="line"/>
      <point x="1674" y="0" type="line"/>
      <point x="1674" y="838" type="line" smooth="yes"/>
      <point x="1674" y="917.233"/>
      <point x="1592.23" y="1000"/>
      <point x="1513" y="1000" type="qcurve" smooth="yes"/>
      <point x="458" y="1000" type="line" smooth="yes"/>
      <point x="378.767" y="1000"/>
      <point x="296" y="917.233"/>
      <point x="296" y="838" type="qcurve" smooth="yes"/>
      <point x="296" y="750" type="line"/>
      <point x="332" y="742" type="line"/>
      <point x="332" y="832" type="line" smooth="yes"/>
      <point x="332" y="898.405"/>
      <point x="390.841" y="968"/>
      <point x="458" y="968" type="qcurve" smooth="yes"/>
      <point x="1513" y="968" type="line" smooth="yes"/>
      <point x="1579.4" y="968"/>
      <point x="1638" y="898.405"/>
      <point x="1638" y="832" type="qcurve" smooth="yes"/>
      <point x="1638" y="592" type="line"/>
      <point x="446" y="592" type="line" smooth="yes"/>
      <point x="367.25" y="592"/>
      <point x="284" y="508.75"/>
      <point x="284" y="430" type="qcurve" smooth="yes"/>
      <point x="284" y="162" type="line" smooth="yes"/>
      <point x="284" y="82.767"/>
      <point x="366.767" y="0"/>
    </contour>
    <contour>
      <point x="320" y="168" type="qcurve" smooth="yes"/>
      <point x="320" y="424" type="line" smooth="yes"/>
      <point x="320" y="490.405"/>
      <point x="378.841" y="560"/>
      <point x="446" y="560" type="qcurve" smooth="yes"/>
      <point x="1638" y="560" type="line"/>
      <point x="1638" y="32" type="line"/>
      <point x="446" y="32" type="line" smooth="yes"/>
      <point x="378.841" y="32"/>
      <point x="320" y="101.595"/>
    </contour>
  </outline>
  <guideline angle="90" color="1,0,0,1" x="1638" y="0"/>
</glyph>
<glyph name="c" format="2">
  <advance width="1952.5"/>
  <unicode hex="0063"/>
  <anchor x="1011" y="1150" name="top"/>
  <anchor x="1011" y="-150" name="bottom"/>
  <outline>
    <contour>
      <point x="294" y="162" type="line"/>
      <point x="294" y="838" type="line" smooth="yes"/>
      <point x="294" y="877"/>
      <point x="315" y="938"/>
      <point x="356" y="979"/>
      <point x="417" y="1000"/>
      <point x="456" y="1000" type="qcurve" smooth="yes"/>
      <point x="1567" y="1000" type="line" smooth="yes"/>
      <point x="1606" y="1000"/>
      <point x="1667" y="979"/>
      <point x="1707" y="938"/>
      <point x="1728" y="877"/>
      <point x="1728" y="838" type="qcurve" smooth="yes"/>
      <point x="1728" y="730" type="line"/>
      <point x="1692" y="722" type="line"/>
      <point x="1692" y="832" type="line" smooth="yes"/>
      <point x="1692" y="898"/>
      <point x="1633" y="968"/>
      <point x="1567" y="968" type="qcurve" smooth="yes"/>
      <point x="456" y="968" type="line" smooth="yes"/>
      <point x="389" y="968"/>
      <point x="330" y="898"/>
      <point x="330" y="832" type="qcurve" smooth="yes"/>
      <point x="330" y="168" type="line" smooth="yes"/>
      <point x="330" y="102"/>
      <point x="389" y="32"/>
      <point x="456" y="32" type="qcurve" smooth="yes"/>
      <point x="1571" y="32" type="line" smooth="yes"/>
      <point x="1637" y="32"/>
      <point x="1696" y="102"/>
      <point x="1696" y="168" type="qcurve" smooth="yes"/>
      <point x="1696" y="300" type="line"/>
      <point x="1732" y="290" type="line"/>
      <point x="1732" y="162" type="line" smooth="yes"/>
      <point x="1732" y="123"/>
      <point x="1711" y="62"/>
      <point x="1671" y="21"/>
      <point x="1610" y="0"/>
      <point x="1571" y="0" type="qcurve" smooth="yes"/>
      <point x="456" y="0" type="line" smooth="yes"/>
      <point x="417" y="0"/>
      <point x="356" y="21"/>
      <point x="315" y="62"/>
      <point x="294" y="123"/>
      <point x="294" y="162" type="qcurve"/>
    </contour>
  </outline>
</glyph>
<glyph name="g" format="2">
  <advance width="2067"/>
  <unicode hex="0067"/>
  <anchor x="1045" y="1150" name="top"/>
  <anchor x="1034" y="-578" name="bottom"/>
  <outline>
    <contour>
      <point x="322" y="164" type="qcurve" smooth="yes"/>
      <point x="322" y="836" type="line" smooth="yes"/>
      <point x="322" y="902"/>
      <point x="381" y="972"/>
      <point x="448" y="972" type="qcurve" smooth="yes"/>
      <point x="1717" y="972" type="line"/>
      <point x="1717" y="28" type="line"/>
      <point x="448" y="28" type="line" smooth="yes"/>
      <point x="381" y="28"/>
      <point x="322" y="97"/>
    </contour>
    <contour>
      <point x="325" y="-428" type="line"/>
      <point x="1592" y="-428" type="line" smooth="yes"/>
      <point x="1631" y="-428"/>
      <point x="1692" y="-407"/>
      <point x="1732" y="-366"/>
      <point x="1753" y="-305"/>
      <point x="1753" y="-266" type="qcurve" smooth="yes"/>
      <point x="1753" y="1000" type="line"/>
      <point x="1717" y="1000" type="line"/>
      <point x="1717" y="988" type="line"/>
      <point x="1709" y="996"/>
      <point x="1681" y="1004"/>
      <point x="1655" y="1004" type="qcurve" smooth="yes"/>
      <point x="448" y="1004" type="line" smooth="yes"/>
      <point x="369" y="1004"/>
      <point x="286" y="921"/>
      <point x="286" y="842" type="qcurve" smooth="yes"/>
      <point x="286" y="157" type="line" smooth="yes"/>
      <point x="286" y="78"/>
      <point x="369" y="-4"/>
      <point x="448" y="-4" type="qcurve" smooth="yes"/>
      <point x="1657" y="-4" type="line" smooth="yes"/>
      <point x="1683" y="-4"/>
      <point x="1711" y="4"/>
      <point x="1717" y="12" type="qcurve"/>
      <point x="1717" y="-260" type="line" smooth="yes"/>
      <point x="1717" y="-326"/>
      <point x="1651" y="-396"/>
      <point x="1592" y="-396" type="qcurve" smooth="yes"/>
      <point x="315" y="-396" type="line"/>
    </contour>
  </outline>
</glyph>
<glyph name="i" format="2">
  <advance width="728"/>
  <unicode hex="0069"/>
  <anchor x="364" y="-150" name="bottom"/>
  <anchor x="364" y="1150" name="top"/>
  <anchor x="346" y="0" name="ogonek"/>
  <outline>
    <contour>
      <point x="346" y="0" type="line"/>
      <point x="382" y="0" type="line"/>
      <point x="382" y="1000" type="line"/>
      <point x="346" y="1000" type="line"/>
    </contour>
    <contour>
      <point x="326" y="1260" type="line" smooth="yes"/>
      <point x="326" y="1242"/>
      <point x="332" y="1236"/>
      <point x="350" y="1236" type="qcurve" smooth="yes"/>
      <point x="378" y="1236" type="line" smooth="yes"/>
      <point x="396" y="1236"/>
      <point x="402" y="1242"/>
      <point x="402" y="1260" type="qcurve" smooth="yes"/>
      <point x="402" y="1288" type="line" smooth="yes"/>
      <point x="402" y="1306"/>
      <point x="396" y="1312"/>
      <point x="378" y="1312" type="qcurve" smooth="yes"/>
      <point x="350" y="1312" type="line" smooth="yes"/>
      <point x="332" y="1312"/>
      <point x="326" y="1306"/>
      <point x="326" y="1288" type="qcurve" smooth="yes"/>
    </contour>
  </outline>
</glyph>
<glyph name="j" format="2">
  <advance width="688"/>
  <unicode hex="006A"/>
  <anchor x="362" y="1150" name="top"/>
  <outline>
    <contour>
      <point x="-154" y="-396" type="line"/>
      <point x="-144" y="-428" type="line"/>
      <point x="220" y="-428" type="line" smooth="yes"/>
      <point x="259" y="-428"/>
      <point x="320" y="-407"/>
      <point x="361" y="-366"/>
      <point x="382" y="-305"/>
      <point x="382" y="-266" type="qcurve" smooth="yes"/>
      <point x="382" y="1000" type="line"/>
      <point x="346" y="1000" type="line"/>
      <point x="346" y="-260" type="line" smooth="yes"/>
      <point x="346" y="-326"/>
      <point x="287" y="-396"/>
      <point x="220" y="-396" type="qcurve" smooth="yes"/>
    </contour>
    <contour>
      <point x="326" y="1260" type="line" smooth="yes"/>
      <point x="326" y="1242"/>
      <point x="332" y="1236"/>
      <point x="350" y="1236" type="qcurve" smooth="yes"/>
      <point x="378" y="1236" type="line" smooth="yes"/>
      <point x="396" y="1236"/>
      <point x="402" y="1242"/>
      <point x="402" y="1260" type="qcurve" smooth="yes"/>
      <point x="402" y="1288" type="line" smooth="yes"/>
      <point x="402" y="1306"/>
      <point x="396" y="1312"/>
      <point x="378" y="1312" type="qcurve" smooth="yes"/>
      <point x="350" y="1312" type="line" smooth="yes"/>
      <point x="332" y="1312"/>
      <point x="326" y="1306"/>
      <point x="326" y="1288" type="qcurve" smooth="yes"/>
    </contour>
  </outline>
  <guideline angle="90" x="346" y="0"/>
  <guideline angle="90" x="382" y="0"/>
</glyph>
<glyph name="u" format="2">
  <advance width="2023"/>
  <unicode hex="0075"/>
  <anchor x="1012" y="1150" name="top"/>
  <anchor x="1012" y="-150" name="bottom"/>
  <anchor x="1030" y="0" name="ogonek"/>
  <anchor x="1713" y="1000" name="horn"/>
  <outline>
    <contour>
      <point x="310" y="162" type="line" smooth="yes"/>
      <point x="310" y="83"/>
      <point x="393" y="0"/>
      <point x="472" y="0" type="qcurve" smooth="yes"/>
      <point x="1551" y="0" type="line" smooth="yes"/>
      <point x="1630" y="0"/>
      <point x="1713" y="83"/>
      <point x="1713" y="162" type="qcurve" smooth="yes"/>
      <point x="1713" y="1000" type="line"/>
      <point x="1677" y="1000" type="line"/>
      <point x="1677" y="168" type="line" smooth="yes"/>
      <point x="1677" y="102"/>
      <point x="1617" y="32"/>
      <point x="1551" y="32" type="qcurve" smooth="yes"/>
      <point x="472" y="32" type="line" smooth="yes"/>
      <point x="406" y="32"/>
      <point x="346" y="102"/>
      <point x="346" y="168" type="qcurve" smooth="yes"/>
      <point x="346" y="1000" type="line"/>
      <point x="310" y="1000" type="line"/>
    </contour>
  </outline>
</glyph>
<glyph name="z" format="2">
  <advance width="1772"/>
  <unicode hex="007A"/>
  <anchor x="886" y="1150" name="top"/>
  <anchor x="886" y="-150" name="bottom"/>
  <outline>
    <contour>
      <point x="147" y="0" type="line"/>
      <point x="1625" y="0" type="line"/>
      <point x="1625" y="32" type="line"/>
      <point x="204" y="32" type="line"/>
      <point x="206" y="25" type="line"/>
      <point x="1619" y="972" type="line"/>
      <point x="1619" y="1000" type="line"/>
      <point x="207" y="1000" type="line"/>
      <point x="207" y="968" type="line"/>
      <point x="1562" y="968" type="line"/>
      <point x="1560" y="975" type="line"/>
      <point x="147" y="28" type="line"/>
    </contour>
  </outline>
</glyph>
<glyph name="braceright" format="2">
  <advance width="930"/>
  <unicode hex="007D"/>
  <outline>
    <contour>
      <point x="705" y="1174" type="line" smooth="yes"/>
      <point x="705" y="1302"/>
      <point x="543" y="1448"/>
      <point x="407" y="1448" type="qcurve" smooth="yes"/>
      <point x="161" y="1448" type="line"/>
      <point x="161" y="1416" type="line"/>
      <point x="407" y="1416" type="line" smooth="yes"/>
      <point x="525" y="1416"/>
      <point x="669" y="1285"/>
      <point x="669" y="1172" type="qcurve" smooth="yes"/>
      <point x="669" y="875" type="line" smooth="yes"/>
      <point x="669" y="763"/>
      <point x="785" y="622"/>
      <point x="889" y="595" type="qcurve"/>
      <point x="785" y="568"/>
      <point x="669" y="427"/>
      <point x="669" y="315" type="qcurve" smooth="yes"/>
      <point x="669" y="28" type="line" smooth="yes"/>
      <point x="669" y="-94"/>
      <point x="532" y="-224"/>
      <point x="407" y="-224" type="qcurve" smooth="yes"/>
      <point x="161" y="-224" type="line"/>
      <point x="161" y="-256" type="line"/>
      <point x="407" y="-256" type="line" smooth="yes"/>
      <point x="543" y="-256"/>
      <point x="705" y="-108"/>
      <point x="705" y="28" type="qcurve" smooth="yes"/>
      <point x="705" y="315" type="line" smooth="yes"/>
      <point x="705" y="396"/>
      <point x="810" y="556"/>
      <point x="925" y="579" type="qcurve"/>
      <point x="925" y="611" type="line"/>
      <point x="810" y="640"/>
      <point x="705" y="793"/>
      <point x="705" y="875" type="qcurve" smooth="yes"/>
    </contour>
  </outline>
</glyph>
<glyph name="asciitilde" format="2">
  <advance width="2020"/>
  <unicode hex="007E"/>
  <outline>
    <contour>
      <point x="227" y="384" type="qcurve"/>
      <point x="262" y="378" type="line"/>
      <point x="298" y="486"/>
      <point x="381" y="634"/>
      <point x="477" y="727"/>
      <point x="588" y="768"/>
      <point x="652" y="768" type="qcurve" smooth="yes"/>
      <point x="767" y="768"/>
      <point x="927" y="644"/>
      <point x="1077" y="495"/>
      <point x="1245" y="371"/>
      <point x="1368" y="371" type="qcurve" smooth="yes"/>
      <point x="1439" y="371"/>
      <point x="1561" y="416"/>
      <point x="1667" y="517"/>
      <point x="1756" y="677"/>
      <point x="1793" y="791" type="qcurve"/>
      <point x="1758" y="797" type="line"/>
      <point x="1722" y="689"/>
      <point x="1640" y="541"/>
      <point x="1544" y="448"/>
      <point x="1433" y="407"/>
      <point x="1368" y="407" type="qcurve" smooth="yes"/>
      <point x="1253" y="407"/>
      <point x="1093" y="531"/>
      <point x="943" y="680"/>
      <point x="775" y="804"/>
      <point x="652" y="804" type="qcurve" smooth="yes"/>
      <point x="582" y="804"/>
      <point x="459" y="759"/>
      <point x="353" y="659"/>
      <point x="264" y="499"/>
    </contour>
  </outline>
</glyph>
<glyph name="exclamdown" format="2">
  <advance width="724"/>
  <unicode hex="00A1"/>
  <outline>
    <contour>
      <point x="409" y="974" type="line" smooth="yes"/>
      <point x="409" y="994"/>
      <point x="403" y="1000"/>
      <point x="383" y="1000" type="qcurve" smooth="yes"/>
      <point x="341" y="1000" type="line" smooth="yes"/>
      <point x="322" y="1000"/>
      <point x="315" y="994"/>
      <point x="315" y="974" type="qcurve" smooth="yes"/>
      <point x="315" y="932" type="line" smooth="yes"/>
      <point x="315" y="912"/>
      <point x="321" y="906"/>
      <point x="341" y="906" type="qcurve" smooth="yes"/>
      <point x="383" y="906" type="line" smooth="yes"/>
      <point x="403" y="906"/>
      <point x="409" y="913"/>
      <point x="409" y="932" type="qcurve" smooth="yes"/>
    </contour>
    <contour>
      <point x="380" y="666" type="line"/>
      <point x="344" y="666" type="line"/>
      <point x="342" y="-404" type="line"/>
      <point x="382" y="-404" type="line"/>
    </contour>
  </outline>
</glyph>
<glyph name="currency" format="2">
  <advance width="2436"/>
  <unicode hex="00A4"/>
  <outline>
    <contour>
      <point x="207" y="52" type="line"/>
      <point x="483" y="229" type="line"/>
      <point x="503.374" y="214.663"/>
      <point x="555.798" y="200"/>
      <point x="589" y="200" type="qcurve" smooth="yes"/>
      <point x="1848" y="200" type="line" smooth="yes"/>
      <point x="1881.2" y="200"/>
      <point x="1933.38" y="214.663"/>
      <point x="1953" y="229" type="qcurve"/>
      <point x="2229" y="52" type="line"/>
      <point x="2250" y="80" type="line"/>
      <point x="1978" y="254" type="line"/>
      <point x="1993.85" y="273.62"/>
      <point x="2009" y="328.043"/>
      <point x="2009" y="362" type="qcurve" smooth="yes"/>
      <point x="2009" y="1038" type="line" smooth="yes"/>
      <point x="2009" y="1071.96"/>
      <point x="1993.85" y="1126.38"/>
      <point x="1978" y="1146" type="qcurve"/>
      <point x="2250" y="1320" type="line"/>
      <point x="2229" y="1348" type="line"/>
      <point x="1953" y="1171" type="line"/>
      <point x="1933.38" y="1185.34"/>
      <point x="1881.2" y="1200"/>
      <point x="1848" y="1200" type="qcurve" smooth="yes"/>
      <point x="589" y="1200" type="line" smooth="yes"/>
      <point x="555.798" y="1200"/>
      <point x="503.374" y="1185.34"/>
      <point x="483" y="1171" type="qcurve"/>
      <point x="207" y="1348" type="line"/>
      <point x="186" y="1320" type="line"/>
      <point x="458" y="1146" type="line"/>
      <point x="442.908" y="1126.38"/>
      <point x="427" y="1071.96"/>
      <point x="427" y="1038" type="qcurve" smooth="yes"/>
      <point x="427" y="362" type="line" smooth="yes"/>
      <point x="427" y="328.043"/>
      <point x="442.908" y="273.62"/>
      <point x="458" y="254" type="qcurve"/>
      <point x="186" y="80" type="line"/>
    </contour>
    <contour>
      <point x="589" y="232" type="line" smooth="yes"/>
      <point x="521.841" y="232"/>
      <point x="463" y="301.595"/>
      <point x="463" y="368" type="qcurve" smooth="yes"/>
      <point x="463" y="1032" type="line" smooth="yes"/>
      <point x="463" y="1098.4"/>
      <point x="521.841" y="1168"/>
      <point x="589" y="1168" type="qcurve" smooth="yes"/>
      <point x="1848" y="1168" type="line" smooth="yes"/>
      <point x="1914.4" y="1168"/>
      <point x="1973" y="1098.4"/>
      <point x="1973" y="1032" type="qcurve" smooth="yes"/>
      <point x="1973" y="368" type="line" smooth="yes"/>
      <point x="1973" y="301.595"/>
      <point x="1914.4" y="232"/>
      <point x="1848" y="232" type="qcurve" smooth="yes"/>
    </contour>
  </outline>
</glyph>
<glyph name="dieresis" format="2">
  <advance width="532"/>
  <unicode hex="00A8"/>
  <outline>
    <contour>
      <point x="31" y="1239" type="qcurve" smooth="yes"/>
      <point x="49" y="1239" type="line" smooth="yes"/>
      <point x="68" y="1239"/>
      <point x="75" y="1246"/>
      <point x="75" y="1265" type="qcurve" smooth="yes"/>
      <point x="75" y="1283" type="line" smooth="yes"/>
      <point x="75" y="1302"/>
      <point x="68" y="1309"/>
      <point x="50" y="1309" type="qcurve" smooth="yes"/>
      <point x="31" y="1309" type="line" smooth="yes"/>
      <point x="12" y="1309"/>
      <point x="5" y="1302"/>
      <point x="5" y="1283" type="qcurve" smooth="yes"/>
      <point x="5" y="1265" type="line" smooth="yes"/>
      <point x="5" y="1246"/>
      <point x="12" y="1239"/>
    </contour>
    <contour>
      <point x="483" y="1239" type="qcurve" smooth="yes"/>
      <point x="501" y="1239" type="line" smooth="yes"/>
      <point x="520" y="1239"/>
      <point x="527" y="1246"/>
      <point x="527" y="1265" type="qcurve" smooth="yes"/>
      <point x="527" y="1283" type="line" smooth="yes"/>
      <point x="527" y="1302"/>
      <point x="520" y="1309"/>
      <point x="502" y="1309" type="qcurve" smooth="yes"/>
      <point x="483" y="1309" type="line" smooth="yes"/>
      <point x="464" y="1309"/>
      <point x="457" y="1302"/>
      <point x="457" y="1283" type="qcurve" smooth="yes"/>
      <point x="457" y="1265" type="line" smooth="yes"/>
      <point x="457" y="1246"/>
      <point x="464" y="1239"/>
    </contour>
  </outline>
</glyph>
<glyph name="copyright" format="2">
  <advance width="2649"/>
  <unicode hex="00A9"/>
  <outline>
    <contour>
      <point x="709" y="512" type="line" smooth="yes"/>
      <point x="709" y="432.767"/>
      <point x="791.767" y="350"/>
      <point x="871" y="350" type="qcurve" smooth="yes"/>
      <point x="1685" y="350" type="line" smooth="yes"/>
      <point x="1764.23" y="350"/>
      <point x="1847" y="432.767"/>
      <point x="1847" y="512" type="qcurve" smooth="yes"/>
      <point x="1847" y="570" type="line"/>
      <point x="1811" y="580" type="line"/>
      <point x="1811" y="518" type="line" smooth="yes"/>
      <point x="1811" y="451.595"/>
      <point x="1752.16" y="382"/>
      <point x="1685" y="382" type="qcurve" smooth="yes"/>
      <point x="871" y="382" type="line" smooth="yes"/>
      <point x="803.841" y="382"/>
      <point x="745" y="451.841"/>
      <point x="745" y="519" type="qcurve" smooth="yes"/>
      <point x="745" y="881" type="line" smooth="yes"/>
      <point x="745" y="948.159"/>
      <point x="803.841" y="1018"/>
      <point x="871" y="1018" type="qcurve" smooth="yes"/>
      <point x="1681" y="1018" type="line" smooth="yes"/>
      <point x="1748.16" y="1018"/>
      <point x="1807" y="948.159"/>
      <point x="1807" y="881" type="qcurve" smooth="yes"/>
      <point x="1807" y="832" type="line"/>
      <point x="1843" y="840" type="line"/>
      <point x="1843" y="888" type="line" smooth="yes"/>
      <point x="1843" y="967.233"/>
      <point x="1760.23" y="1050"/>
      <point x="1681" y="1050" type="qcurve" smooth="yes"/>
      <point x="871" y="1050" type="line" smooth="yes"/>
      <point x="791.767" y="1050"/>
      <point x="709" y="967.233"/>
      <point x="709" y="888" type="qcurve" smooth="yes"/>
    </contour>
    <contour>
      <point x="334" y="1060" type="qcurve" smooth="yes"/>
      <point x="334" y="340" type="line" smooth="yes"/>
      <point x="334" y="195.25"/>
      <point x="489.25" y="40"/>
      <point x="634" y="40" type="qcurve" smooth="yes"/>
      <point x="1982" y="40" type="line" smooth="yes"/>
      <point x="2127.64" y="40"/>
      <point x="2282" y="194.362"/>
      <point x="2282" y="340" type="qcurve" smooth="yes"/>
      <point x="2282" y="1060" type="line" smooth="yes"/>
      <point x="2282" y="1204.75"/>
      <point x="2126.75" y="1360"/>
      <point x="1982" y="1360" type="qcurve" smooth="yes"/>
      <point x="634" y="1360" type="line" smooth="yes"/>
      <point x="489.25" y="1360"/>
      <point x="334" y="1204.75"/>
    </contour>
    <contour>
      <point x="370" y="1062" type="line" smooth="yes"/>
      <point x="370" y="1190.28"/>
      <point x="507.718" y="1328"/>
      <point x="636" y="1328" type="qcurve" smooth="yes"/>
      <point x="1980" y="1328" type="line" smooth="yes"/>
      <point x="2108.28" y="1328"/>
      <point x="2246" y="1190.28"/>
      <point x="2246" y="1062" type="qcurve" smooth="yes"/>
      <point x="2246" y="338" type="line" smooth="yes"/>
      <point x="2246" y="209.718"/>
      <point x="2108.28" y="72"/>
      <point x="1980" y="72" type="qcurve" smooth="yes"/>
      <point x="636" y="72" type="line" smooth="yes"/>
      <point x="507.718" y="72"/>
      <point x="370" y="209.718"/>
      <point x="370" y="338" type="qcurve" smooth="yes"/>
    </contour>
  </outline>
</glyph>
<glyph name="ordfeminine" format="2">
  <advance width="1363"/>
  <unicode hex="00AA"/>
  <outline>
    <contour>
      <point x="318" y="792" type="qcurve" smooth="yes"/>
      <point x="1049" y="792" type="line" smooth="yes"/>
      <point x="1065" y="792"/>
      <point x="1087" y="804"/>
      <point x="1093" y="817" type="qcurve"/>
      <point x="1093" y="793" type="line"/>
      <point x="1129" y="793" type="line"/>
      <point x="1129" y="1341" type="line" smooth="yes"/>
      <point x="1129" y="1395"/>
      <point x="1072" y="1448"/>
      <point x="1018" y="1448" type="qcurve" smooth="yes"/>
      <point x="326" y="1448" type="line" smooth="yes"/>
      <point x="272" y="1448"/>
      <point x="215" y="1395"/>
      <point x="215" y="1341" type="qcurve" smooth="yes"/>
      <point x="215" y="1284" type="line"/>
      <point x="251" y="1277" type="line"/>
      <point x="251" y="1335" type="line" smooth="yes"/>
      <point x="251" y="1374"/>
      <point x="286" y="1416"/>
      <point x="326" y="1416" type="qcurve" smooth="yes"/>
      <point x="1018" y="1416" type="line" smooth="yes"/>
      <point x="1057" y="1416"/>
      <point x="1093" y="1374"/>
      <point x="1093" y="1335" type="qcurve" smooth="yes"/>
      <point x="1093" y="1181" type="line"/>
      <point x="320" y="1181" type="line" smooth="yes"/>
      <point x="266" y="1181"/>
      <point x="207" y="1127"/>
      <point x="207" y="1073" type="qcurve" smooth="yes"/>
      <point x="207" y="901" type="line" smooth="yes"/>
      <point x="207" y="846"/>
      <point x="264" y="792"/>
    </contour>
    <contour>
      <point x="243" y="905" type="qcurve" smooth="yes"/>
      <point x="243" y="1068" type="line" smooth="yes"/>
      <point x="243" y="1108"/>
      <point x="278" y="1149"/>
      <point x="318" y="1149" type="qcurve" smooth="yes"/>
      <point x="1093" y="1149" type="line"/>
      <point x="1093" y="824" type="line"/>
      <point x="318" y="824" type="line" smooth="yes"/>
      <point x="278" y="824"/>
      <point x="243" y="865"/>
    </contour>
  </outline>
  <guideline angle="0" x="0" y="36"/>
  <guideline angle="0" x="0" y="36"/>
</glyph>
<glyph name="guillemotleft" format="2">
  <advance width="938"/>
  <unicode hex="00AB"/>
  <outline>
    <contour>
      <point x="482" y="130" type="line"/>
      <point x="524" y="130" type="line"/>
      <point x="172" y="500" type="line"/>
      <point x="524" y="870" type="line"/>
      <point x="482" y="870" type="line"/>
      <point x="130" y="500" type="line"/>
    </contour>
    <contour>
      <point x="768" y="130" type="line"/>
      <point x="810" y="130" type="line"/>
      <point x="458" y="500" type="line"/>
      <point x="810" y="870" type="line"/>
      <point x="768" y="870" type="line"/>
      <point x="416" y="500" type="line"/>
    </contour>
  </outline>
</glyph>
<glyph name="registered" format="2">
  <advance width="1190"/>
  <unicode hex="00AE"/>
  <outline>
    <contour>
      <point x="147" y="1035" type="line" smooth="yes"/>
      <point x="147" y="980"/>
      <point x="204" y="924"/>
      <point x="261" y="924" type="qcurve" smooth="yes"/>
      <point x="929" y="924" type="line" smooth="yes"/>
      <point x="986" y="924"/>
      <point x="1043" y="980"/>
      <point x="1043" y="1035" type="qcurve" smooth="yes"/>
      <point x="1043" y="1440" type="line" smooth="yes"/>
      <point x="1043" y="1494"/>
      <point x="986" y="1550"/>
      <point x="929" y="1550" type="qcurve" smooth="yes"/>
      <point x="261" y="1550" type="line" smooth="yes"/>
      <point x="204" y="1550"/>
      <point x="147" y="1494"/>
      <point x="147" y="1440" type="qcurve" smooth="yes"/>
    </contour>
    <contour>
      <point x="183" y="1437" type="line" smooth="yes"/>
      <point x="183" y="1477"/>
      <point x="221" y="1518"/>
      <point x="260" y="1518" type="qcurve" smooth="yes"/>
      <point x="929" y="1518" type="line" smooth="yes"/>
      <point x="969" y="1518"/>
      <point x="1007" y="1477"/>
      <point x="1007" y="1437" type="qcurve" smooth="yes"/>
      <point x="1007" y="1038" type="line" smooth="yes"/>
      <point x="1007" y="998"/>
      <point x="969" y="956"/>
      <point x="929" y="956" type="qcurve" smooth="yes"/>
      <point x="260" y="956" type="line" smooth="yes"/>
      <point x="221" y="956"/>
      <point x="183" y="998"/>
      <point x="183" y="1038" type="qcurve" smooth="yes"/>
    </contour>
    <contour>
      <point x="333" y="1400" type="line"/>
      <point x="333" y="1060" type="line"/>
      <point x="369" y="1060" type="line"/>
      <point x="369" y="1198" type="line"/>
      <point x="567" y="1198" type="line"/>
      <point x="805" y="1060" type="line"/>
      <point x="873" y="1060" type="line"/>
      <point x="631" y="1198" type="line"/>
      <point x="782" y="1198" type="line" smooth="yes"/>
      <point x="821" y="1198"/>
      <point x="861" y="1232"/>
      <point x="861" y="1265" type="qcurve" smooth="yes"/>
      <point x="861" y="1331" type="line" smooth="yes"/>
      <point x="861" y="1370"/>
      <point x="818" y="1400"/>
      <point x="782" y="1400" type="qcurve" smooth="yes"/>
    </contour>
    <contour>
      <point x="369" y="1230" type="line"/>
      <point x="369" y="1368" type="line"/>
      <point x="784" y="1368" type="line" smooth="yes"/>
      <point x="804" y="1368"/>
      <point x="825" y="1347"/>
      <point x="825" y="1327" type="qcurve" smooth="yes"/>
      <point x="825" y="1271" type="line" smooth="yes"/>
      <point x="825" y="1249"/>
      <point x="804" y="1230"/>
      <point x="784" y="1230" type="qcurve" smooth="yes"/>
    </contour>
  </outline>
</glyph>
<glyph name="macron" format="2">
  <advance width="975"/>
  <unicode hex="00AF"/>
  <outline>
    <contour>
      <point x="5" y="1254" type="line"/>
      <point x="970" y="1254" type="line"/>
      <point x="970" y="1286" type="line"/>
      <point x="5" y="1286" type="line"/>
    </contour>
  </outline>
</glyph>
<glyph name="degree" format="2">
  <advance width="745"/>
  <unicode hex="00B0"/>
  <outline>
    <contour>
      <point x="147" y="1283" type="line" smooth="yes"/>
      <point x="147" y="1228"/>
      <point x="204" y="1172"/>
      <point x="261" y="1172" type="qcurve" smooth="yes"/>
      <point x="484" y="1172" type="line" smooth="yes"/>
      <point x="541" y="1172"/>
      <point x="598" y="1228"/>
      <point x="598" y="1283" type="qcurve" smooth="yes"/>
      <point x="598" y="1398" type="line" smooth="yes"/>
      <point x="598" y="1452"/>
      <point x="541" y="1508"/>
      <point x="484" y="1508" type="qcurve" smooth="yes"/>
      <point x="261" y="1508" type="line" smooth="yes"/>
      <point x="204" y="1508"/>
      <point x="147" y="1452"/>
      <point x="147" y="1398" type="qcurve" smooth="yes"/>
    </contour>
    <contour>
      <point x="183" y="1286" type="qcurve" smooth="yes"/>
      <point x="183" y="1395" type="line" smooth="yes"/>
      <point x="183" y="1435"/>
      <point x="221" y="1476"/>
      <point x="260" y="1476" type="qcurve" smooth="yes"/>
      <point x="484" y="1476" type="line" smooth="yes"/>
      <point x="524" y="1476"/>
      <point x="562" y="1435"/>
      <point x="562" y="1395" type="qcurve" smooth="yes"/>
      <point x="562" y="1286" type="line" smooth="yes"/>
      <point x="562" y="1246"/>
      <point x="524" y="1204"/>
      <point x="484" y="1204" type="qcurve" smooth="yes"/>
      <point x="260" y="1204" type="line" smooth="yes"/>
      <point x="221" y="1204"/>
      <point x="183" y="1246"/>
    </contour>
  </outline>
</glyph>
<glyph name="plusminus" format="2">
  <advance width="2020"/>
  <unicode hex="00B1"/>
  <outline>
    <contour>
      <point x="990" y="248" type="line"/>
      <point x="1030" y="248" type="line"/>
      <point x="1030" y="690" type="line"/>
      <point x="1793" y="690" type="line"/>
      <point x="1793" y="726" type="line"/>
      <point x="1030" y="726" type="line"/>
      <point x="1030" y="1168" type="line"/>
      <point x="990" y="1168" type="line"/>
      <point x="990" y="726" type="line"/>
      <point x="227" y="726" type="line"/>
      <point x="227" y="690" type="line"/>
      <point x="990" y="690" type="line"/>
    </contour>
    <contour>
      <point x="227" y="0" type="line"/>
      <point x="1793" y="0" type="line"/>
      <point x="1793" y="36" type="line"/>
      <point x="227" y="36" type="line"/>
    </contour>
  </outline>
</glyph>
<glyph name="twosuperior" format="2">
  <advance width="1528"/>
  <unicode hex="00B2"/>
  <outline>
    <contour>
      <point x="280" y="950" type="line"/>
      <point x="1202" y="950" type="line" smooth="yes"/>
      <point x="1250" y="950"/>
      <point x="1304" y="998"/>
      <point x="1304" y="1042" type="qcurve" smooth="yes"/>
      <point x="1304" y="1080" type="line"/>
      <point x="1270" y="1088" type="line"/>
      <point x="1270" y="1038" type="line" smooth="yes"/>
      <point x="1270" y="1012"/>
      <point x="1234" y="980"/>
      <point x="1204" y="980" type="qcurve" smooth="yes"/>
      <point x="314" y="980" type="line"/>
      <point x="314" y="1058" type="line" smooth="yes"/>
      <point x="314" y="1112"/>
      <point x="369" y="1195"/>
      <point x="468" y="1220" type="qcurve" smooth="yes"/>
      <point x="1118" y="1382" type="line" smooth="yes"/>
      <point x="1215" y="1406"/>
      <point x="1292" y="1492"/>
      <point x="1292" y="1553" type="qcurve" smooth="yes"/>
      <point x="1292" y="1583" type="line" smooth="yes"/>
      <point x="1292" y="1655"/>
      <point x="1208" y="1735"/>
      <point x="1120" y="1735" type="qcurve" smooth="yes"/>
      <point x="467" y="1735" type="line" smooth="yes"/>
      <point x="379" y="1735"/>
      <point x="296" y="1652"/>
      <point x="296" y="1572" type="qcurve" smooth="yes"/>
      <point x="296" y="1515" type="line"/>
      <point x="330" y="1509" type="line"/>
      <point x="330" y="1577" type="line" smooth="yes"/>
      <point x="330" y="1640"/>
      <point x="395" y="1705"/>
      <point x="465" y="1705" type="qcurve" smooth="yes"/>
      <point x="1122" y="1705" type="line" smooth="yes"/>
      <point x="1193" y="1705"/>
      <point x="1258" y="1643"/>
      <point x="1258" y="1587" type="qcurve" smooth="yes"/>
      <point x="1258" y="1554" type="line" smooth="yes"/>
      <point x="1258" y="1502"/>
      <point x="1199" y="1433"/>
      <point x="1107" y="1410" type="qcurve" smooth="yes"/>
      <point x="461" y="1249" type="line" smooth="yes"/>
      <point x="349" y="1221"/>
      <point x="280" y="1123"/>
      <point x="280" y="1061" type="qcurve" smooth="yes"/>
    </contour>
  </outline>
</glyph>
<glyph name="uni00B5" format="2">
  <advance width="2055"/>
  <unicode hex="00B5"/>
  <outline>
    <contour>
      <point x="326" y="-428" type="line"/>
      <point x="362" y="-420" type="line"/>
      <point x="362" y="60" type="line"/>
      <point x="382.374" y="29.0614"/>
      <point x="454.123" y="0"/>
      <point x="516" y="0" type="qcurve" smooth="yes"/>
      <point x="1539" y="0" type="line" smooth="yes"/>
      <point x="1600.88" y="0"/>
      <point x="1672.63" y="29.0614"/>
      <point x="1693" y="60" type="qcurve"/>
      <point x="1693" y="0" type="line"/>
      <point x="1729" y="0" type="line"/>
      <point x="1729" y="1000" type="line"/>
      <point x="1693" y="1000" type="line"/>
      <point x="1693" y="160" type="line" smooth="yes"/>
      <point x="1693" y="95.1044"/>
      <point x="1617.67" y="32"/>
      <point x="1549" y="32" type="qcurve" smooth="yes"/>
      <point x="506" y="32" type="line" smooth="yes"/>
      <point x="437.331" y="32"/>
      <point x="362" y="95.1044"/>
      <point x="362" y="160" type="qcurve" smooth="yes"/>
      <point x="362" y="1000" type="line"/>
      <point x="326" y="1000" type="line"/>
    </contour>
  </outline>
</glyph>
<glyph name="periodcentered" format="2">
  <advance width="690"/>
  <unicode hex="00B7"/>
  <outline>
    <contour>
      <point x="315" y="589" type="line" smooth="yes"/>
      <point x="315" y="569"/>
      <point x="321" y="563"/>
      <point x="341" y="563" type="qcurve" smooth="yes"/>
      <point x="383" y="563" type="line" smooth="yes"/>
      <point x="403" y="563"/>
      <point x="409" y="570"/>
      <point x="409" y="589" type="qcurve" smooth="yes"/>
      <point x="409" y="631" type="line" smooth="yes"/>
      <point x="409" y="651"/>
      <point x="403" y="657"/>
      <point x="383" y="657" type="qcurve" smooth="yes"/>
      <point x="341" y="657" type="line" smooth="yes"/>
      <point x="322" y="657"/>
      <point x="315" y="651"/>
      <point x="315" y="631" type="qcurve" smooth="yes"/>
    </contour>
  </outline>
</glyph>
<glyph name="cedilla" format="2">
  <advance width="409"/>
  <unicode hex="00B8"/>
  <outline>
    <contour>
      <point x="197" y="0" type="line"/>
      <point x="118" y="-139" type="line"/>
      <point x="129.319" y="-137.491"/>
      <point x="154.908" y="-135"/>
      <point x="170" y="-135" type="qcurve" smooth="yes"/>
      <point x="271.116" y="-135"/>
      <point x="369" y="-185.896"/>
      <point x="369" y="-244" type="qcurve" smooth="yes"/>
      <point x="369" y="-304.368"/>
      <point x="259.761" y="-354"/>
      <point x="176" y="-354" type="qcurve" smooth="yes"/>
      <point x="129.969" y="-354"/>
      <point x="46.411" y="-335.583"/>
      <point x="20" y="-322" type="qcurve"/>
      <point x="5" y="-344" type="line"/>
      <point x="41.9754" y="-364.374"/>
      <point x="132.141" y="-384"/>
      <point x="191" y="-384" type="qcurve" smooth="yes"/>
      <point x="241.25" y="-384"/>
      <point x="320.375" y="-365.75"/>
      <point x="375.125" y="-329.75"/>
      <point x="404" y="-276.25"/>
      <point x="404" y="-241" type="qcurve" smooth="yes"/>
      <point x="404" y="-203.875"/>
      <point x="370.281" y="-152.094"/>
      <point x="308.969" y="-119.656"/>
      <point x="223.125" y="-105"/>
      <point x="171" y="-105" type="qcurve"/>
      <point x="232" y="0" type="line"/>
    </contour>
  </outline>
</glyph>
<glyph name="ordmasculine" format="2">
  <advance width="1423"/>
  <unicode hex="00BA"/>
  <outline>
    <contour>
      <point x="220" y="901" type="line" smooth="yes"/>
      <point x="220" y="847"/>
      <point x="276" y="792"/>
      <point x="332" y="792" type="qcurve" smooth="yes"/>
      <point x="1092" y="792" type="line" smooth="yes"/>
      <point x="1148" y="792"/>
      <point x="1203" y="847"/>
      <point x="1203" y="901" type="qcurve" smooth="yes"/>
      <point x="1203" y="1340" type="line" smooth="yes"/>
      <point x="1203" y="1394"/>
      <point x="1147" y="1448"/>
      <point x="1092" y="1448" type="qcurve" smooth="yes"/>
      <point x="332" y="1448" type="line" smooth="yes"/>
      <point x="276" y="1448"/>
      <point x="220" y="1394"/>
      <point x="220" y="1340" type="qcurve" smooth="yes"/>
    </contour>
    <contour>
      <point x="256" y="906" type="qcurve" smooth="yes"/>
      <point x="256" y="1335" type="line" smooth="yes"/>
      <point x="256" y="1375"/>
      <point x="292" y="1416"/>
      <point x="331" y="1416" type="qcurve" smooth="yes"/>
      <point x="1092" y="1416" type="line" smooth="yes"/>
      <point x="1132" y="1416"/>
      <point x="1167" y="1375"/>
      <point x="1167" y="1335" type="qcurve" smooth="yes"/>
      <point x="1167" y="906" type="line" smooth="yes"/>
      <point x="1167" y="866"/>
      <point x="1132" y="824"/>
      <point x="1092" y="824" type="qcurve" smooth="yes"/>
      <point x="331" y="824" type="line" smooth="yes"/>
      <point x="292" y="824"/>
      <point x="256" y="866"/>
    </contour>
  </outline>
</glyph>
<glyph name="guillemotright" format="2">
  <advance width="938"/>
  <unicode hex="00BB"/>
  <outline>
    <contour>
      <point x="456" y="870" type="line"/>
      <point x="414" y="870" type="line"/>
      <point x="766" y="500" type="line"/>
      <point x="414" y="130" type="line"/>
      <point x="456" y="130" type="line"/>
      <point x="808" y="500" type="line"/>
    </contour>
    <contour>
      <point x="170" y="870" type="line"/>
      <point x="128" y="870" type="line"/>
      <point x="480" y="500" type="line"/>
      <point x="128" y="130" type="line"/>
      <point x="170" y="130" type="line"/>
      <point x="522" y="500" type="line"/>
    </contour>
  </outline>
</glyph>
<glyph name="onequarter" format="2">
  <advance width="2464"/>
  <unicode hex="00BC"/>
  <outline>
    <contour>
      <point x="421" y="614" type="line"/>
      <point x="455" y="614" type="line"/>
      <point x="455" y="1406" type="line"/>
      <point x="196" y="1366" type="line"/>
      <point x="196" y="1336" type="line"/>
      <point x="421" y="1370" type="line"/>
    </contour>
    <contour>
      <point x="186" y="0" type="line"/>
      <point x="229" y="0" type="line"/>
      <point x="1629" y="1400" type="line"/>
      <point x="1586" y="1400" type="line"/>
    </contour>
    <contour>
      <point x="972" y="212" type="line"/>
      <point x="1939" y="212" type="line"/>
      <point x="1939" y="0" type="line"/>
      <point x="1973" y="0" type="line"/>
      <point x="1973" y="212" type="line"/>
      <point x="2282" y="212" type="line"/>
      <point x="2282" y="242" type="line"/>
      <point x="1973" y="242" type="line"/>
      <point x="1973" y="766" type="line"/>
      <point x="1941" y="766" type="line"/>
      <point x="972" y="237" type="line"/>
    </contour>
    <contour>
      <point x="1043" y="242" type="line"/>
      <point x="1939" y="731" type="line"/>
      <point x="1939" y="242" type="line"/>
    </contour>
  </outline>
  <guideline angle="90" color="0.4,0.4,0.4,1" name="halfwidth" x="1232" y="0"/>
</glyph>
<glyph name="onehalf" format="2">
  <advance width="2504"/>
  <unicode hex="00BD"/>
  <outline>
    <contour>
      <point x="433" y="614" type="line"/>
      <point x="467" y="614" type="line"/>
      <point x="467" y="1406" type="line"/>
      <point x="208" y="1366" type="line"/>
      <point x="208" y="1336" type="line"/>
      <point x="433" y="1370" type="line"/>
    </contour>
    <contour>
      <point x="1596" y="1400" type="line"/>
      <point x="196" y="0" type="line"/>
      <point x="239" y="0" type="line"/>
      <point x="1639" y="1400" type="line"/>
    </contour>
    <contour>
      <point x="1256" y="0" type="line"/>
      <point x="2178" y="0" type="line" smooth="yes"/>
      <point x="2226" y="0"/>
      <point x="2280" y="48"/>
      <point x="2280" y="92" type="qcurve" smooth="yes"/>
      <point x="2280" y="130" type="line"/>
      <point x="2246" y="138" type="line"/>
      <point x="2246" y="88" type="line" smooth="yes"/>
      <point x="2246" y="62"/>
      <point x="2210" y="30"/>
      <point x="2180" y="30" type="qcurve" smooth="yes"/>
      <point x="1290" y="30" type="line"/>
      <point x="1290" y="108" type="line" smooth="yes"/>
      <point x="1290" y="162"/>
      <point x="1345" y="245"/>
      <point x="1444" y="270" type="qcurve" smooth="yes"/>
      <point x="2094" y="432" type="line" smooth="yes"/>
      <point x="2191" y="456"/>
      <point x="2268" y="542"/>
      <point x="2268" y="603" type="qcurve" smooth="yes"/>
      <point x="2268" y="633" type="line" smooth="yes"/>
      <point x="2268" y="705"/>
      <point x="2184" y="785"/>
      <point x="2096" y="785" type="qcurve" smooth="yes"/>
      <point x="1443" y="785" type="line" smooth="yes"/>
      <point x="1355" y="785"/>
      <point x="1272" y="702"/>
      <point x="1272" y="622" type="qcurve" smooth="yes"/>
      <point x="1272" y="565" type="line"/>
      <point x="1306" y="559" type="line"/>
      <point x="1306" y="627" type="line" smooth="yes"/>
      <point x="1306" y="690"/>
      <point x="1371" y="755"/>
      <point x="1441" y="755" type="qcurve" smooth="yes"/>
      <point x="2098" y="755" type="line" smooth="yes"/>
      <point x="2169" y="755"/>
      <point x="2234" y="693"/>
      <point x="2234" y="637" type="qcurve" smooth="yes"/>
      <point x="2234" y="604" type="line" smooth="yes"/>
      <point x="2234" y="552"/>
      <point x="2175" y="483"/>
      <point x="2083" y="460" type="qcurve" smooth="yes"/>
      <point x="1437" y="299" type="line" smooth="yes"/>
      <point x="1325" y="271"/>
      <point x="1256" y="173"/>
      <point x="1256" y="111" type="qcurve" smooth="yes"/>
    </contour>
  </outline>
  <guideline angle="90" color="0.4,0.4,0.4,1" name="halfwidth" x="1252" y="0"/>
</glyph>
<glyph name="threequarters" format="2">
  <advance width="3050"/>
  <unicode hex="00BE"/>
  <outline>
    <contour>
      <point x="280" y="837" type="line"/>
      <point x="280" y="776" type="line" smooth="yes"/>
      <point x="280" y="694.503"/>
      <point x="364.221" y="614"/>
      <point x="451" y="614" type="qcurve" smooth="yes"/>
      <point x="1125" y="614" type="line" smooth="yes"/>
      <point x="1212.53" y="614"/>
      <point x="1297" y="696.749"/>
      <point x="1297" y="779" type="qcurve" smooth="yes"/>
      <point x="1297" y="885" type="line" smooth="yes"/>
      <point x="1297" y="942.35"/>
      <point x="1246.07" y="1000.93"/>
      <point x="1194" y="1013" type="qcurve"/>
      <point x="1242.29" y="1026.58"/>
      <point x="1288" y="1084.67"/>
      <point x="1288" y="1139" type="qcurve" smooth="yes"/>
      <point x="1288" y="1233" type="line" smooth="yes"/>
      <point x="1288" y="1314.5"/>
      <point x="1204.29" y="1398"/>
      <point x="1116" y="1398" type="qcurve" smooth="yes"/>
      <point x="457" y="1398" type="line" smooth="yes"/>
      <point x="413.125" y="1398"/>
      <point x="348.719" y="1377.19"/>
      <point x="306.531" y="1336.31"/>
      <point x="286" y="1275.75"/>
      <point x="286" y="1236" type="qcurve" smooth="yes"/>
      <point x="286" y="1162" type="line"/>
      <point x="320" y="1155" type="line"/>
      <point x="320" y="1240" type="line" smooth="yes"/>
      <point x="320" y="1303.39"/>
      <point x="385.068" y="1368"/>
      <point x="456" y="1368" type="qcurve" smooth="yes"/>
      <point x="1113" y="1368" type="line" smooth="yes"/>
      <point x="1185.44" y="1368"/>
      <point x="1254" y="1300.16"/>
      <point x="1254" y="1233" type="qcurve" smooth="yes"/>
      <point x="1254" y="1129" type="line" smooth="yes"/>
      <point x="1254" y="1073.91"/>
      <point x="1174.4" y="1027"/>
      <point x="1108" y="1027" type="qcurve" smooth="yes"/>
      <point x="659" y="1027" type="line"/>
      <point x="659" y="997" type="line"/>
      <point x="1118" y="997" type="line" smooth="yes"/>
      <point x="1184.4" y="997"/>
      <point x="1263" y="949.84"/>
      <point x="1263" y="894" type="qcurve" smooth="yes"/>
      <point x="1263" y="779" type="line" smooth="yes"/>
      <point x="1263" y="712.595"/>
      <point x="1195.2" y="644"/>
      <point x="1122" y="644" type="qcurve" smooth="yes"/>
      <point x="450" y="644" type="line" smooth="yes"/>
      <point x="379.068" y="644"/>
      <point x="314" y="708.614"/>
      <point x="314" y="772" type="qcurve" smooth="yes"/>
      <point x="314" y="843" type="line"/>
    </contour>
    <contour>
      <point x="774" y="0" type="line"/>
      <point x="817" y="0" type="line"/>
      <point x="2217" y="1400" type="line"/>
      <point x="2174" y="1400" type="line"/>
    </contour>
    <contour>
      <point x="1558" y="212" type="line"/>
      <point x="2525" y="212" type="line"/>
      <point x="2525" y="0" type="line"/>
      <point x="2559" y="0" type="line"/>
      <point x="2559" y="212" type="line"/>
      <point x="2868" y="212" type="line"/>
      <point x="2868" y="242" type="line"/>
      <point x="2559" y="242" type="line"/>
      <point x="2559" y="766" type="line"/>
      <point x="2527" y="766" type="line"/>
      <point x="1558" y="237" type="line"/>
    </contour>
    <contour>
      <point x="1629" y="242" type="line"/>
      <point x="2525" y="731" type="line"/>
      <point x="2525" y="242" type="line"/>
    </contour>
  </outline>
</glyph>
<glyph name="questiondown" format="2">
  <advance width="1825"/>
  <unicode hex="00BF"/>
  <outline>
    <contour>
      <point x="915" y="666" type="line"/>
      <point x="875" y="666" type="line"/>
      <point x="875" y="561" type="line" smooth="yes"/>
      <point x="875" y="443"/>
      <point x="780" y="351"/>
      <point x="659" y="349" type="qcurve" smooth="yes"/>
      <point x="405" y="344" type="line" smooth="yes"/>
      <point x="280" y="342"/>
      <point x="175" y="194"/>
      <point x="175" y="94" type="qcurve" smooth="yes"/>
      <point x="175" y="-156" type="line" smooth="yes"/>
      <point x="175" y="-290"/>
      <point x="321" y="-404"/>
      <point x="493" y="-404" type="qcurve" smooth="yes"/>
      <point x="1227" y="-404" type="line" smooth="yes"/>
      <point x="1398" y="-404"/>
      <point x="1545" y="-289"/>
      <point x="1545" y="-156" type="qcurve" smooth="yes"/>
      <point x="1545" y="-36" type="line"/>
      <point x="1505" y="-28" type="line"/>
      <point x="1505" y="-156" type="line" smooth="yes"/>
      <point x="1505" y="-273"/>
      <point x="1379" y="-368"/>
      <point x="1227" y="-368" type="qcurve" smooth="yes"/>
      <point x="493" y="-368" type="line" smooth="yes"/>
      <point x="338" y="-368"/>
      <point x="215" y="-272"/>
      <point x="215" y="-156" type="qcurve" smooth="yes"/>
      <point x="215" y="94" type="line" smooth="yes"/>
      <point x="215" y="186"/>
      <point x="305" y="306"/>
      <point x="405" y="308" type="qcurve" smooth="yes"/>
      <point x="659" y="313" type="line" smooth="yes"/>
      <point x="799" y="316"/>
      <point x="915" y="430"/>
      <point x="915" y="561" type="qcurve" smooth="yes"/>
    </contour>
    <contour>
      <point x="942" y="974" type="line" smooth="yes"/>
      <point x="942" y="994"/>
      <point x="936" y="1000"/>
      <point x="916" y="1000" type="qcurve" smooth="yes"/>
      <point x="874" y="1000" type="line" smooth="yes"/>
      <point x="855" y="1000"/>
      <point x="848" y="994"/>
      <point x="848" y="974" type="qcurve" smooth="yes"/>
      <point x="848" y="932" type="line" smooth="yes"/>
      <point x="848" y="912"/>
      <point x="854" y="906"/>
      <point x="874" y="906" type="qcurve" smooth="yes"/>
      <point x="916" y="906" type="line" smooth="yes"/>
      <point x="936" y="906"/>
      <point x="942" y="913"/>
      <point x="942" y="932" type="qcurve" smooth="yes"/>
    </contour>
  </outline>
</glyph>
<glyph name="Atilde" format="2">
  <advance width="2470"/>
  <unicode hex="00C3"/>
  <anchor x="1232" y="1894" name="top"/>
  <anchor x="1236" y="-150" name="bottom"/>
  <anchor x="2414" y="0" name="ogonek_in"/>
  <outline>
    <contour>
      <point x="0" y="0" type="line"/>
      <point x="48" y="0" type="line"/>
      <point x="387" y="388" type="line"/>
      <point x="2075" y="388" type="line"/>
      <point x="2414" y="0" type="line"/>
      <point x="2470" y="0" type="line"/>
      <point x="1241" y="1400" type="line"/>
      <point x="1223" y="1400" type="line"/>
    </contour>
    <contour>
      <point x="418" y="424" type="line"/>
      <point x="1231" y="1354" type="line"/>
      <point x="2044" y="424" type="line"/>
    </contour>
    <contour>
      <point x="788" y="1560" type="qcurve"/>
      <point x="821" y="1553" type="line"/>
      <point x="859" y="1666"/>
      <point x="961" y="1759"/>
      <point x="1032" y="1759" type="qcurve" smooth="yes"/>
      <point x="1094" y="1759"/>
      <point x="1182" y="1695"/>
      <point x="1266" y="1617"/>
      <point x="1361" y="1553"/>
      <point x="1428" y="1553" type="qcurve" smooth="yes"/>
      <point x="1462" y="1553"/>
      <point x="1531" y="1572"/>
      <point x="1596" y="1623"/>
      <point x="1654" y="1715"/>
      <point x="1676" y="1787" type="qcurve"/>
      <point x="1643" y="1794" type="line"/>
      <point x="1605" y="1681"/>
      <point x="1503" y="1588"/>
      <point x="1432" y="1588" type="qcurve" smooth="yes"/>
      <point x="1370" y="1588"/>
      <point x="1282" y="1652"/>
      <point x="1198" y="1730"/>
      <point x="1104" y="1794"/>
      <point x="1036" y="1794" type="qcurve" smooth="yes"/>
      <point x="1002" y="1794"/>
      <point x="933" y="1775"/>
      <point x="868" y="1724"/>
      <point x="811" y="1632"/>
    </contour>
  </outline>
</glyph>
<glyph name="Aring" format="2">
  <advance width="2470"/>
  <unicode hex="00C5"/>
  <anchor x="1232" y="1909" name="top"/>
  <anchor x="1236" y="-150" name="bottom"/>
  <anchor x="2414" y="0" name="ogonek_in"/>
  <outline>
    <contour>
      <point x="0" y="0" type="line"/>
      <point x="48" y="0" type="line"/>
      <point x="387" y="388" type="line"/>
      <point x="2075" y="388" type="line"/>
      <point x="2414" y="0" type="line"/>
      <point x="2470" y="0" type="line"/>
      <point x="1241" y="1400" type="line"/>
      <point x="1223" y="1400" type="line"/>
    </contour>
    <contour>
      <point x="418" y="424" type="line"/>
      <point x="1231" y="1354" type="line"/>
      <point x="2044" y="424" type="line"/>
    </contour>
    <contour>
      <point x="1232" y="1523" type="qcurve" smooth="yes"/>
      <point x="1282" y="1523"/>
      <point x="1343" y="1532"/>
      <point x="1377" y="1562"/>
      <point x="1389" y="1618"/>
      <point x="1389" y="1666" type="qcurve" smooth="yes"/>
      <point x="1389" y="1714"/>
      <point x="1377" y="1770"/>
      <point x="1343" y="1800"/>
      <point x="1282" y="1809"/>
      <point x="1232" y="1809" type="qcurve" smooth="yes"/>
      <point x="1182" y="1809"/>
      <point x="1121" y="1800"/>
      <point x="1087" y="1770"/>
      <point x="1075" y="1714"/>
      <point x="1075" y="1666" type="qcurve" smooth="yes"/>
      <point x="1075" y="1618"/>
      <point x="1087" y="1562"/>
      <point x="1121" y="1532"/>
      <point x="1182" y="1523"/>
    </contour>
    <contour>
      <point x="1232" y="1551" type="qcurve" smooth="yes"/>
      <point x="1150" y="1551"/>
      <point x="1108" y="1591"/>
      <point x="1108" y="1666" type="qcurve" smooth="yes"/>
      <point x="1108" y="1740"/>
      <point x="1150" y="1781"/>
      <point x="1232" y="1781" type="qcurve" smooth="yes"/>
      <point x="1314" y="1781"/>
      <point x="1356" y="1741"/>
      <point x="1356" y="1666" type="qcurve" smooth="yes"/>
      <point x="1356" y="1591"/>
      <point x="1314" y="1551"/>
    </contour>
  </outline>
</glyph>
<glyph name="Ccedilla" format="2">
  <advance width="2756"/>
  <unicode hex="00C7"/>
  <anchor x="1388" y="1550" name="top"/>
  <anchor x="1388" y="-150" name="bottom"/>
  <anchor x="1388" y="0" name="ogrev"/>
  <outline>
    <contour>
      <point x="334" y="1100" type="qcurve" smooth="yes"/>
      <point x="334" y="300" type="line" smooth="yes"/>
      <point x="334" y="154.362"/>
      <point x="488.362" y="0"/>
      <point x="634" y="0" type="qcurve" smooth="yes"/>
      <point x="2142" y="0" type="line" smooth="yes"/>
      <point x="2287.64" y="0"/>
      <point x="2442" y="154.362"/>
      <point x="2442" y="300" type="qcurve" smooth="yes"/>
      <point x="2442" y="512" type="line"/>
      <point x="2402" y="520" type="line"/>
      <point x="2402" y="298" type="line" smooth="yes"/>
      <point x="2402" y="169.718"/>
      <point x="2268.28" y="36"/>
      <point x="2140" y="36" type="qcurve" smooth="yes"/>
      <point x="636" y="36" type="line" smooth="yes"/>
      <point x="507.718" y="36"/>
      <point x="374" y="169.718"/>
      <point x="374" y="298" type="qcurve" smooth="yes"/>
      <point x="374" y="1102" type="line" smooth="yes"/>
      <point x="374" y="1230.28"/>
      <point x="507.718" y="1364"/>
      <point x="636" y="1364" type="qcurve" smooth="yes"/>
      <point x="2140" y="1364" type="line" smooth="yes"/>
      <point x="2268.28" y="1364"/>
      <point x="2402" y="1230.28"/>
      <point x="2402" y="1102" type="qcurve" smooth="yes"/>
      <point x="2402" y="906" type="line"/>
      <point x="2442" y="914" type="line"/>
      <point x="2442" y="1100" type="line" smooth="yes"/>
      <point x="2442" y="1244.75"/>
      <point x="2286.75" y="1400"/>
      <point x="2142" y="1400" type="qcurve" smooth="yes"/>
      <point x="634" y="1400" type="line" smooth="yes"/>
      <point x="489.25" y="1400"/>
      <point x="334" y="1244.75"/>
    </contour>
    <contour>
      <point x="1365" y="-384" type="qcurve" smooth="yes"/>
      <point x="1460.08" y="-384"/>
      <point x="1565" y="-309.159"/>
      <point x="1565" y="-242" type="qcurve" smooth="yes"/>
      <point x="1565" y="-171.822"/>
      <point x="1446.45" y="-102.736"/>
      <point x="1331" y="-105" type="qcurve"/>
      <point x="1401" y="15" type="line"/>
      <point x="1367" y="15" type="line"/>
      <point x="1279" y="-139" type="line"/>
      <point x="1293.34" y="-136.736"/>
      <point x="1329.13" y="-135"/>
      <point x="1348" y="-135" type="qcurve" smooth="yes"/>
      <point x="1440.06" y="-135"/>
      <point x="1530" y="-186.423"/>
      <point x="1530" y="-240" type="qcurve" smooth="yes"/>
      <point x="1530" y="-293.577"/>
      <point x="1442.22" y="-354"/>
      <point x="1362.94" y="-354" type="qcurve" smooth="yes"/>
      <point x="1317.71" y="-354"/>
      <point x="1214.96" y="-335.092"/>
      <point x="1181" y="-320" type="qcurve"/>
      <point x="1166" y="-344" type="line"/>
      <point x="1207.5" y="-362.865"/>
      <point x="1313.69" y="-384"/>
    </contour>
  </outline>
  <guideline angle="0" x="0" y="25"/>
</glyph>
<glyph name="Ecircumflex" format="2">
  <advance width="2243"/>
  <unicode hex="00CA"/>
  <anchor x="1294" y="1880" name="top"/>
  <anchor x="1294" y="-150" name="bottom"/>
  <anchor x="2197" y="0" name="ogonek"/>
  <anchor x="2238" y="0" name="ogonek_out"/>
  <anchor x="1790" y="1585" name="topright"/>
  <outline>
    <contour>
      <point x="350" y="0" type="line"/>
      <point x="2238" y="0" type="line"/>
      <point x="2238" y="36" type="line"/>
      <point x="390" y="36" type="line"/>
      <point x="390" y="700" type="line"/>
      <point x="1568" y="700" type="line"/>
      <point x="1568" y="736" type="line"/>
      <point x="390" y="736" type="line"/>
      <point x="390" y="1364" type="line"/>
      <point x="2204" y="1364" type="line"/>
      <point x="2204" y="1400" type="line"/>
      <point x="350" y="1400" type="line"/>
    </contour>
    <contour>
      <point x="798" y="1485" type="line"/>
      <point x="858" y="1485" type="line"/>
      <point x="1293" y="1776" type="line"/>
      <point x="1728" y="1485" type="line"/>
      <point x="1790" y="1485" type="line"/>
      <point x="1314" y="1800" type="line"/>
      <point x="1274" y="1800" type="line"/>
    </contour>
  </outline>
</glyph>
<glyph name="Iacute" format="2">
  <advance width="740"/>
  <unicode hex="00CD"/>
  <anchor x="370" y="1550" name="top"/>
  <anchor x="370" y="-150" name="bottom"/>
  <anchor x="390" y="0" name="ogonek"/>
  <anchor x="228" y="1485" name="topright"/>
  <outline>
    <contour>
      <point x="350" y="0" type="line"/>
      <point x="390" y="0" type="line"/>
      <point x="390" y="1400" type="line"/>
      <point x="350" y="1400" type="line"/>
    </contour>
    <contour>
      <point x="188" y="1485" type="line"/>
      <point x="246" y="1485" type="line"/>
      <point x="715" y="1800" type="line"/>
      <point x="646" y="1800" type="line"/>
    </contour>
  </outline>
</glyph>
<glyph name="Idieresis" format="2">
  <advance width="740"/>
  <unicode hex="00CF"/>
  <anchor x="370" y="1799" name="top"/>
  <anchor x="370" y="-150" name="bottom"/>
  <anchor x="390" y="0" name="ogonek"/>
  <outline>
    <contour>
      <point x="350" y="0" type="line"/>
      <point x="390" y="0" type="line"/>
      <point x="390" y="1400" type="line"/>
      <point x="350" y="1400" type="line"/>
    </contour>
    <contour>
      <point x="117" y="1662" type="line" smooth="yes"/>
      <point x="117" y="1644.64"/>
      <point x="123.644" y="1638"/>
      <point x="141" y="1638" type="qcurve" smooth="yes"/>
      <point x="166" y="1638" type="line" smooth="yes"/>
      <point x="183.356" y="1638"/>
      <point x="190" y="1644.64"/>
      <point x="190" y="1662" type="qcurve" smooth="yes"/>
      <point x="190" y="1687" type="line" smooth="yes"/>
      <point x="190" y="1704.36"/>
      <point x="183.356" y="1711"/>
      <point x="166" y="1711" type="qcurve" smooth="yes"/>
      <point x="141" y="1711" type="line" smooth="yes"/>
      <point x="123.644" y="1711"/>
      <point x="117" y="1704.36"/>
      <point x="117" y="1687" type="qcurve" smooth="yes"/>
    </contour>
    <contour>
      <point x="550" y="1662" type="line" smooth="yes"/>
      <point x="550" y="1644.64"/>
      <point x="556.644" y="1638"/>
      <point x="574" y="1638" type="qcurve" smooth="yes"/>
      <point x="599" y="1638" type="line" smooth="yes"/>
      <point x="616.356" y="1638"/>
      <point x="623" y="1644.64"/>
      <point x="623" y="1662" type="qcurve" smooth="yes"/>
      <point x="623" y="1687" type="line" smooth="yes"/>
      <point x="623" y="1704.36"/>
      <point x="616.356" y="1711"/>
      <point x="599" y="1711" type="qcurve" smooth="yes"/>
      <point x="574" y="1711" type="line" smooth="yes"/>
      <point x="556.644" y="1711"/>
      <point x="550" y="1704.36"/>
      <point x="550" y="1687" type="qcurve" smooth="yes"/>
    </contour>
  </outline>
</glyph>
<glyph name="Eth" format="2">
  <advance width="2669"/>
  <unicode hex="00D0"/>
  <anchor x="1201" y="1550" name="top"/>
  <anchor x="1201" y="-150" name="bottom"/>
  <outline>
    <contour>
      <point x="350" y="0" type="line"/>
      <point x="1593" y="0" type="line" smooth="yes"/>
      <point x="1800.38" y="0"/>
      <point x="2116.59" y="75.5938"/>
      <point x="2330.16" y="242.656"/>
      <point x="2439" y="509.125"/>
      <point x="2439" y="700" type="qcurve" smooth="yes"/>
      <point x="2439" y="893.875"/>
      <point x="2329.31" y="1161.09"/>
      <point x="2115.19" y="1326.66"/>
      <point x="1799.25" y="1400"/>
      <point x="1593" y="1400" type="qcurve" smooth="yes"/>
      <point x="350" y="1400" type="line"/>
      <point x="350" y="716" type="line"/>
      <point x="202" y="716" type="line"/>
      <point x="202" y="684" type="line"/>
      <point x="350" y="684" type="line"/>
    </contour>
    <contour>
      <point x="390" y="36" type="line"/>
      <point x="390" y="684" type="line"/>
      <point x="1165" y="684" type="line"/>
      <point x="1165" y="716" type="line"/>
      <point x="390" y="716" type="line"/>
      <point x="390" y="1364" type="line"/>
      <point x="1593" y="1364" type="line" smooth="yes"/>
      <point x="1789.88" y="1364"/>
      <point x="2090.34" y="1295.44"/>
      <point x="2293.41" y="1139.06"/>
      <point x="2397" y="885.25"/>
      <point x="2397" y="700" type="qcurve" smooth="yes"/>
      <point x="2397" y="518.5"/>
      <point x="2295.66" y="265.625"/>
      <point x="2094.09" y="107.375"/>
      <point x="1792.88" y="36"/>
      <point x="1593" y="36" type="qcurve" smooth="yes"/>
    </contour>
  </outline>
</glyph>
<glyph name="Ntilde" format="2">
  <advance width="2862"/>
  <unicode hex="00D1"/>
  <anchor x="1431" y="1894" name="top"/>
  <anchor x="1431" y="-150" name="bottom"/>
  <outline>
    <contour>
      <point x="350" y="0" type="line"/>
      <point x="386" y="0" type="line"/>
      <point x="386" y="1353" type="line"/>
      <point x="2474" y="0" type="line"/>
      <point x="2512" y="0" type="line"/>
      <point x="2512" y="1400" type="line"/>
      <point x="2476" y="1400" type="line"/>
      <point x="2476" y="46" type="line"/>
      <point x="386" y="1400" type="line"/>
      <point x="350" y="1400" type="line"/>
    </contour>
    <contour>
      <point x="987" y="1560" type="qcurve"/>
      <point x="1020" y="1553" type="line"/>
      <point x="1058" y="1666"/>
      <point x="1160" y="1759"/>
      <point x="1231" y="1759" type="qcurve" smooth="yes"/>
      <point x="1293" y="1759"/>
      <point x="1381" y="1695"/>
      <point x="1465" y="1617"/>
      <point x="1560" y="1553"/>
      <point x="1627" y="1553" type="qcurve" smooth="yes"/>
      <point x="1661" y="1553"/>
      <point x="1730" y="1572"/>
      <point x="1795" y="1623"/>
      <point x="1853" y="1715"/>
      <point x="1875" y="1787" type="qcurve"/>
      <point x="1842" y="1794" type="line"/>
      <point x="1804" y="1681"/>
      <point x="1702" y="1588"/>
      <point x="1631" y="1588" type="qcurve" smooth="yes"/>
      <point x="1569" y="1588"/>
      <point x="1481" y="1652"/>
      <point x="1397" y="1730"/>
      <point x="1303" y="1794"/>
      <point x="1235" y="1794" type="qcurve" smooth="yes"/>
      <point x="1201" y="1794"/>
      <point x="1132" y="1775"/>
      <point x="1067" y="1724"/>
      <point x="1010" y="1632"/>
    </contour>
  </outline>
</glyph>
<glyph name="Ograve" format="2">
  <advance width="2816"/>
  <unicode hex="00D2"/>
  <anchor x="1408" y="1550" name="top"/>
  <anchor x="1408" y="-150" name="bottom"/>
  <anchor x="2392" y="1322" name="horn"/>
  <anchor x="1408" y="0" name="ogonek"/>
  <anchor x="1550" y="1485" name="topright"/>
  <outline>
    <contour>
      <point x="334" y="1100" type="qcurve" smooth="yes"/>
      <point x="334" y="300" type="line" smooth="yes"/>
      <point x="334" y="154"/>
      <point x="488" y="0"/>
      <point x="634" y="0" type="qcurve" smooth="yes"/>
      <point x="2182" y="0" type="line" smooth="yes"/>
      <point x="2328" y="0"/>
      <point x="2482" y="154"/>
      <point x="2482" y="300" type="qcurve" smooth="yes"/>
      <point x="2482" y="1100" type="line" smooth="yes"/>
      <point x="2482" y="1245"/>
      <point x="2327" y="1400"/>
      <point x="2182" y="1400" type="qcurve" smooth="yes"/>
      <point x="634" y="1400" type="line" smooth="yes"/>
      <point x="489" y="1400"/>
      <point x="334" y="1245"/>
    </contour>
    <contour>
      <point x="374" y="1102" type="line" smooth="yes"/>
      <point x="374" y="1230"/>
      <point x="508" y="1364"/>
      <point x="636" y="1364" type="qcurve" smooth="yes"/>
      <point x="2180" y="1364" type="line" smooth="yes"/>
      <point x="2308" y="1364"/>
      <point x="2442" y="1230"/>
      <point x="2442" y="1102" type="qcurve" smooth="yes"/>
      <point x="2442" y="298" type="line" smooth="yes"/>
      <point x="2442" y="170"/>
      <point x="2308" y="36"/>
      <point x="2180" y="36" type="qcurve" smooth="yes"/>
      <point x="636" y="36" type="line" smooth="yes"/>
      <point x="508" y="36"/>
      <point x="374" y="170"/>
      <point x="374" y="298" type="qcurve" smooth="yes"/>
    </contour>
    <contour>
      <point x="1528" y="1485" type="line"/>
      <point x="1586" y="1485" type="line"/>
      <point x="1128" y="1800" type="line"/>
      <point x="1059" y="1800" type="line"/>
    </contour>
  </outline>
</glyph>
<glyph name="Oacute" format="2">
  <advance width="2816"/>
  <unicode hex="00D3"/>
  <anchor x="1408" y="1550" name="top"/>
  <anchor x="1408" y="-150" name="bottom"/>
  <anchor x="2392" y="1322" name="horn"/>
  <anchor x="1408" y="0" name="ogonek"/>
  <anchor x="1266" y="1485" name="topright"/>
  <outline>
    <contour>
      <point x="334" y="1100" type="qcurve" smooth="yes"/>
      <point x="334" y="300" type="line" smooth="yes"/>
      <point x="334" y="154"/>
      <point x="488" y="0"/>
      <point x="634" y="0" type="qcurve" smooth="yes"/>
      <point x="2182" y="0" type="line" smooth="yes"/>
      <point x="2328" y="0"/>
      <point x="2482" y="154"/>
      <point x="2482" y="300" type="qcurve" smooth="yes"/>
      <point x="2482" y="1100" type="line" smooth="yes"/>
      <point x="2482" y="1245"/>
      <point x="2327" y="1400"/>
      <point x="2182" y="1400" type="qcurve" smooth="yes"/>
      <point x="634" y="1400" type="line" smooth="yes"/>
      <point x="489" y="1400"/>
      <point x="334" y="1245"/>
    </contour>
    <contour>
      <point x="374" y="1102" type="line" smooth="yes"/>
      <point x="374" y="1230"/>
      <point x="508" y="1364"/>
      <point x="636" y="1364" type="qcurve" smooth="yes"/>
      <point x="2180" y="1364" type="line" smooth="yes"/>
      <point x="2308" y="1364"/>
      <point x="2442" y="1230"/>
      <point x="2442" y="1102" type="qcurve" smooth="yes"/>
      <point x="2442" y="298" type="line" smooth="yes"/>
      <point x="2442" y="170"/>
      <point x="2308" y="36"/>
      <point x="2180" y="36" type="qcurve" smooth="yes"/>
      <point x="636" y="36" type="line" smooth="yes"/>
      <point x="508" y="36"/>
      <point x="374" y="170"/>
      <point x="374" y="298" type="qcurve" smooth="yes"/>
    </contour>
    <contour>
      <point x="1226" y="1485" type="line"/>
      <point x="1284" y="1485" type="line"/>
      <point x="1753" y="1800" type="line"/>
      <point x="1684" y="1800" type="line"/>
    </contour>
  </outline>
</glyph>
<glyph name="Otilde" format="2">
  <advance width="2816"/>
  <unicode hex="00D5"/>
  <anchor x="1396" y="1894" name="top"/>
  <anchor x="1396" y="-150" name="bottom"/>
  <anchor x="2470" y="1100" name="horn"/>
  <anchor x="1414" y="0" name="ogonek"/>
  <outline>
    <contour>
      <point x="334" y="1100" type="qcurve" smooth="yes"/>
      <point x="334" y="300" type="line" smooth="yes"/>
      <point x="334" y="154.362"/>
      <point x="488.362" y="0"/>
      <point x="634" y="0" type="qcurve" smooth="yes"/>
      <point x="2182" y="0" type="line" smooth="yes"/>
      <point x="2327.64" y="0"/>
      <point x="2482" y="154.362"/>
      <point x="2482" y="300" type="qcurve" smooth="yes"/>
      <point x="2482" y="1100" type="line" smooth="yes"/>
      <point x="2482" y="1244.75"/>
      <point x="2326.75" y="1400"/>
      <point x="2182" y="1400" type="qcurve" smooth="yes"/>
      <point x="634" y="1400" type="line" smooth="yes"/>
      <point x="489.25" y="1400"/>
      <point x="334" y="1244.75"/>
    </contour>
    <contour>
      <point x="374" y="1102" type="line" smooth="yes"/>
      <point x="374" y="1230.28"/>
      <point x="507.718" y="1364"/>
      <point x="636" y="1364" type="qcurve" smooth="yes"/>
      <point x="2180" y="1364" type="line" smooth="yes"/>
      <point x="2308.28" y="1364"/>
      <point x="2442" y="1230.28"/>
      <point x="2442" y="1102" type="qcurve" smooth="yes"/>
      <point x="2442" y="298" type="line" smooth="yes"/>
      <point x="2442" y="169.718"/>
      <point x="2308.28" y="36"/>
      <point x="2180" y="36" type="qcurve" smooth="yes"/>
      <point x="636" y="36" type="line" smooth="yes"/>
      <point x="507.718" y="36"/>
      <point x="374" y="169.718"/>
      <point x="374" y="298" type="qcurve" smooth="yes"/>
    </contour>
    <contour>
      <point x="952" y="1560" type="qcurve"/>
      <point x="985" y="1553" type="line"/>
      <point x="1022.73" y="1666.19"/>
      <point x="1125.07" y="1759"/>
      <point x="1196" y="1759" type="qcurve" smooth="yes"/>
      <point x="1257.88" y="1759"/>
      <point x="1346.47" y="1694.62"/>
      <point x="1430.28" y="1617.38"/>
      <point x="1524.5" y="1553"/>
      <point x="1592" y="1553" type="qcurve" smooth="yes"/>
      <point x="1626.12" y="1553"/>
      <point x="1695.28" y="1571.84"/>
      <point x="1759.97" y="1623.41"/>
      <point x="1817.5" y="1714.62"/>
      <point x="1840" y="1787" type="qcurve"/>
      <point x="1807" y="1794" type="line"/>
      <point x="1769.27" y="1680.81"/>
      <point x="1666.93" y="1588"/>
      <point x="1596" y="1588" type="qcurve" smooth="yes"/>
      <point x="1534.12" y="1588"/>
      <point x="1445.53" y="1652.38"/>
      <point x="1361.72" y="1729.62"/>
      <point x="1267.5" y="1794"/>
      <point x="1200" y="1794" type="qcurve" smooth="yes"/>
      <point x="1165.88" y="1794"/>
      <point x="1096.72" y="1775.16"/>
      <point x="1032.03" y="1723.59"/>
      <point x="974.5" y="1632.38"/>
    </contour>
  </outline>
</glyph>
<glyph name="Odieresis" format="2">
  <advance width="2816"/>
  <unicode hex="00D6"/>
  <anchor x="1396" y="1799" name="top"/>
  <anchor x="1396" y="-150" name="bottom"/>
  <anchor x="2470" y="1100" name="horn"/>
  <anchor x="1414" y="0" name="ogonek"/>
  <outline>
    <contour>
      <point x="334" y="1100" type="qcurve" smooth="yes"/>
      <point x="334" y="300" type="line" smooth="yes"/>
      <point x="334" y="154"/>
      <point x="488" y="0"/>
      <point x="634" y="0" type="qcurve" smooth="yes"/>
      <point x="2182" y="0" type="line" smooth="yes"/>
      <point x="2328" y="0"/>
      <point x="2482" y="154"/>
      <point x="2482" y="300" type="qcurve" smooth="yes"/>
      <point x="2482" y="1100" type="line" smooth="yes"/>
      <point x="2482" y="1245"/>
      <point x="2327" y="1400"/>
      <point x="2182" y="1400" type="qcurve" smooth="yes"/>
      <point x="634" y="1400" type="line" smooth="yes"/>
      <point x="489" y="1400"/>
      <point x="334" y="1245"/>
    </contour>
    <contour>
      <point x="374" y="1102" type="line" smooth="yes"/>
      <point x="374" y="1230"/>
      <point x="508" y="1364"/>
      <point x="636" y="1364" type="qcurve" smooth="yes"/>
      <point x="2180" y="1364" type="line" smooth="yes"/>
      <point x="2308" y="1364"/>
      <point x="2442" y="1230"/>
      <point x="2442" y="1102" type="qcurve" smooth="yes"/>
      <point x="2442" y="298" type="line" smooth="yes"/>
      <point x="2442" y="170"/>
      <point x="2308" y="36"/>
      <point x="2180" y="36" type="qcurve" smooth="yes"/>
      <point x="636" y="36" type="line" smooth="yes"/>
      <point x="508" y="36"/>
      <point x="374" y="170"/>
      <point x="374" y="298" type="qcurve" smooth="yes"/>
    </contour>
    <contour>
      <point x="1167" y="1638" type="qcurve" smooth="yes"/>
      <point x="1192" y="1638" type="line" smooth="yes"/>
      <point x="1209" y="1638"/>
      <point x="1216" y="1645"/>
      <point x="1216" y="1662" type="qcurve" smooth="yes"/>
      <point x="1216" y="1687" type="line" smooth="yes"/>
      <point x="1216" y="1704"/>
      <point x="1209" y="1711"/>
      <point x="1192" y="1711" type="qcurve" smooth="yes"/>
      <point x="1167" y="1711" type="line" smooth="yes"/>
      <point x="1150" y="1711"/>
      <point x="1143" y="1704"/>
      <point x="1143" y="1687" type="qcurve" smooth="yes"/>
      <point x="1143" y="1662" type="line" smooth="yes"/>
      <point x="1143" y="1645"/>
      <point x="1150" y="1638"/>
    </contour>
    <contour>
      <point x="1600" y="1638" type="qcurve" smooth="yes"/>
      <point x="1625" y="1638" type="line" smooth="yes"/>
      <point x="1642" y="1638"/>
      <point x="1649" y="1645"/>
      <point x="1649" y="1662" type="qcurve" smooth="yes"/>
      <point x="1649" y="1687" type="line" smooth="yes"/>
      <point x="1649" y="1704"/>
      <point x="1642" y="1711"/>
      <point x="1625" y="1711" type="qcurve" smooth="yes"/>
      <point x="1600" y="1711" type="line" smooth="yes"/>
      <point x="1583" y="1711"/>
      <point x="1576" y="1704"/>
      <point x="1576" y="1687" type="qcurve" smooth="yes"/>
      <point x="1576" y="1662" type="line" smooth="yes"/>
      <point x="1576" y="1645"/>
      <point x="1583" y="1638"/>
    </contour>
  </outline>
</glyph>
<glyph name="multiply" format="2">
  <advance width="1737"/>
  <unicode hex="00D7"/>
  <outline>
    <contour>
      <point x="249" y="140" type="line"/>
      <point x="228" y="171" type="line"/>
      <point x="837" y="587" type="line"/>
      <point x="228" y="1003" type="line"/>
      <point x="249" y="1034" type="line"/>
      <point x="870" y="610" type="line"/>
      <point x="1489" y="1033" type="line"/>
      <point x="1510" y="1003" type="line"/>
      <point x="903" y="587" type="line"/>
      <point x="1510" y="172" type="line"/>
      <point x="1489" y="141" type="line"/>
      <point x="869" y="565" type="line"/>
      <point x="249" y="140" type="line"/>
    </contour>
  </outline>
  <guideline angle="34.3869" color="1,0,0,1" x="248.5" y="140"/>
  <guideline angle="325.644" color="1,0,0,1" x="227.5" y="1003"/>
</glyph>
<glyph name="Udieresis" format="2">
  <advance width="2605"/>
  <unicode hex="00DC"/>
  <anchor x="1303" y="1799" name="top"/>
  <anchor x="1303" y="-150" name="bottom"/>
  <anchor x="1323" y="0" name="ogonek"/>
  <anchor x="2263" y="1400" name="horn"/>
  <outline>
    <contour>
      <point x="342" y="1400" type="line"/>
      <point x="342" y="300" type="line" smooth="yes"/>
      <point x="342" y="227.625"/>
      <point x="381.469" y="115.781"/>
      <point x="457.781" y="39.4688"/>
      <point x="569.625" y="0"/>
      <point x="642" y="0" type="qcurve" smooth="yes"/>
      <point x="1963" y="0" type="line" smooth="yes"/>
      <point x="2107.75" y="0"/>
      <point x="2263" y="155.25"/>
      <point x="2263" y="300" type="qcurve" smooth="yes"/>
      <point x="2263" y="1400" type="line"/>
      <point x="2223" y="1400" type="line"/>
      <point x="2223" y="298" type="line" smooth="yes"/>
      <point x="2223" y="169.718"/>
      <point x="2089.28" y="36"/>
      <point x="1961" y="36" type="qcurve" smooth="yes"/>
      <point x="644" y="36" type="line" smooth="yes"/>
      <point x="515.718" y="36"/>
      <point x="382" y="169.718"/>
      <point x="382" y="298" type="qcurve" smooth="yes"/>
      <point x="382" y="1400" type="line"/>
    </contour>
    <contour>
      <point x="1050" y="1662" type="line" smooth="yes"/>
      <point x="1050" y="1644.64"/>
      <point x="1056.64" y="1638"/>
      <point x="1074" y="1638" type="qcurve" smooth="yes"/>
      <point x="1099" y="1638" type="line" smooth="yes"/>
      <point x="1116.36" y="1638"/>
      <point x="1123" y="1644.64"/>
      <point x="1123" y="1662" type="qcurve" smooth="yes"/>
      <point x="1123" y="1687" type="line" smooth="yes"/>
      <point x="1123" y="1704.36"/>
      <point x="1116.36" y="1711"/>
      <point x="1099" y="1711" type="qcurve" smooth="yes"/>
      <point x="1074" y="1711" type="line" smooth="yes"/>
      <point x="1056.64" y="1711"/>
      <point x="1050" y="1704.36"/>
      <point x="1050" y="1687" type="qcurve" smooth="yes"/>
    </contour>
    <contour>
      <point x="1483" y="1662" type="line" smooth="yes"/>
      <point x="1483" y="1644.64"/>
      <point x="1489.64" y="1638"/>
      <point x="1507" y="1638" type="qcurve" smooth="yes"/>
      <point x="1532" y="1638" type="line" smooth="yes"/>
      <point x="1549.36" y="1638"/>
      <point x="1556" y="1644.64"/>
      <point x="1556" y="1662" type="qcurve" smooth="yes"/>
      <point x="1556" y="1687" type="line" smooth="yes"/>
      <point x="1556" y="1704.36"/>
      <point x="1549.36" y="1711"/>
      <point x="1532" y="1711" type="qcurve" smooth="yes"/>
      <point x="1507" y="1711" type="line" smooth="yes"/>
      <point x="1489.64" y="1711"/>
      <point x="1483" y="1704.36"/>
      <point x="1483" y="1687" type="qcurve" smooth="yes"/>
    </contour>
  </outline>
</glyph>
<glyph name="Yacute" format="2">
  <advance width="2218"/>
  <unicode hex="00DD"/>
  <anchor x="1109" y="1550" name="top"/>
  <anchor x="1111" y="-150" name="bottom"/>
  <anchor x="967" y="1485" name="topright"/>
  <outline>
    <contour>
      <point x="1091" y="0" type="line"/>
      <point x="1131" y="0" type="line"/>
      <point x="1131" y="644" type="line"/>
      <point x="2218" y="1400" type="line"/>
      <point x="2155" y="1400" type="line"/>
      <point x="1114" y="676" type="line"/>
      <point x="71" y="1400" type="line"/>
      <point x="0" y="1400" type="line"/>
      <point x="1091" y="644" type="line"/>
    </contour>
    <contour>
      <point x="927" y="1485" type="line"/>
      <point x="988" y="1485" type="line"/>
      <point x="1458" y="1800" type="line"/>
      <point x="1385" y="1800" type="line"/>
    </contour>
  </outline>
</glyph>
<glyph name="germandbls" format="2">
  <advance width="1895"/>
  <unicode hex="00DF"/>
  <outline>
    <contour>
      <point x="310" y="0" type="line"/>
      <point x="346" y="0" type="line"/>
      <point x="346" y="1280" type="line" smooth="yes"/>
      <point x="346" y="1346"/>
      <point x="405" y="1416"/>
      <point x="472" y="1416" type="qcurve" smooth="yes"/>
      <point x="1404" y="1416" type="line" smooth="yes"/>
      <point x="1471" y="1416"/>
      <point x="1530" y="1346"/>
      <point x="1530" y="1280" type="qcurve" smooth="yes"/>
      <point x="1530" y="1136" type="line" smooth="yes"/>
      <point x="1530" y="1070"/>
      <point x="1471" y="1000"/>
      <point x="1404" y="1000" type="qcurve" smooth="yes"/>
      <point x="791" y="1000" type="line"/>
      <point x="791" y="968" type="line"/>
      <point x="1445" y="968" type="line" smooth="yes"/>
      <point x="1520" y="968"/>
      <point x="1575" y="898"/>
      <point x="1575" y="832" type="qcurve" smooth="yes"/>
      <point x="1575" y="168" type="line" smooth="yes"/>
      <point x="1575" y="101"/>
      <point x="1520" y="32"/>
      <point x="1445" y="32" type="qcurve" smooth="yes"/>
      <point x="653" y="32" type="line"/>
      <point x="653" y="0" type="line"/>
      <point x="1449" y="0" type="line" smooth="yes"/>
      <point x="1528" y="0"/>
      <point x="1611" y="83"/>
      <point x="1611" y="162" type="qcurve" smooth="yes"/>
      <point x="1611" y="838" type="line" smooth="yes"/>
      <point x="1611" y="902"/>
      <point x="1557" y="980"/>
      <point x="1505" y="994" type="qcurve"/>
      <point x="1535" y="1014"/>
      <point x="1566" y="1082"/>
      <point x="1566" y="1130" type="qcurve" smooth="yes"/>
      <point x="1566" y="1286" type="line" smooth="yes"/>
      <point x="1566" y="1365"/>
      <point x="1483" y="1448"/>
      <point x="1404" y="1448" type="qcurve" smooth="yes"/>
      <point x="472" y="1448" type="line" smooth="yes"/>
      <point x="393" y="1448"/>
      <point x="310" y="1365"/>
      <point x="310" y="1286" type="qcurve" smooth="yes"/>
    </contour>
  </outline>
</glyph>
<glyph name="acircumflex" format="2">
  <advance width="1984"/>
  <unicode hex="00E2"/>
  <anchor x="978" y="1538" name="top"/>
  <anchor x="1041" y="-150" name="bottom"/>
  <anchor x="1674" y="0" name="ogonek"/>
  <anchor x="1441" y="1267" name="topright"/>
  <outline>
    <contour>
      <point x="446" y="0" type="qcurve" smooth="yes"/>
      <point x="1592" y="0" type="line" smooth="yes"/>
      <point x="1609" y="0"/>
      <point x="1630" y="12"/>
      <point x="1638" y="26" type="qcurve"/>
      <point x="1638" y="0" type="line"/>
      <point x="1674" y="0" type="line"/>
      <point x="1674" y="838" type="line" smooth="yes"/>
      <point x="1674" y="917"/>
      <point x="1592" y="1000"/>
      <point x="1513" y="1000" type="qcurve" smooth="yes"/>
      <point x="458" y="1000" type="line" smooth="yes"/>
      <point x="379" y="1000"/>
      <point x="296" y="917"/>
      <point x="296" y="838" type="qcurve" smooth="yes"/>
      <point x="296" y="750" type="line"/>
      <point x="332" y="742" type="line"/>
      <point x="332" y="832" type="line" smooth="yes"/>
      <point x="332" y="898"/>
      <point x="391" y="968"/>
      <point x="458" y="968" type="qcurve" smooth="yes"/>
      <point x="1513" y="968" type="line" smooth="yes"/>
      <point x="1579" y="968"/>
      <point x="1638" y="898"/>
      <point x="1638" y="832" type="qcurve" smooth="yes"/>
      <point x="1638" y="592" type="line"/>
      <point x="446" y="592" type="line" smooth="yes"/>
      <point x="367" y="592"/>
      <point x="284" y="509"/>
      <point x="284" y="430" type="qcurve" smooth="yes"/>
      <point x="284" y="162" type="line" smooth="yes"/>
      <point x="284" y="83"/>
      <point x="367" y="0"/>
    </contour>
    <contour>
      <point x="320" y="168" type="qcurve" smooth="yes"/>
      <point x="320" y="424" type="line" smooth="yes"/>
      <point x="320" y="490"/>
      <point x="379" y="560"/>
      <point x="446" y="560" type="qcurve" smooth="yes"/>
      <point x="1638" y="560" type="line"/>
      <point x="1638" y="32" type="line"/>
      <point x="446" y="32" type="line" smooth="yes"/>
      <point x="379" y="32"/>
      <point x="320" y="102"/>
    </contour>
    <contour>
      <point x="515" y="1095" type="line"/>
      <point x="567" y="1095" type="line"/>
      <point x="978" y="1412" type="line"/>
      <point x="1389" y="1095" type="line"/>
      <point x="1441" y="1095" type="line"/>
      <point x="994" y="1438" type="line"/>
      <point x="962" y="1438" type="line"/>
    </contour>
  </outline>
  <guideline angle="90" color="1,0,0,1" x="1638" y="0"/>
</glyph>
<glyph name="atilde" format="2">
  <advance width="1984"/>
  <unicode hex="00E3"/>
  <anchor x="978" y="1469" name="top"/>
  <anchor x="1041" y="-150" name="bottom"/>
  <anchor x="1674" y="0" name="ogonek"/>
  <outline>
    <contour>
      <point x="446" y="0" type="qcurve" smooth="yes"/>
      <point x="1592" y="0" type="line" smooth="yes"/>
      <point x="1609" y="0"/>
      <point x="1630" y="12"/>
      <point x="1638" y="26" type="qcurve"/>
      <point x="1638" y="0" type="line"/>
      <point x="1674" y="0" type="line"/>
      <point x="1674" y="838" type="line" smooth="yes"/>
      <point x="1674" y="917"/>
      <point x="1592" y="1000"/>
      <point x="1513" y="1000" type="qcurve" smooth="yes"/>
      <point x="458" y="1000" type="line" smooth="yes"/>
      <point x="379" y="1000"/>
      <point x="296" y="917"/>
      <point x="296" y="838" type="qcurve" smooth="yes"/>
      <point x="296" y="750" type="line"/>
      <point x="332" y="742" type="line"/>
      <point x="332" y="832" type="line" smooth="yes"/>
      <point x="332" y="898"/>
      <point x="391" y="968"/>
      <point x="458" y="968" type="qcurve" smooth="yes"/>
      <point x="1513" y="968" type="line" smooth="yes"/>
      <point x="1579" y="968"/>
      <point x="1638" y="898"/>
      <point x="1638" y="832" type="qcurve" smooth="yes"/>
      <point x="1638" y="592" type="line"/>
      <point x="446" y="592" type="line" smooth="yes"/>
      <point x="367" y="592"/>
      <point x="284" y="509"/>
      <point x="284" y="430" type="qcurve" smooth="yes"/>
      <point x="284" y="162" type="line" smooth="yes"/>
      <point x="284" y="83"/>
      <point x="367" y="0"/>
    </contour>
    <contour>
      <point x="320" y="168" type="qcurve" smooth="yes"/>
      <point x="320" y="424" type="line" smooth="yes"/>
      <point x="320" y="490"/>
      <point x="379" y="560"/>
      <point x="446" y="560" type="qcurve" smooth="yes"/>
      <point x="1638" y="560" type="line"/>
      <point x="1638" y="32" type="line"/>
      <point x="446" y="32" type="line" smooth="yes"/>
      <point x="379" y="32"/>
      <point x="320" y="102"/>
    </contour>
    <contour>
      <point x="538" y="1179" type="qcurve"/>
      <point x="567" y="1173" type="line"/>
      <point x="605" y="1287"/>
      <point x="707" y="1384"/>
      <point x="779" y="1384" type="qcurve" smooth="yes"/>
      <point x="841" y="1384"/>
      <point x="929" y="1318"/>
      <point x="1012" y="1239"/>
      <point x="1107" y="1173"/>
      <point x="1174" y="1173" type="qcurve" smooth="yes"/>
      <point x="1242" y="1173"/>
      <point x="1373" y="1263"/>
      <point x="1418" y="1408" type="qcurve"/>
      <point x="1389" y="1414" type="line"/>
      <point x="1351" y="1300"/>
      <point x="1249" y="1203"/>
      <point x="1177" y="1203" type="qcurve" smooth="yes"/>
      <point x="1116" y="1203"/>
      <point x="1027" y="1269"/>
      <point x="944" y="1348"/>
      <point x="850" y="1414"/>
      <point x="782" y="1414" type="qcurve" smooth="yes"/>
      <point x="714" y="1414"/>
      <point x="583" y="1324"/>
    </contour>
  </outline>
  <guideline angle="90" color="1,0,0,1" x="1638" y="0"/>
</glyph>
<glyph name="aring" format="2">
  <advance width="1984"/>
  <unicode hex="00E5"/>
  <anchor x="978" y="1513" name="top"/>
  <anchor x="1041" y="-150" name="bottom"/>
  <anchor x="1674" y="0" name="ogonek"/>
  <outline>
    <contour>
      <point x="446" y="0" type="qcurve" smooth="yes"/>
      <point x="1592" y="0" type="line" smooth="yes"/>
      <point x="1609" y="0"/>
      <point x="1630" y="12"/>
      <point x="1638" y="26" type="qcurve"/>
      <point x="1638" y="0" type="line"/>
      <point x="1674" y="0" type="line"/>
      <point x="1674" y="838" type="line" smooth="yes"/>
      <point x="1674" y="917"/>
      <point x="1592" y="1000"/>
      <point x="1513" y="1000" type="qcurve" smooth="yes"/>
      <point x="458" y="1000" type="line" smooth="yes"/>
      <point x="379" y="1000"/>
      <point x="296" y="917"/>
      <point x="296" y="838" type="qcurve" smooth="yes"/>
      <point x="296" y="750" type="line"/>
      <point x="332" y="742" type="line"/>
      <point x="332" y="832" type="line" smooth="yes"/>
      <point x="332" y="898"/>
      <point x="391" y="968"/>
      <point x="458" y="968" type="qcurve" smooth="yes"/>
      <point x="1513" y="968" type="line" smooth="yes"/>
      <point x="1579" y="968"/>
      <point x="1638" y="898"/>
      <point x="1638" y="832" type="qcurve" smooth="yes"/>
      <point x="1638" y="592" type="line"/>
      <point x="446" y="592" type="line" smooth="yes"/>
      <point x="367" y="592"/>
      <point x="284" y="509"/>
      <point x="284" y="430" type="qcurve" smooth="yes"/>
      <point x="284" y="162" type="line" smooth="yes"/>
      <point x="284" y="83"/>
      <point x="367" y="0"/>
    </contour>
    <contour>
      <point x="320" y="168" type="qcurve" smooth="yes"/>
      <point x="320" y="424" type="line" smooth="yes"/>
      <point x="320" y="490"/>
      <point x="379" y="560"/>
      <point x="446" y="560" type="qcurve" smooth="yes"/>
      <point x="1638" y="560" type="line"/>
      <point x="1638" y="32" type="line"/>
      <point x="446" y="32" type="line" smooth="yes"/>
      <point x="379" y="32"/>
      <point x="320" y="102"/>
    </contour>
    <contour>
      <point x="978" y="1149" type="qcurve" smooth="yes"/>
      <point x="1015" y="1149"/>
      <point x="1062" y="1156"/>
      <point x="1090" y="1180"/>
      <point x="1101" y="1227"/>
      <point x="1101" y="1266" type="qcurve" smooth="yes"/>
      <point x="1101" y="1305"/>
      <point x="1090" y="1352"/>
      <point x="1062" y="1376"/>
      <point x="1015" y="1383"/>
      <point x="978" y="1383" type="qcurve" smooth="yes"/>
      <point x="941" y="1383"/>
      <point x="894" y="1376"/>
      <point x="866" y="1352"/>
      <point x="855" y="1305"/>
      <point x="855" y="1266" type="qcurve" smooth="yes"/>
      <point x="855" y="1227"/>
      <point x="866" y="1180"/>
      <point x="894" y="1156"/>
      <point x="941" y="1149"/>
    </contour>
    <contour>
      <point x="978" y="1177" type="qcurve" smooth="yes"/>
      <point x="923" y="1177"/>
      <point x="887" y="1207"/>
      <point x="887" y="1266" type="qcurve" smooth="yes"/>
      <point x="887" y="1325"/>
      <point x="923" y="1355"/>
      <point x="978" y="1355" type="qcurve" smooth="yes"/>
      <point x="1033" y="1355"/>
      <point x="1069" y="1325"/>
      <point x="1069" y="1266" type="qcurve" smooth="yes"/>
      <point x="1069" y="1207"/>
      <point x="1033" y="1177"/>
    </contour>
  </outline>
  <guideline angle="90" color="1,0,0,1" x="1638" y="0"/>
</glyph>
<glyph name="ccedilla" format="2">
  <advance width="1953"/>
  <unicode hex="00E7"/>
  <anchor x="1011" y="1150" name="top"/>
  <anchor x="1011" y="-150" name="bottom"/>
  <outline>
    <contour>
      <point x="294" y="162" type="line" smooth="yes"/>
      <point x="294" y="82.767"/>
      <point x="376.767" y="0"/>
      <point x="456" y="0" type="qcurve" smooth="yes"/>
      <point x="1571" y="0" type="line" smooth="yes"/>
      <point x="1650.23" y="0"/>
      <point x="1732" y="82.767"/>
      <point x="1732" y="162" type="qcurve" smooth="yes"/>
      <point x="1732" y="290" type="line"/>
      <point x="1696" y="300" type="line"/>
      <point x="1696" y="168" type="line" smooth="yes"/>
      <point x="1696" y="101.595"/>
      <point x="1637.4" y="32"/>
      <point x="1571" y="32" type="qcurve" smooth="yes"/>
      <point x="456" y="32" type="line" smooth="yes"/>
      <point x="388.841" y="32"/>
      <point x="330" y="101.595"/>
      <point x="330" y="168" type="qcurve" smooth="yes"/>
      <point x="330" y="832" type="line" smooth="yes"/>
      <point x="330" y="898.405"/>
      <point x="388.841" y="968"/>
      <point x="456" y="968" type="qcurve" smooth="yes"/>
      <point x="1567" y="968" type="line" smooth="yes"/>
      <point x="1633.4" y="968"/>
      <point x="1692" y="898.405"/>
      <point x="1692" y="832" type="qcurve" smooth="yes"/>
      <point x="1692" y="722" type="line"/>
      <point x="1728" y="730" type="line"/>
      <point x="1728" y="838" type="line" smooth="yes"/>
      <point x="1728" y="917.233"/>
      <point x="1646.23" y="1000"/>
      <point x="1567" y="1000" type="qcurve" smooth="yes"/>
      <point x="456" y="1000" type="line" smooth="yes"/>
      <point x="376.767" y="1000"/>
      <point x="294" y="917.233"/>
      <point x="294" y="838" type="qcurve" smooth="yes"/>
    </contour>
    <contour>
      <point x="1000" y="-384" type="qcurve" smooth="yes"/>
      <point x="1050.25" y="-384"/>
      <point x="1129.38" y="-365.75"/>
      <point x="1184.12" y="-329.75"/>
      <point x="1213" y="-276.25"/>
      <point x="1213" y="-241" type="qcurve" smooth="yes"/>
      <point x="1213" y="-203.875"/>
      <point x="1179.28" y="-152.094"/>
      <point x="1117.97" y="-119.656"/>
      <point x="1032.12" y="-105"/>
      <point x="980" y="-105" type="qcurve"/>
      <point x="1041" y="0" type="line"/>
      <point x="1006" y="0" type="line"/>
      <point x="927" y="-139" type="line"/>
      <point x="938.319" y="-137.491"/>
      <point x="963.908" y="-135"/>
      <point x="979" y="-135" type="qcurve" smooth="yes"/>
      <point x="1080.12" y="-135"/>
      <point x="1178" y="-185.896"/>
      <point x="1178" y="-244" type="qcurve" smooth="yes"/>
      <point x="1178" y="-304.368"/>
      <point x="1068.76" y="-354"/>
      <point x="985" y="-354" type="qcurve" smooth="yes"/>
      <point x="938.969" y="-354"/>
      <point x="855.411" y="-335.583"/>
      <point x="829" y="-322" type="qcurve"/>
      <point x="814" y="-344" type="line"/>
      <point x="850.975" y="-364.374"/>
      <point x="941.141" y="-384"/>
    </contour>
  </outline>
</glyph>
<glyph name="edieresis" format="2">
  <advance width="2024"/>
  <unicode hex="00EB"/>
  <anchor x="1013" y="1399" name="top"/>
  <anchor x="1013" y="-150" name="bottom"/>
  <anchor x="1568" y="0" name="ogonek"/>
  <outline>
    <contour>
      <point x="294" y="162" type="line" smooth="yes"/>
      <point x="294" y="82.767"/>
      <point x="376.767" y="0"/>
      <point x="456" y="0" type="qcurve" smooth="yes"/>
      <point x="1569" y="0" type="line" smooth="yes"/>
      <point x="1648.23" y="0"/>
      <point x="1730" y="82.767"/>
      <point x="1730" y="162" type="qcurve" smooth="yes"/>
      <point x="1730" y="250" type="line"/>
      <point x="1694" y="258" type="line"/>
      <point x="1694" y="168" type="line" smooth="yes"/>
      <point x="1694" y="101.595"/>
      <point x="1635.4" y="32"/>
      <point x="1569" y="32" type="qcurve" smooth="yes"/>
      <point x="456" y="32" type="line" smooth="yes"/>
      <point x="388.841" y="32"/>
      <point x="330" y="101.595"/>
      <point x="330" y="168" type="qcurve" smooth="yes"/>
      <point x="330" y="488" type="line"/>
      <point x="1730" y="488" type="line"/>
      <point x="1730" y="838" type="line" smooth="yes"/>
      <point x="1730" y="917.233"/>
      <point x="1648.23" y="1000"/>
      <point x="1569" y="1000" type="qcurve" smooth="yes"/>
      <point x="456" y="1000" type="line" smooth="yes"/>
      <point x="376.767" y="1000"/>
      <point x="294" y="917.233"/>
      <point x="294" y="838" type="qcurve" smooth="yes"/>
    </contour>
    <contour>
      <point x="330" y="520" type="line"/>
      <point x="330" y="832" type="line" smooth="yes"/>
      <point x="330" y="898.405"/>
      <point x="388.841" y="968"/>
      <point x="456" y="968" type="qcurve" smooth="yes"/>
      <point x="1569" y="968" type="line" smooth="yes"/>
      <point x="1635.4" y="968"/>
      <point x="1694" y="898.405"/>
      <point x="1694" y="832" type="qcurve" smooth="yes"/>
      <point x="1694" y="520" type="line"/>
    </contour>
    <contour>
      <point x="752" y="1265" type="line" smooth="yes"/>
      <point x="752" y="1246.13"/>
      <point x="759.135" y="1239"/>
      <point x="778" y="1239" type="qcurve" smooth="yes"/>
      <point x="796" y="1239" type="line" smooth="yes"/>
      <point x="814.865" y="1239"/>
      <point x="822" y="1246.13"/>
      <point x="822" y="1265" type="qcurve" smooth="yes"/>
      <point x="822" y="1283" type="line" smooth="yes"/>
      <point x="822" y="1301.87"/>
      <point x="815.11" y="1309"/>
      <point x="797" y="1309" type="qcurve" smooth="yes"/>
      <point x="778" y="1309" type="line" smooth="yes"/>
      <point x="759.135" y="1309"/>
      <point x="752" y="1301.87"/>
      <point x="752" y="1283" type="qcurve" smooth="yes"/>
    </contour>
    <contour>
      <point x="1204" y="1265" type="line" smooth="yes"/>
      <point x="1204" y="1246.13"/>
      <point x="1211.13" y="1239"/>
      <point x="1230" y="1239" type="qcurve" smooth="yes"/>
      <point x="1248" y="1239" type="line" smooth="yes"/>
      <point x="1266.87" y="1239"/>
      <point x="1274" y="1246.13"/>
      <point x="1274" y="1265" type="qcurve" smooth="yes"/>
      <point x="1274" y="1283" type="line" smooth="yes"/>
      <point x="1274" y="1301.87"/>
      <point x="1267.11" y="1309"/>
      <point x="1249" y="1309" type="qcurve" smooth="yes"/>
      <point x="1230" y="1309" type="line" smooth="yes"/>
      <point x="1211.13" y="1309"/>
      <point x="1204" y="1301.87"/>
      <point x="1204" y="1283" type="qcurve" smooth="yes"/>
    </contour>
  </outline>
  <guideline angle="0" color="1,0,0,1" x="0" y="-1000"/>
</glyph>
<glyph name="igrave" format="2">
  <advance width="688"/>
  <unicode hex="00EC"/>
  <anchor x="344" y="-150" name="bottom"/>
  <anchor x="344" y="1150" name="top"/>
  <anchor x="362" y="0" name="ogonek"/>
  <outline>
    <contour>
      <point x="326" y="0" type="line"/>
      <point x="362" y="0" type="line"/>
      <point x="362" y="1000" type="line"/>
      <point x="326" y="1000" type="line"/>
    </contour>
    <contour>
      <point x="524" y="1085" type="line"/>
      <point x="60" y="1448" type="line"/>
      <point x="-1" y="1448" type="line"/>
      <point x="473" y="1085" type="line"/>
    </contour>
  </outline>
</glyph>
<glyph name="eth" format="2">
  <advance width="2263"/>
  <unicode hex="00F0"/>
  <outline>
    <contour>
      <point x="456" y="0" type="qcurve" smooth="yes"/>
      <point x="1615" y="0" type="line" smooth="yes"/>
      <point x="1694" y="0"/>
      <point x="1776" y="83"/>
      <point x="1776" y="162" type="qcurve" smooth="yes"/>
      <point x="1776" y="667" type="line" smooth="yes"/>
      <point x="1776" y="835"/>
      <point x="1595" y="1157"/>
      <point x="1417" y="1278" type="qcurve"/>
      <point x="1969" y="1377" type="line"/>
      <point x="1964" y="1407" type="line"/>
      <point x="1380" y="1302" type="line"/>
      <point x="1281" y="1362"/>
      <point x="1041" y="1443"/>
      <point x="896" y="1458" type="qcurve"/>
      <point x="822" y="1431" type="line"/>
      <point x="972" y="1421"/>
      <point x="1222" y="1349"/>
      <point x="1324" y="1292" type="qcurve"/>
      <point x="798" y="1197" type="line"/>
      <point x="803" y="1167" type="line"/>
      <point x="1365" y="1268" type="line"/>
      <point x="1455" y="1212"/>
      <point x="1591" y="1076"/>
      <point x="1639" y="1000" type="qcurve"/>
      <point x="456" y="1000" type="line" smooth="yes"/>
      <point x="377" y="1000"/>
      <point x="294" y="917"/>
      <point x="294" y="838" type="qcurve" smooth="yes"/>
      <point x="294" y="162" type="line" smooth="yes"/>
      <point x="294" y="83"/>
      <point x="377" y="0"/>
    </contour>
    <contour>
      <point x="1658" y="968" type="line"/>
      <point x="1699" y="894"/>
      <point x="1740" y="741"/>
      <point x="1740" y="666" type="qcurve" smooth="yes"/>
      <point x="1740" y="168" type="line" smooth="yes"/>
      <point x="1740" y="101"/>
      <point x="1682" y="32"/>
      <point x="1615" y="32" type="qcurve" smooth="yes"/>
      <point x="456" y="32" type="line" smooth="yes"/>
      <point x="389" y="32"/>
      <point x="330" y="101"/>
      <point x="330" y="168" type="qcurve" smooth="yes"/>
      <point x="330" y="832" type="line" smooth="yes"/>
      <point x="330" y="899"/>
      <point x="389" y="968"/>
      <point x="456" y="968" type="qcurve" smooth="yes"/>
    </contour>
  </outline>
</glyph>
<glyph name="oacute" format="2">
  <advance width="2070"/>
  <unicode hex="00F3"/>
  <anchor x="1035" y="1150" name="top"/>
  <anchor x="1035" y="-150" name="bottom"/>
  <anchor x="1776" y="838" name="horn"/>
  <anchor x="1053" y="0" name="ogonek"/>
  <outline>
    <contour>
      <point x="294" y="162" type="line" smooth="yes"/>
      <point x="294" y="82.767"/>
      <point x="376.767" y="0"/>
      <point x="456" y="0" type="qcurve" smooth="yes"/>
      <point x="1615" y="0" type="line" smooth="yes"/>
      <point x="1694.23" y="0"/>
      <point x="1776" y="82.767"/>
      <point x="1776" y="162" type="qcurve" smooth="yes"/>
      <point x="1776" y="838" type="line" smooth="yes"/>
      <point x="1776" y="917.233"/>
      <point x="1694.23" y="1000"/>
      <point x="1615" y="1000" type="qcurve" smooth="yes"/>
      <point x="456" y="1000" type="line" smooth="yes"/>
      <point x="376.767" y="1000"/>
      <point x="294" y="917.233"/>
      <point x="294" y="838" type="qcurve" smooth="yes"/>
    </contour>
    <contour>
      <point x="330" y="168" type="qcurve" smooth="yes"/>
      <point x="330" y="832" type="line" smooth="yes"/>
      <point x="330" y="898.405"/>
      <point x="388.841" y="968"/>
      <point x="456" y="968" type="qcurve" smooth="yes"/>
      <point x="1615" y="968" type="line" smooth="yes"/>
      <point x="1681.4" y="968"/>
      <point x="1740" y="898.405"/>
      <point x="1740" y="832" type="qcurve" smooth="yes"/>
      <point x="1740" y="168" type="line" smooth="yes"/>
      <point x="1740" y="101.595"/>
      <point x="1681.4" y="32"/>
      <point x="1615" y="32" type="qcurve" smooth="yes"/>
      <point x="456" y="32" type="line" smooth="yes"/>
      <point x="388.841" y="32"/>
      <point x="330" y="101.595"/>
    </contour>
    <contour>
      <point x="855" y="1085" type="line"/>
      <point x="906" y="1085" type="line"/>
      <point x="1380" y="1448" type="line"/>
      <point x="1319" y="1448" type="line"/>
    </contour>
  </outline>
</glyph>
<glyph name="odieresis" format="2">
  <advance width="2070"/>
  <unicode hex="00F6"/>
  <anchor x="1035" y="1399" name="top"/>
  <anchor x="1035" y="-150" name="bottom"/>
  <anchor x="1776" y="838" name="horn"/>
  <anchor x="1053" y="0" name="ogonek"/>
  <outline>
    <contour>
      <point x="294" y="162" type="line" smooth="yes"/>
      <point x="294" y="83"/>
      <point x="377" y="0"/>
      <point x="456" y="0" type="qcurve" smooth="yes"/>
      <point x="1615" y="0" type="line" smooth="yes"/>
      <point x="1694" y="0"/>
      <point x="1776" y="83"/>
      <point x="1776" y="162" type="qcurve" smooth="yes"/>
      <point x="1776" y="838" type="line" smooth="yes"/>
      <point x="1776" y="917"/>
      <point x="1694" y="1000"/>
      <point x="1615" y="1000" type="qcurve" smooth="yes"/>
      <point x="456" y="1000" type="line" smooth="yes"/>
      <point x="377" y="1000"/>
      <point x="294" y="917"/>
      <point x="294" y="838" type="qcurve" smooth="yes"/>
    </contour>
    <contour>
      <point x="330" y="168" type="qcurve" smooth="yes"/>
      <point x="330" y="832" type="line" smooth="yes"/>
      <point x="330" y="898"/>
      <point x="389" y="968"/>
      <point x="456" y="968" type="qcurve" smooth="yes"/>
      <point x="1615" y="968" type="line" smooth="yes"/>
      <point x="1681" y="968"/>
      <point x="1740" y="898"/>
      <point x="1740" y="832" type="qcurve" smooth="yes"/>
      <point x="1740" y="168" type="line" smooth="yes"/>
      <point x="1740" y="102"/>
      <point x="1681" y="32"/>
      <point x="1615" y="32" type="qcurve" smooth="yes"/>
      <point x="456" y="32" type="line" smooth="yes"/>
      <point x="389" y="32"/>
      <point x="330" y="102"/>
    </contour>
    <contour>
      <point x="800" y="1239" type="qcurve" smooth="yes"/>
      <point x="818" y="1239" type="line" smooth="yes"/>
      <point x="837" y="1239"/>
      <point x="844" y="1246"/>
      <point x="844" y="1265" type="qcurve" smooth="yes"/>
      <point x="844" y="1283" type="line" smooth="yes"/>
      <point x="844" y="1302"/>
      <point x="837" y="1309"/>
      <point x="819" y="1309" type="qcurve" smooth="yes"/>
      <point x="800" y="1309" type="line" smooth="yes"/>
      <point x="781" y="1309"/>
      <point x="774" y="1302"/>
      <point x="774" y="1283" type="qcurve" smooth="yes"/>
      <point x="774" y="1265" type="line" smooth="yes"/>
      <point x="774" y="1246"/>
      <point x="781" y="1239"/>
    </contour>
    <contour>
      <point x="1252" y="1239" type="qcurve" smooth="yes"/>
      <point x="1270" y="1239" type="line" smooth="yes"/>
      <point x="1289" y="1239"/>
      <point x="1296" y="1246"/>
      <point x="1296" y="1265" type="qcurve" smooth="yes"/>
      <point x="1296" y="1283" type="line" smooth="yes"/>
      <point x="1296" y="1302"/>
      <point x="1289" y="1309"/>
      <point x="1271" y="1309" type="qcurve" smooth="yes"/>
      <point x="1252" y="1309" type="line" smooth="yes"/>
      <point x="1233" y="1309"/>
      <point x="1226" y="1302"/>
      <point x="1226" y="1283" type="qcurve" smooth="yes"/>
      <point x="1226" y="1265" type="line" smooth="yes"/>
      <point x="1226" y="1246"/>
      <point x="1233" y="1239"/>
    </contour>
  </outline>
</glyph>
<glyph name="ugrave" format="2">
  <advance width="2023"/>
  <unicode hex="00F9"/>
  <anchor x="1012" y="1150" name="top"/>
  <anchor x="1012" y="-150" name="bottom"/>
  <anchor x="1030" y="0" name="ogonek"/>
  <anchor x="1713" y="1000" name="horn"/>
  <outline>
    <contour>
      <point x="306" y="162" type="line" smooth="yes"/>
      <point x="306" y="82.767"/>
      <point x="388.767" y="0"/>
      <point x="468" y="0" type="qcurve" smooth="yes"/>
      <point x="1547" y="0" type="line" smooth="yes"/>
      <point x="1626.23" y="0"/>
      <point x="1709" y="82.767"/>
      <point x="1709" y="162" type="qcurve" smooth="yes"/>
      <point x="1709" y="1000" type="line"/>
      <point x="1673" y="1000" type="line"/>
      <point x="1673" y="168" type="line" smooth="yes"/>
      <point x="1673" y="101.595"/>
      <point x="1613.4" y="32"/>
      <point x="1547" y="32" type="qcurve" smooth="yes"/>
      <point x="468" y="32" type="line" smooth="yes"/>
      <point x="401.595" y="32"/>
      <point x="342" y="101.595"/>
      <point x="342" y="168" type="qcurve" smooth="yes"/>
      <point x="342" y="1000" type="line"/>
      <point x="306" y="1000" type="line"/>
    </contour>
    <contour>
      <point x="1141" y="1085" type="line"/>
      <point x="1192" y="1085" type="line"/>
      <point x="728" y="1448" type="line"/>
      <point x="667" y="1448" type="line"/>
    </contour>
  </outline>
</glyph>
<glyph name="ucircumflex" format="2">
  <advance width="2023"/>
  <unicode hex="00FB"/>
  <anchor x="1012" y="1538" name="top"/>
  <anchor x="1012" y="-150" name="bottom"/>
  <anchor x="1030" y="0" name="ogonek"/>
  <anchor x="1713" y="1000" name="horn"/>
  <anchor x="1475" y="1267" name="topright"/>
  <outline>
    <contour>
      <point x="306" y="162" type="line" smooth="yes"/>
      <point x="306" y="82.767"/>
      <point x="388.767" y="0"/>
      <point x="468" y="0" type="qcurve" smooth="yes"/>
      <point x="1547" y="0" type="line" smooth="yes"/>
      <point x="1626.23" y="0"/>
      <point x="1709" y="82.767"/>
      <point x="1709" y="162" type="qcurve" smooth="yes"/>
      <point x="1709" y="1000" type="line"/>
      <point x="1673" y="1000" type="line"/>
      <point x="1673" y="168" type="line" smooth="yes"/>
      <point x="1673" y="101.595"/>
      <point x="1613.4" y="32"/>
      <point x="1547" y="32" type="qcurve" smooth="yes"/>
      <point x="468" y="32" type="line" smooth="yes"/>
      <point x="401.595" y="32"/>
      <point x="342" y="101.595"/>
      <point x="342" y="168" type="qcurve" smooth="yes"/>
      <point x="342" y="1000" type="line"/>
      <point x="306" y="1000" type="line"/>
    </contour>
    <contour>
      <point x="549" y="1095" type="line"/>
      <point x="601" y="1095" type="line"/>
      <point x="1012" y="1412" type="line"/>
      <point x="1423" y="1095" type="line"/>
      <point x="1475" y="1095" type="line"/>
      <point x="1028" y="1438" type="line"/>
      <point x="996" y="1438" type="line"/>
    </contour>
  </outline>
</glyph>
<glyph name="udieresis" format="2">
  <advance width="2023"/>
  <unicode hex="00FC"/>
  <anchor x="1012" y="1399" name="top"/>
  <anchor x="1012" y="-150" name="bottom"/>
  <anchor x="1030" y="0" name="ogonek"/>
  <anchor x="1713" y="1000" name="horn"/>
  <outline>
    <contour>
      <point x="310" y="162" type="line" smooth="yes"/>
      <point x="310" y="83"/>
      <point x="393" y="0"/>
      <point x="472" y="0" type="qcurve" smooth="yes"/>
      <point x="1551" y="0" type="line" smooth="yes"/>
      <point x="1630" y="0"/>
      <point x="1713" y="83"/>
      <point x="1713" y="162" type="qcurve" smooth="yes"/>
      <point x="1713" y="1000" type="line"/>
      <point x="1677" y="1000" type="line"/>
      <point x="1677" y="168" type="line" smooth="yes"/>
      <point x="1677" y="102"/>
      <point x="1617" y="32"/>
      <point x="1551" y="32" type="qcurve" smooth="yes"/>
      <point x="472" y="32" type="line" smooth="yes"/>
      <point x="406" y="32"/>
      <point x="346" y="102"/>
      <point x="346" y="168" type="qcurve" smooth="yes"/>
      <point x="346" y="1000" type="line"/>
      <point x="310" y="1000" type="line"/>
    </contour>
    <contour>
      <point x="777" y="1239" type="qcurve" smooth="yes"/>
      <point x="795" y="1239" type="line" smooth="yes"/>
      <point x="814" y="1239"/>
      <point x="821" y="1246"/>
      <point x="821" y="1265" type="qcurve" smooth="yes"/>
      <point x="821" y="1283" type="line" smooth="yes"/>
      <point x="821" y="1302"/>
      <point x="814" y="1309"/>
      <point x="796" y="1309" type="qcurve" smooth="yes"/>
      <point x="777" y="1309" type="line" smooth="yes"/>
      <point x="758" y="1309"/>
      <point x="751" y="1302"/>
      <point x="751" y="1283" type="qcurve" smooth="yes"/>
      <point x="751" y="1265" type="line" smooth="yes"/>
      <point x="751" y="1246"/>
      <point x="758" y="1239"/>
    </contour>
    <contour>
      <point x="1229" y="1239" type="qcurve" smooth="yes"/>
      <point x="1247" y="1239" type="line" smooth="yes"/>
      <point x="1266" y="1239"/>
      <point x="1273" y="1246"/>
      <point x="1273" y="1265" type="qcurve" smooth="yes"/>
      <point x="1273" y="1283" type="line" smooth="yes"/>
      <point x="1273" y="1302"/>
      <point x="1266" y="1309"/>
      <point x="1248" y="1309" type="qcurve" smooth="yes"/>
      <point x="1229" y="1309" type="line" smooth="yes"/>
      <point x="1210" y="1309"/>
      <point x="1203" y="1302"/>
      <point x="1203" y="1283" type="qcurve" smooth="yes"/>
      <point x="1203" y="1265" type="line" smooth="yes"/>
      <point x="1203" y="1246"/>
      <point x="1210" y="1239"/>
    </contour>
  </outline>
</glyph>
<glyph name="yacute" format="2">
  <advance width="1687"/>
  <unicode hex="00FD"/>
  <anchor x="943" y="1150" name="top"/>
  <anchor x="1237" y="-350" name="bottom"/>
  <outline>
    <contour>
      <point x="38" y="-428" type="line"/>
      <point x="355" y="-428" type="line" smooth="yes"/>
      <point x="405.25" y="-428"/>
      <point x="478.438" y="-417.719"/>
      <point x="538.062" y="-390.531"/>
      <point x="591" y="-343.125"/>
      <point x="621" y="-306" type="qcurve" smooth="yes"/>
      <point x="1687" y="1000" type="line"/>
      <point x="1645" y="1000" type="line"/>
      <point x="855" y="33" type="line"/>
      <point x="47" y="1000" type="line"/>
      <point x="0" y="1000" type="line"/>
      <point x="831" y="3" type="line"/>
      <point x="593" y="-289" type="line" smooth="yes"/>
      <point x="538.669" y="-355.405"/>
      <point x="450.552" y="-396"/>
      <point x="360" y="-396" type="qcurve" smooth="yes"/>
      <point x="31" y="-396" type="line"/>
    </contour>
    <contour>
      <point x="763" y="1085" type="line"/>
      <point x="814" y="1085" type="line"/>
      <point x="1288" y="1448" type="line"/>
      <point x="1227" y="1448" type="line"/>
    </contour>
  </outline>
</glyph>
<glyph name="thorn" format="2">
  <advance width="2088"/>
  <unicode hex="00FE"/>
  <outline>
    <contour>
      <point x="326" y="-428" type="line"/>
      <point x="362" y="-428" type="line"/>
      <point x="362" y="16" type="line"/>
      <point x="369.546" y="8.454"/>
      <point x="398.344" y="0"/>
      <point x="424" y="0" type="qcurve" smooth="yes"/>
      <point x="1632" y="0" type="line" smooth="yes"/>
      <point x="1711.23" y="0"/>
      <point x="1794" y="82.767"/>
      <point x="1794" y="162" type="qcurve" smooth="yes"/>
      <point x="1794" y="838" type="line" smooth="yes"/>
      <point x="1794" y="917.233"/>
      <point x="1711.23" y="1000"/>
      <point x="1632" y="1000" type="qcurve" smooth="yes"/>
      <point x="422" y="1000" type="line" smooth="yes"/>
      <point x="396.344" y="1000"/>
      <point x="368.037" y="991.546"/>
      <point x="362" y="984" type="qcurve"/>
      <point x="362" y="1448" type="line"/>
      <point x="326" y="1448" type="line"/>
    </contour>
    <contour>
      <point x="362" y="32" type="line"/>
      <point x="362" y="968" type="line"/>
      <point x="1632" y="968" type="line" smooth="yes"/>
      <point x="1699.16" y="968"/>
      <point x="1758" y="898.405"/>
      <point x="1758" y="832" type="qcurve" smooth="yes"/>
      <point x="1758" y="168" type="line" smooth="yes"/>
      <point x="1758" y="101.595"/>
      <point x="1699.16" y="32"/>
      <point x="1632" y="32" type="qcurve" smooth="yes"/>
    </contour>
  </outline>
  <guideline angle="0" x="0" y="988"/>
  <guideline angle="0" x="0" y="42"/>
</glyph>
<glyph name="ydieresis" format="2">
  <advance width="1687"/>
  <unicode hex="00FF"/>
  <anchor x="943" y="1399" name="top"/>
  <anchor x="1237" y="-350" name="bottom"/>
  <outline>
    <contour>
      <point x="38" y="-428" type="line"/>
      <point x="355" y="-428" type="line" smooth="yes"/>
      <point x="405.25" y="-428"/>
      <point x="478.438" y="-417.719"/>
      <point x="538.062" y="-390.531"/>
      <point x="591" y="-343.125"/>
      <point x="621" y="-306" type="qcurve" smooth="yes"/>
      <point x="1687" y="1000" type="line"/>
      <point x="1645" y="1000" type="line"/>
      <point x="855" y="33" type="line"/>
      <point x="47" y="1000" type="line"/>
      <point x="0" y="1000" type="line"/>
      <point x="831" y="3" type="line"/>
      <point x="593" y="-289" type="line" smooth="yes"/>
      <point x="538.669" y="-355.405"/>
      <point x="450.552" y="-396"/>
      <point x="360" y="-396" type="qcurve" smooth="yes"/>
      <point x="31" y="-396" type="line"/>
    </contour>
    <contour>
      <point x="682" y="1265" type="line" smooth="yes"/>
      <point x="682" y="1246.13"/>
      <point x="689.135" y="1239"/>
      <point x="708" y="1239" type="qcurve" smooth="yes"/>
      <point x="726" y="1239" type="line" smooth="yes"/>
      <point x="744.865" y="1239"/>
      <point x="752" y="1246.13"/>
      <point x="752" y="1265" type="qcurve" smooth="yes"/>
      <point x="752" y="1283" type="line" smooth="yes"/>
      <point x="752" y="1301.87"/>
      <point x="745.11" y="1309"/>
      <point x="727" y="1309" type="qcurve" smooth="yes"/>
      <point x="708" y="1309" type="line" smooth="yes"/>
      <point x="689.135" y="1309"/>
      <point x="682" y="1301.87"/>
      <point x="682" y="1283" type="qcurve" smooth="yes"/>
    </contour>
    <contour>
      <point x="1134" y="1265" type="line" smooth="yes"/>
      <point x="1134" y="1246.13"/>
      <point x="1141.13" y="1239"/>
      <point x="1160" y="1239" type="qcurve" smooth="yes"/>
      <point x="1178" y="1239" type="line" smooth="yes"/>
      <point x="1196.87" y="1239"/>
      <point x="1204" y="1246.13"/>
      <point x="1204" y="1265" type="qcurve" smooth="yes"/>
      <point x="1204" y="1283" type="line" smooth="yes"/>
      <point x="1204" y="1301.87"/>
      <point x="1197.11" y="1309"/>
      <point x="1179" y="1309" type="qcurve" smooth="yes"/>
      <point x="1160" y="1309" type="line" smooth="yes"/>
      <point x="1141.13" y="1309"/>
      <point x="1134" y="1301.87"/>
      <point x="1134" y="1283" type="qcurve" smooth="yes"/>
    </contour>
  </outline>
</glyph>
<glyph name="abreve" format="2">
  <advance width="1984"/>
  <unicode hex="0103"/>
  <anchor x="978" y="1518" name="top"/>
  <anchor x="1041" y="-150" name="bottom"/>
  <anchor x="1674" y="0" name="ogonek"/>
  <outline>
    <contour>
      <point x="446" y="0" type="qcurve" smooth="yes"/>
      <point x="1592" y="0" type="line" smooth="yes"/>
      <point x="1609" y="0"/>
      <point x="1630" y="12"/>
      <point x="1638" y="26" type="qcurve"/>
      <point x="1638" y="0" type="line"/>
      <point x="1674" y="0" type="line"/>
      <point x="1674" y="838" type="line" smooth="yes"/>
      <point x="1674" y="917"/>
      <point x="1592" y="1000"/>
      <point x="1513" y="1000" type="qcurve" smooth="yes"/>
      <point x="458" y="1000" type="line" smooth="yes"/>
      <point x="379" y="1000"/>
      <point x="296" y="917"/>
      <point x="296" y="838" type="qcurve" smooth="yes"/>
      <point x="296" y="750" type="line"/>
      <point x="332" y="742" type="line"/>
      <point x="332" y="832" type="line" smooth="yes"/>
      <point x="332" y="898"/>
      <point x="391" y="968"/>
      <point x="458" y="968" type="qcurve" smooth="yes"/>
      <point x="1513" y="968" type="line" smooth="yes"/>
      <point x="1579" y="968"/>
      <point x="1638" y="898"/>
      <point x="1638" y="832" type="qcurve" smooth="yes"/>
      <point x="1638" y="592" type="line"/>
      <point x="446" y="592" type="line" smooth="yes"/>
      <point x="367" y="592"/>
      <point x="284" y="509"/>
      <point x="284" y="430" type="qcurve" smooth="yes"/>
      <point x="284" y="162" type="line" smooth="yes"/>
      <point x="284" y="83"/>
      <point x="367" y="0"/>
    </contour>
    <contour>
      <point x="320" y="168" type="qcurve" smooth="yes"/>
      <point x="320" y="424" type="line" smooth="yes"/>
      <point x="320" y="490"/>
      <point x="379" y="560"/>
      <point x="446" y="560" type="qcurve" smooth="yes"/>
      <point x="1638" y="560" type="line"/>
      <point x="1638" y="32" type="line"/>
      <point x="446" y="32" type="line" smooth="yes"/>
      <point x="379" y="32"/>
      <point x="320" y="102"/>
    </contour>
    <contour>
      <point x="978" y="1144" type="qcurve" smooth="yes"/>
      <point x="1067" y="1144"/>
      <point x="1176" y="1164"/>
      <point x="1234" y="1222"/>
      <point x="1253" y="1330"/>
      <point x="1253" y="1418" type="qcurve"/>
      <point x="1223" y="1418" type="line"/>
      <point x="1223" y="1335"/>
      <point x="1206" y="1238"/>
      <point x="1154" y="1189"/>
      <point x="1058" y="1176"/>
      <point x="978" y="1176" type="qcurve" smooth="yes"/>
      <point x="898" y="1176"/>
      <point x="802" y="1189"/>
      <point x="750" y="1238"/>
      <point x="733" y="1335"/>
      <point x="733" y="1418" type="qcurve"/>
      <point x="703" y="1418" type="line"/>
      <point x="703" y="1330"/>
      <point x="722" y="1222"/>
      <point x="781" y="1164"/>
      <point x="889" y="1144"/>
    </contour>
  </outline>
  <guideline angle="90" color="1,0,0,1" x="1638" y="0"/>
</glyph>
<glyph name="Aogonek" format="2">
  <advance width="2470"/>
  <unicode hex="0104"/>
  <anchor x="1232" y="1550" name="top"/>
  <anchor x="1236" y="-150" name="bottom"/>
  <anchor x="2414" y="0" name="ogonek_in"/>
  <outline>
    <contour>
      <point x="0" y="0" type="line"/>
      <point x="48" y="0" type="line"/>
      <point x="387" y="388" type="line"/>
      <point x="2075" y="388" type="line"/>
      <point x="2414" y="0" type="line"/>
      <point x="2470" y="0" type="line"/>
      <point x="1241" y="1400" type="line"/>
      <point x="1223" y="1400" type="line"/>
    </contour>
    <contour>
      <point x="418" y="424" type="line"/>
      <point x="1231" y="1354" type="line"/>
      <point x="2044" y="424" type="line"/>
    </contour>
    <contour>
      <point x="2339.7" y="-359" type="qcurve" smooth="yes"/>
      <point x="2372.9" y="-359"/>
      <point x="2429.2" y="-342.847"/>
      <point x="2454.1" y="-327" type="qcurve"/>
      <point x="2454.1" y="-297" type="line"/>
      <point x="2420.9" y="-315.11"/>
      <point x="2369" y="-329"/>
      <point x="2344.1" y="-329" type="qcurve" smooth="yes"/>
      <point x="2292.64" y="-329"/>
      <point x="2230.8" y="-280.031"/>
      <point x="2230.8" y="-234" type="qcurve" smooth="yes"/>
      <point x="2230.8" y="-175.141"/>
      <point x="2342.04" y="-58.8588"/>
      <point x="2454.1" y="0" type="qcurve"/>
      <point x="2414.5" y="0" type="line"/>
      <point x="2307.42" y="-54.3312"/>
      <point x="2194.5" y="-179.614"/>
      <point x="2194.5" y="-243" type="qcurve" smooth="yes"/>
      <point x="2194.5" y="-298.84"/>
      <point x="2274.96" y="-359"/>
    </contour>
  </outline>
</glyph>
<glyph name="aogonek" format="2">
  <advance width="1984"/>
  <unicode hex="0105"/>
  <anchor x="978" y="1150" name="top"/>
  <anchor x="1041" y="-150" name="bottom"/>
  <anchor x="1674" y="0" name="ogonek"/>
  <outline>
    <contour>
      <point x="446" y="0" type="qcurve" smooth="yes"/>
      <point x="1592" y="0" type="line" smooth="yes"/>
      <point x="1609" y="0"/>
      <point x="1630" y="12"/>
      <point x="1638" y="26" type="qcurve"/>
      <point x="1638" y="0" type="line"/>
      <point x="1674" y="0" type="line"/>
      <point x="1674" y="838" type="line" smooth="yes"/>
      <point x="1674" y="917"/>
      <point x="1592" y="1000"/>
      <point x="1513" y="1000" type="qcurve" smooth="yes"/>
      <point x="458" y="1000" type="line" smooth="yes"/>
      <point x="379" y="1000"/>
      <point x="296" y="917"/>
      <point x="296" y="838" type="qcurve" smooth="yes"/>
      <point x="296" y="750" type="line"/>
      <point x="332" y="742" type="line"/>
      <point x="332" y="832" type="line" smooth="yes"/>
      <point x="332" y="898"/>
      <point x="391" y="968"/>
      <point x="458" y="968" type="qcurve" smooth="yes"/>
      <point x="1513" y="968" type="line" smooth="yes"/>
      <point x="1579" y="968"/>
      <point x="1638" y="898"/>
      <point x="1638" y="832" type="qcurve" smooth="yes"/>
      <point x="1638" y="592" type="line"/>
      <point x="446" y="592" type="line" smooth="yes"/>
      <point x="367" y="592"/>
      <point x="284" y="509"/>
      <point x="284" y="430" type="qcurve" smooth="yes"/>
      <point x="284" y="162" type="line" smooth="yes"/>
      <point x="284" y="83"/>
      <point x="367" y="0"/>
    </contour>
    <contour>
      <point x="320" y="168" type="qcurve" smooth="yes"/>
      <point x="320" y="424" type="line" smooth="yes"/>
      <point x="320" y="490"/>
      <point x="379" y="560"/>
      <point x="446" y="560" type="qcurve" smooth="yes"/>
      <point x="1638" y="560" type="line"/>
      <point x="1638" y="32" type="line"/>
      <point x="446" y="32" type="line" smooth="yes"/>
      <point x="379" y="32"/>
      <point x="320" y="102"/>
    </contour>
    <contour>
      <point x="1570.1" y="-359" type="qcurve" smooth="yes"/>
      <point x="1600" y="-359"/>
      <point x="1651" y="-343"/>
      <point x="1674" y="-327" type="qcurve"/>
      <point x="1674" y="-297" type="line"/>
      <point x="1644" y="-315"/>
      <point x="1596" y="-329"/>
      <point x="1573" y="-329" type="qcurve" smooth="yes"/>
      <point x="1525" y="-329"/>
      <point x="1471" y="-280"/>
      <point x="1471" y="-235" type="qcurve" smooth="yes"/>
      <point x="1471" y="-176"/>
      <point x="1571" y="-59"/>
      <point x="1674" y="0" type="qcurve"/>
      <point x="1638" y="0" type="line"/>
      <point x="1547" y="-51"/>
      <point x="1438" y="-175"/>
      <point x="1438" y="-241" type="qcurve" smooth="yes"/>
      <point x="1438" y="-294"/>
      <point x="1510" y="-359"/>
    </contour>
  </outline>
  <guideline angle="90" color="1,0,0,1" x="1638" y="0"/>
</glyph>
<glyph name="Cacute" format="2">
  <advance width="2756"/>
  <unicode hex="0106"/>
  <anchor x="1388" y="1550" name="top"/>
  <anchor x="1388" y="-150" name="bottom"/>
  <anchor x="1388" y="0" name="ogrev"/>
  <anchor x="1246" y="1485" name="topright"/>
  <outline>
    <contour>
      <point x="334" y="1100" type="qcurve" smooth="yes"/>
      <point x="334" y="300" type="line" smooth="yes"/>
      <point x="334" y="154.362"/>
      <point x="488.362" y="0"/>
      <point x="634" y="0" type="qcurve" smooth="yes"/>
      <point x="2142" y="0" type="line" smooth="yes"/>
      <point x="2287.64" y="0"/>
      <point x="2442" y="154.362"/>
      <point x="2442" y="300" type="qcurve" smooth="yes"/>
      <point x="2442" y="512" type="line"/>
      <point x="2402" y="520" type="line"/>
      <point x="2402" y="298" type="line" smooth="yes"/>
      <point x="2402" y="169.718"/>
      <point x="2268.28" y="36"/>
      <point x="2140" y="36" type="qcurve" smooth="yes"/>
      <point x="636" y="36" type="line" smooth="yes"/>
      <point x="507.718" y="36"/>
      <point x="374" y="169.718"/>
      <point x="374" y="298" type="qcurve" smooth="yes"/>
      <point x="374" y="1102" type="line" smooth="yes"/>
      <point x="374" y="1230.28"/>
      <point x="507.718" y="1364"/>
      <point x="636" y="1364" type="qcurve" smooth="yes"/>
      <point x="2140" y="1364" type="line" smooth="yes"/>
      <point x="2268.28" y="1364"/>
      <point x="2402" y="1230.28"/>
      <point x="2402" y="1102" type="qcurve" smooth="yes"/>
      <point x="2402" y="906" type="line"/>
      <point x="2442" y="914" type="line"/>
      <point x="2442" y="1100" type="line" smooth="yes"/>
      <point x="2442" y="1244.75"/>
      <point x="2286.75" y="1400"/>
      <point x="2142" y="1400" type="qcurve" smooth="yes"/>
      <point x="634" y="1400" type="line" smooth="yes"/>
      <point x="489.25" y="1400"/>
      <point x="334" y="1244.75"/>
    </contour>
    <contour>
      <point x="1206" y="1485" type="line"/>
      <point x="1264" y="1485" type="line"/>
      <point x="1733" y="1800" type="line"/>
      <point x="1664" y="1800" type="line"/>
    </contour>
  </outline>
</glyph>
<glyph name="cacute" format="2">
  <advance width="1953"/>
  <unicode hex="0107"/>
  <anchor x="1011" y="1150" name="top"/>
  <anchor x="1011" y="-150" name="bottom"/>
  <outline>
    <contour>
      <point x="294" y="162" type="line" smooth="yes"/>
      <point x="294" y="83"/>
      <point x="377" y="0"/>
      <point x="456" y="0" type="qcurve" smooth="yes"/>
      <point x="1571" y="0" type="line" smooth="yes"/>
      <point x="1650" y="0"/>
      <point x="1732" y="83"/>
      <point x="1732" y="162" type="qcurve" smooth="yes"/>
      <point x="1732" y="290" type="line"/>
      <point x="1696" y="300" type="line"/>
      <point x="1696" y="168" type="line" smooth="yes"/>
      <point x="1696" y="102"/>
      <point x="1637" y="32"/>
      <point x="1571" y="32" type="qcurve" smooth="yes"/>
      <point x="456" y="32" type="line" smooth="yes"/>
      <point x="389" y="32"/>
      <point x="330" y="102"/>
      <point x="330" y="168" type="qcurve" smooth="yes"/>
      <point x="330" y="832" type="line" smooth="yes"/>
      <point x="330" y="898"/>
      <point x="389" y="968"/>
      <point x="456" y="968" type="qcurve" smooth="yes"/>
      <point x="1567" y="968" type="line" smooth="yes"/>
      <point x="1633" y="968"/>
      <point x="1692" y="898"/>
      <point x="1692" y="832" type="qcurve" smooth="yes"/>
      <point x="1692" y="722" type="line"/>
      <point x="1728" y="730" type="line"/>
      <point x="1728" y="838" type="line" smooth="yes"/>
      <point x="1728" y="917"/>
      <point x="1646" y="1000"/>
      <point x="1567" y="1000" type="qcurve" smooth="yes"/>
      <point x="456" y="1000" type="line" smooth="yes"/>
      <point x="377" y="1000"/>
      <point x="294" y="917"/>
      <point x="294" y="838" type="qcurve" smooth="yes"/>
    </contour>
    <contour>
      <point x="831" y="1085" type="line"/>
      <point x="882" y="1085" type="line"/>
      <point x="1356" y="1448" type="line"/>
      <point x="1295" y="1448" type="line"/>
    </contour>
  </outline>
</glyph>
<glyph name="ccircumflex" format="2">
  <advance width="1953"/>
  <unicode hex="0109"/>
  <anchor x="1011" y="1538" name="top"/>
  <anchor x="1011" y="-150" name="bottom"/>
  <anchor x="1474" y="1267" name="topright"/>
  <outline>
    <contour>
      <point x="294" y="162" type="line" smooth="yes"/>
      <point x="294" y="83"/>
      <point x="377" y="0"/>
      <point x="456" y="0" type="qcurve" smooth="yes"/>
      <point x="1571" y="0" type="line" smooth="yes"/>
      <point x="1650" y="0"/>
      <point x="1732" y="83"/>
      <point x="1732" y="162" type="qcurve" smooth="yes"/>
      <point x="1732" y="290" type="line"/>
      <point x="1696" y="300" type="line"/>
      <point x="1696" y="168" type="line" smooth="yes"/>
      <point x="1696" y="102"/>
      <point x="1637" y="32"/>
      <point x="1571" y="32" type="qcurve" smooth="yes"/>
      <point x="456" y="32" type="line" smooth="yes"/>
      <point x="389" y="32"/>
      <point x="330" y="102"/>
      <point x="330" y="168" type="qcurve" smooth="yes"/>
      <point x="330" y="832" type="line" smooth="yes"/>
      <point x="330" y="898"/>
      <point x="389" y="968"/>
      <point x="456" y="968" type="qcurve" smooth="yes"/>
      <point x="1567" y="968" type="line" smooth="yes"/>
      <point x="1633" y="968"/>
      <point x="1692" y="898"/>
      <point x="1692" y="832" type="qcurve" smooth="yes"/>
      <point x="1692" y="722" type="line"/>
      <point x="1728" y="730" type="line"/>
      <point x="1728" y="838" type="line" smooth="yes"/>
      <point x="1728" y="917"/>
      <point x="1646" y="1000"/>
      <point x="1567" y="1000" type="qcurve" smooth="yes"/>
      <point x="456" y="1000" type="line" smooth="yes"/>
      <point x="377" y="1000"/>
      <point x="294" y="917"/>
      <point x="294" y="838" type="qcurve" smooth="yes"/>
    </contour>
    <contour>
      <point x="548" y="1095" type="line"/>
      <point x="600" y="1095" type="line"/>
      <point x="1011" y="1412" type="line"/>
      <point x="1422" y="1095" type="line"/>
      <point x="1474" y="1095" type="line"/>
      <point x="1027" y="1438" type="line"/>
      <point x="995" y="1438" type="line"/>
    </contour>
  </outline>
</glyph>
<glyph name="cdotaccent" format="2">
  <advance width="1952"/>
  <unicode hex="010B"/>
  <anchor x="1011" y="1399" name="top"/>
  <anchor x="1011" y="-150" name="bottom"/>
  <outline>
    <contour>
      <point x="294" y="162" type="line" smooth="yes"/>
      <point x="294" y="83"/>
      <point x="377" y="0"/>
      <point x="456" y="0" type="qcurve" smooth="yes"/>
      <point x="1571" y="0" type="line" smooth="yes"/>
      <point x="1650" y="0"/>
      <point x="1732" y="83"/>
      <point x="1732" y="162" type="qcurve" smooth="yes"/>
      <point x="1732" y="290" type="line"/>
      <point x="1696" y="300" type="line"/>
      <point x="1696" y="168" type="line" smooth="yes"/>
      <point x="1696" y="102"/>
      <point x="1637" y="32"/>
      <point x="1571" y="32" type="qcurve" smooth="yes"/>
      <point x="456" y="32" type="line" smooth="yes"/>
      <point x="389" y="32"/>
      <point x="330" y="102"/>
      <point x="330" y="168" type="qcurve" smooth="yes"/>
      <point x="330" y="832" type="line" smooth="yes"/>
      <point x="330" y="898"/>
      <point x="389" y="968"/>
      <point x="456" y="968" type="qcurve" smooth="yes"/>
      <point x="1567" y="968" type="line" smooth="yes"/>
      <point x="1633" y="968"/>
      <point x="1692" y="898"/>
      <point x="1692" y="832" type="qcurve" smooth="yes"/>
      <point x="1692" y="722" type="line"/>
      <point x="1728" y="730" type="line"/>
      <point x="1728" y="838" type="line" smooth="yes"/>
      <point x="1728" y="917"/>
      <point x="1646" y="1000"/>
      <point x="1567" y="1000" type="qcurve" smooth="yes"/>
      <point x="456" y="1000" type="line" smooth="yes"/>
      <point x="377" y="1000"/>
      <point x="294" y="917"/>
      <point x="294" y="838" type="qcurve" smooth="yes"/>
    </contour>
    <contour>
      <point x="995" y="1239" type="qcurve" smooth="yes"/>
      <point x="1027" y="1239" type="line" smooth="yes"/>
      <point x="1045" y="1239"/>
      <point x="1051" y="1245"/>
      <point x="1051" y="1263" type="qcurve" smooth="yes"/>
      <point x="1051" y="1295" type="line" smooth="yes"/>
      <point x="1051" y="1313"/>
      <point x="1045" y="1319"/>
      <point x="1027" y="1319" type="qcurve" smooth="yes"/>
      <point x="995" y="1319" type="line" smooth="yes"/>
      <point x="977" y="1319"/>
      <point x="971" y="1313"/>
      <point x="971" y="1295" type="qcurve" smooth="yes"/>
      <point x="971" y="1263" type="line" smooth="yes"/>
      <point x="971" y="1245"/>
      <point x="977" y="1239"/>
    </contour>
  </outline>
</glyph>
<glyph name="Ccaron" format="2">
  <advance width="2516"/>
  <unicode hex="010C"/>
  <anchor x="1268" y="1880" name="top"/>
  <anchor x="1268" y="-150" name="bottom"/>
  <anchor x="772" y="1700" name="topright"/>
  <outline>
    <contour>
      <point x="334" y="1100" type="qcurve" smooth="yes"/>
      <point x="334" y="300" type="line" smooth="yes"/>
      <point x="334" y="154"/>
      <point x="488" y="0"/>
      <point x="634" y="0" type="qcurve" smooth="yes"/>
      <point x="2142" y="0" type="line" smooth="yes"/>
      <point x="2288" y="0"/>
      <point x="2442" y="154"/>
      <point x="2442" y="300" type="qcurve" smooth="yes"/>
      <point x="2442" y="512" type="line"/>
      <point x="2402" y="520" type="line"/>
      <point x="2402" y="298" type="line" smooth="yes"/>
      <point x="2402" y="170"/>
      <point x="2268" y="36"/>
      <point x="2140" y="36" type="qcurve" smooth="yes"/>
      <point x="636" y="36" type="line" smooth="yes"/>
      <point x="508" y="36"/>
      <point x="374" y="170"/>
      <point x="374" y="298" type="qcurve" smooth="yes"/>
      <point x="374" y="1102" type="line" smooth="yes"/>
      <point x="374" y="1230"/>
      <point x="508" y="1364"/>
      <point x="636" y="1364" type="qcurve" smooth="yes"/>
      <point x="2140" y="1364" type="line" smooth="yes"/>
      <point x="2268" y="1364"/>
      <point x="2402" y="1230"/>
      <point x="2402" y="1102" type="qcurve" smooth="yes"/>
      <point x="2402" y="906" type="line"/>
      <point x="2442" y="914" type="line"/>
      <point x="2442" y="1100" type="line" smooth="yes"/>
      <point x="2442" y="1245"/>
      <point x="2287" y="1400"/>
      <point x="2142" y="1400" type="qcurve" smooth="yes"/>
      <point x="634" y="1400" type="line" smooth="yes"/>
      <point x="489" y="1400"/>
      <point x="334" y="1245"/>
    </contour>
    <contour>
      <point x="1764" y="1800" type="line"/>
      <point x="1704" y="1800" type="line"/>
      <point x="1269" y="1509" type="line"/>
      <point x="834" y="1800" type="line"/>
      <point x="772" y="1800" type="line"/>
      <point x="1248" y="1485" type="line"/>
      <point x="1288" y="1485" type="line"/>
    </contour>
  </outline>
</glyph>
<glyph name="ccaron" format="2">
  <advance width="1952"/>
  <unicode hex="010D"/>
  <anchor x="1011" y="1538" name="top"/>
  <anchor x="1011" y="-150" name="bottom"/>
  <anchor x="548" y="1266" name="topright"/>
  <outline>
    <contour>
      <point x="294" y="162" type="line" smooth="yes"/>
      <point x="294" y="82.767"/>
      <point x="376.767" y="0"/>
      <point x="456" y="0" type="qcurve" smooth="yes"/>
      <point x="1571" y="0" type="line" smooth="yes"/>
      <point x="1650.23" y="0"/>
      <point x="1732" y="82.767"/>
      <point x="1732" y="162" type="qcurve" smooth="yes"/>
      <point x="1732" y="290" type="line"/>
      <point x="1696" y="300" type="line"/>
      <point x="1696" y="168" type="line" smooth="yes"/>
      <point x="1696" y="101.595"/>
      <point x="1637.4" y="32"/>
      <point x="1571" y="32" type="qcurve" smooth="yes"/>
      <point x="456" y="32" type="line" smooth="yes"/>
      <point x="388.841" y="32"/>
      <point x="330" y="101.595"/>
      <point x="330" y="168" type="qcurve" smooth="yes"/>
      <point x="330" y="832" type="line" smooth="yes"/>
      <point x="330" y="898.405"/>
      <point x="388.841" y="968"/>
      <point x="456" y="968" type="qcurve" smooth="yes"/>
      <point x="1567" y="968" type="line" smooth="yes"/>
      <point x="1633.4" y="968"/>
      <point x="1692" y="898.405"/>
      <point x="1692" y="832" type="qcurve" smooth="yes"/>
      <point x="1692" y="722" type="line"/>
      <point x="1728" y="730" type="line"/>
      <point x="1728" y="838" type="line" smooth="yes"/>
      <point x="1728" y="917.233"/>
      <point x="1646.23" y="1000"/>
      <point x="1567" y="1000" type="qcurve" smooth="yes"/>
      <point x="456" y="1000" type="line" smooth="yes"/>
      <point x="376.767" y="1000"/>
      <point x="294" y="917.233"/>
      <point x="294" y="838" type="qcurve" smooth="yes"/>
    </contour>
    <contour>
      <point x="1474" y="1438" type="line"/>
      <point x="1422" y="1438" type="line"/>
      <point x="1011" y="1121" type="line"/>
      <point x="600" y="1438" type="line"/>
      <point x="548" y="1438" type="line"/>
      <point x="995" y="1095" type="line"/>
      <point x="1027" y="1095" type="line"/>
    </contour>
  </outline>
</glyph>
<glyph name="dcaron" format="2">
  <advance width="2088"/>
  <unicode hex="010F"/>
  <anchor x="1029" y="1598" name="top"/>
  <anchor x="1029" y="-150" name="bottom"/>
  <anchor x="1762" y="1448" name="right"/>
  <outline>
    <contour>
      <point x="286" y="162" type="line" smooth="yes"/>
      <point x="286" y="82.767"/>
      <point x="368.767" y="0"/>
      <point x="448" y="0" type="qcurve" smooth="yes"/>
      <point x="1658" y="0" type="line" smooth="yes"/>
      <point x="1683.66" y="0"/>
      <point x="1711.96" y="8.454"/>
      <point x="1718" y="16" type="qcurve"/>
      <point x="1718" y="0" type="line"/>
      <point x="1754" y="0" type="line"/>
      <point x="1754" y="1448" type="line"/>
      <point x="1718" y="1448" type="line"/>
      <point x="1718" y="984" type="line"/>
      <point x="1710.45" y="991.546"/>
      <point x="1681.66" y="1000"/>
      <point x="1656" y="1000" type="qcurve" smooth="yes"/>
      <point x="448" y="1000" type="line" smooth="yes"/>
      <point x="368.767" y="1000"/>
      <point x="286" y="917.233"/>
      <point x="286" y="838" type="qcurve" smooth="yes"/>
    </contour>
    <contour>
      <point x="1718" y="968" type="line"/>
      <point x="1718" y="32" type="line"/>
      <point x="448" y="32" type="line" smooth="yes"/>
      <point x="380.841" y="32"/>
      <point x="322" y="101.595"/>
      <point x="322" y="168" type="qcurve" smooth="yes"/>
      <point x="322" y="832" type="line" smooth="yes"/>
      <point x="322" y="898.405"/>
      <point x="380.841" y="968"/>
      <point x="448" y="968" type="qcurve" smooth="yes"/>
    </contour>
    <contour>
      <point x="2034" y="1113" type="line"/>
      <point x="2065" y="1120" type="line"/>
      <point x="2125" y="1448" type="line"/>
      <point x="2091" y="1448" type="line"/>
    </contour>
  </outline>
  <guideline angle="0" x="0" y="988"/>
  <guideline angle="0" x="0" y="42"/>
</glyph>
<glyph name="Dcroat" format="2">
  <advance width="2669"/>
  <unicode hex="0110"/>
  <anchor x="1201" y="1550" name="top"/>
  <anchor x="1201" y="-150" name="bottom"/>
  <outline>
    <contour>
      <point x="350" y="0" type="line"/>
      <point x="1593" y="0" type="line" smooth="yes"/>
      <point x="1800" y="0"/>
      <point x="2117" y="76"/>
      <point x="2330" y="243"/>
      <point x="2439" y="509"/>
      <point x="2439" y="700" type="qcurve" smooth="yes"/>
      <point x="2439" y="894"/>
      <point x="2329" y="1161"/>
      <point x="2115" y="1327"/>
      <point x="1799" y="1400"/>
      <point x="1593" y="1400" type="qcurve" smooth="yes"/>
      <point x="350" y="1400" type="line"/>
      <point x="350" y="716" type="line"/>
      <point x="202" y="716" type="line"/>
      <point x="202" y="684" type="line"/>
      <point x="350" y="684" type="line"/>
    </contour>
    <contour>
      <point x="390" y="36" type="line"/>
      <point x="390" y="684" type="line"/>
      <point x="1165" y="684" type="line"/>
      <point x="1165" y="716" type="line"/>
      <point x="390" y="716" type="line"/>
      <point x="390" y="1364" type="line"/>
      <point x="1593" y="1364" type="line" smooth="yes"/>
      <point x="1790" y="1364"/>
      <point x="2090" y="1295"/>
      <point x="2293" y="1139"/>
      <point x="2397" y="885"/>
      <point x="2397" y="700" type="qcurve" smooth="yes"/>
      <point x="2397" y="519"/>
      <point x="2296" y="266"/>
      <point x="2094" y="107"/>
      <point x="1793" y="36"/>
      <point x="1593" y="36" type="qcurve" smooth="yes"/>
    </contour>
  </outline>
</glyph>
<glyph name="dcroat" format="2">
  <advance width="2108"/>
  <unicode hex="0111"/>
  <anchor x="1111" y="1598" name="top"/>
  <outline>
    <contour>
      <point x="456" y="0" type="qcurve" smooth="yes"/>
      <point x="1666" y="0" type="line" smooth="yes"/>
      <point x="1692" y="0"/>
      <point x="1720" y="8"/>
      <point x="1726" y="16" type="qcurve"/>
      <point x="1726" y="0" type="line"/>
      <point x="1762" y="0" type="line"/>
      <point x="1762" y="1188" type="line"/>
      <point x="2024" y="1188" type="line"/>
      <point x="2024" y="1220" type="line"/>
      <point x="1762" y="1220" type="line"/>
      <point x="1762" y="1448" type="line"/>
      <point x="1726" y="1448" type="line"/>
      <point x="1726" y="1220" type="line"/>
      <point x="1095" y="1220" type="line"/>
      <point x="1095" y="1188" type="line"/>
      <point x="1726" y="1188" type="line"/>
      <point x="1726" y="984" type="line"/>
      <point x="1718" y="992"/>
      <point x="1690" y="1000"/>
      <point x="1664" y="1000" type="qcurve" smooth="yes"/>
      <point x="456" y="1000" type="line" smooth="yes"/>
      <point x="377" y="1000"/>
      <point x="294" y="917"/>
      <point x="294" y="838" type="qcurve" smooth="yes"/>
      <point x="294" y="162" type="line" smooth="yes"/>
      <point x="294" y="83"/>
      <point x="377" y="0"/>
    </contour>
    <contour>
      <point x="1726" y="968" type="line"/>
      <point x="1726" y="32" type="line"/>
      <point x="456" y="32" type="line" smooth="yes"/>
      <point x="389" y="32"/>
      <point x="330" y="101"/>
      <point x="330" y="168" type="qcurve" smooth="yes"/>
      <point x="330" y="832" type="line" smooth="yes"/>
      <point x="330" y="899"/>
      <point x="389" y="968"/>
      <point x="456" y="968" type="qcurve" smooth="yes"/>
    </contour>
  </outline>
  <guideline angle="0" x="0" y="988"/>
  <guideline angle="0" x="0" y="42"/>
</glyph>
<glyph name="Ebreve" format="2">
  <advance width="2243"/>
  <unicode hex="0114"/>
  <anchor x="1294" y="1900" name="top"/>
  <anchor x="1294" y="-150" name="bottom"/>
  <anchor x="2227" y="0" name="ogonek"/>
  <outline>
    <contour>
      <point x="350" y="0" type="line"/>
      <point x="2238" y="0" type="line"/>
      <point x="2238" y="36" type="line"/>
      <point x="390" y="36" type="line"/>
      <point x="390" y="700" type="line"/>
      <point x="1568" y="700" type="line"/>
      <point x="1568" y="736" type="line"/>
      <point x="390" y="736" type="line"/>
      <point x="390" y="1364" type="line"/>
      <point x="2204" y="1364" type="line"/>
      <point x="2204" y="1400" type="line"/>
      <point x="350" y="1400" type="line"/>
    </contour>
    <contour>
      <point x="1294" y="1544" type="qcurve" smooth="yes"/>
      <point x="1383.25" y="1544"/>
      <point x="1498.38" y="1563.53"/>
      <point x="1565.12" y="1619.22"/>
      <point x="1591" y="1719.38"/>
      <point x="1591" y="1800" type="qcurve"/>
      <point x="1559" y="1800" type="line"/>
      <point x="1559" y="1724.25"/>
      <point x="1536.09" y="1636.56"/>
      <point x="1476.66" y="1591.94"/>
      <point x="1373.88" y="1580"/>
      <point x="1294" y="1580" type="qcurve" smooth="yes"/>
      <point x="1214.12" y="1580"/>
      <point x="1111.34" y="1591.94"/>
      <point x="1051.91" y="1636.56"/>
      <point x="1029" y="1724.25"/>
      <point x="1029" y="1800" type="qcurve"/>
      <point x="997" y="1800" type="line"/>
      <point x="997" y="1719.38"/>
      <point x="1022.88" y="1619.22"/>
      <point x="1089.62" y="1563.53"/>
      <point x="1204.75" y="1544"/>
    </contour>
  </outline>
</glyph>
<glyph name="edotaccent" format="2">
  <advance width="2008"/>
  <unicode hex="0117"/>
  <anchor x="1005" y="1399" name="top"/>
  <anchor x="1005" y="-150" name="bottom"/>
  <anchor x="1005" y="-0" name="ogonek"/>
  <outline>
    <contour>
      <point x="286" y="162" type="line" smooth="yes"/>
      <point x="286" y="82.767"/>
      <point x="368.767" y="0"/>
      <point x="448" y="0" type="qcurve" smooth="yes"/>
      <point x="1561" y="0" type="line" smooth="yes"/>
      <point x="1640.23" y="0"/>
      <point x="1722" y="82.767"/>
      <point x="1722" y="162" type="qcurve" smooth="yes"/>
      <point x="1722" y="250" type="line"/>
      <point x="1686" y="258" type="line"/>
      <point x="1686" y="168" type="line" smooth="yes"/>
      <point x="1686" y="101.595"/>
      <point x="1627.4" y="32"/>
      <point x="1561" y="32" type="qcurve" smooth="yes"/>
      <point x="448" y="32" type="line" smooth="yes"/>
      <point x="380.841" y="32"/>
      <point x="322" y="101.595"/>
      <point x="322" y="168" type="qcurve" smooth="yes"/>
      <point x="322" y="488" type="line"/>
      <point x="1722" y="488" type="line"/>
      <point x="1722" y="838" type="line" smooth="yes"/>
      <point x="1722" y="917.233"/>
      <point x="1640.23" y="1000"/>
      <point x="1561" y="1000" type="qcurve" smooth="yes"/>
      <point x="448" y="1000" type="line" smooth="yes"/>
      <point x="368.767" y="1000"/>
      <point x="286" y="917.233"/>
      <point x="286" y="838" type="qcurve" smooth="yes"/>
    </contour>
    <contour>
      <point x="322" y="520" type="line"/>
      <point x="322" y="832" type="line" smooth="yes"/>
      <point x="322" y="898.405"/>
      <point x="380.841" y="968"/>
      <point x="448" y="968" type="qcurve" smooth="yes"/>
      <point x="1561" y="968" type="line" smooth="yes"/>
      <point x="1627.4" y="968"/>
      <point x="1686" y="898.405"/>
      <point x="1686" y="832" type="qcurve" smooth="yes"/>
      <point x="1686" y="520" type="line"/>
    </contour>
    <contour>
      <point x="989" y="1239" type="qcurve" smooth="yes"/>
      <point x="1021" y="1239" type="line" smooth="yes"/>
      <point x="1039.11" y="1239"/>
      <point x="1045" y="1244.89"/>
      <point x="1045" y="1263" type="qcurve" smooth="yes"/>
      <point x="1045" y="1295" type="line" smooth="yes"/>
      <point x="1045" y="1313.11"/>
      <point x="1039.11" y="1319"/>
      <point x="1021" y="1319" type="qcurve" smooth="yes"/>
      <point x="989" y="1319" type="line" smooth="yes"/>
      <point x="970.89" y="1319"/>
      <point x="965" y="1313.11"/>
      <point x="965" y="1295" type="qcurve" smooth="yes"/>
      <point x="965" y="1263" type="line" smooth="yes"/>
      <point x="965" y="1244.89"/>
      <point x="970.89" y="1239"/>
    </contour>
  </outline>
  <guideline angle="0" color="1,0,0,1" x="0" y="-1000"/>
</glyph>
<glyph name="Eogonek" format="2">
  <advance width="2243"/>
  <unicode hex="0118"/>
  <anchor x="1294" y="1550" name="top"/>
  <anchor x="1294" y="-150" name="bottom"/>
  <anchor x="2227" y="0" name="ogonek"/>
  <outline>
    <contour>
      <point x="350" y="0" type="line"/>
      <point x="2238" y="0" type="line"/>
      <point x="2238" y="36" type="line"/>
      <point x="390" y="36" type="line"/>
      <point x="390" y="700" type="line"/>
      <point x="1568" y="700" type="line"/>
      <point x="1568" y="736" type="line"/>
      <point x="390" y="736" type="line"/>
      <point x="390" y="1364" type="line"/>
      <point x="2204" y="1364" type="line"/>
      <point x="2204" y="1400" type="line"/>
      <point x="350" y="1400" type="line"/>
    </contour>
    <contour>
      <point x="2227" y="0" type="qcurve"/>
      <point x="2187" y="0" type="line"/>
      <point x="2059.47" y="-48.2944"/>
      <point x="1942" y="-159.213"/>
      <point x="1942" y="-224.444" type="qcurve" smooth="yes"/>
      <point x="1942" y="-285.232"/>
      <point x="2032.52" y="-359"/>
      <point x="2107.9" y="-359" type="qcurve" smooth="yes"/>
      <point x="2143.44" y="-359"/>
      <point x="2212.34" y="-342.092"/>
      <point x="2238" y="-327" type="qcurve"/>
      <point x="2238" y="-297" type="line"/>
      <point x="2201.78" y="-312.847"/>
      <point x="2137.11" y="-329"/>
      <point x="2106.69" y="-329" type="qcurve" smooth="yes"/>
      <point x="2046.56" y="-329"/>
      <point x="1975" y="-269.626"/>
      <point x="1975" y="-219.276" type="qcurve" smooth="yes"/>
      <point x="1975" y="-156.436"/>
      <point x="2097.96" y="-52.0674"/>
    </contour>
  </outline>
</glyph>
